<?xml version="1.0" encoding="utf-8"?>
<!-- Generator: Adobe Illustrator 23.0.1, SVG Export Plug-In . SVG Version: 6.00 Build 0)  -->
<svg version="1.1" id="Book" xmlns="http://www.w3.org/2000/svg" xmlns:xlink="http://www.w3.org/1999/xlink" x="0px" y="0px"
	 viewBox="0 0 500 470" style="enable-background:new 0 0 500 470;" xml:space="preserve">
<style type="text/css">
	.st0{fill:#9C6F54;}
	.st1{fill:#895846;}
	.st2{fill:#724539;}
	.st3{fill:#D4D4D4;}
	.st4{fill:#FAFAFA;}
	.st5{fill:#E6E6E6;}
	.st6{fill:#F5F5F5;}
	.st7{fill:#DEDEDE;}
	.st8{fill:#F46C73;}
</style>
<g id="Book_1_">
	<g id="Cover">
		<g>
			<path class="st0" d="M495.7,11.4H4.3c-2.3,0-4.3,2.8-4.3,6.2v441.1c0,3.4,1.9,6.2,4.3,6.2h491.5c2.3,0,4.3-2.8,4.3-6.2V17.6
				C500,14.2,498.1,11.4,495.7,11.4z"/>
			<path class="st1" d="M495.7,11.4H4.3c-2.3,0-4.3,2.8-4.3,6.2v441.1c0,3.4,1.9,6.2,4.3,6.2h491.5c2.3,0,4.3-2.8,4.3-6.2V17.6
				C500,14.2,498.1,11.4,495.7,11.4z M498.4,458.8c0,2.2-1.2,3.9-2.7,3.9H4.3c-1.5,0-2.7-1.8-2.7-3.9V17.6c0-2.2,1.2-3.9,2.7-3.9
				h491.5c1.5,0,2.7,1.8,2.7,3.9V458.8z"/>
		</g>
		<g>
			<rect x="230.3" y="13.7" class="st2" width="39.5" height="449"/>
		</g>
	</g>
	<path class="st3" d="M250.4,17.7C244.2,9.7,229,5,222,5v448.4h56.9V5C271.9,5,256.6,9.7,250.4,17.7z"/>
	<g id="Right_x5F_Page">
		<g>
			<path class="st3" d="M343.4,5h-64.5c-7,0-22.3,4.7-28.5,12.7v435.7h239.7V16.9L480.9,5C480.9,5,373.7,5,343.4,5z"/>
			<path class="st4" d="M278.9,5c-7,0-22.3,4.7-28.5,12.7v435.7c6.2-8,21.4-12.7,28.5-12.7c7,0,37.5,0,64.5,0
				c30.3,0,137.5,0,137.5,0V5c0,0-107.2,0-137.5,0C316.3,5,285.9,5,278.9,5z"/>
			<polygon class="st5" points="480.9,440.7 490.1,453.4 490.1,16.9 480.9,5 			"/>
			<path class="st6" d="M250.4,453.4c6.2-8,21.4-12.7,28.5-12.7V5c-7,0-22.3,4.7-28.5,12.7V453.4z"/>
		</g>
	</g>
	<g id="Left_x5F_Page">
		<g>
			<path class="st3" d="M157.4,5C127.1,5,19.9,5,19.9,5l-9.2,11.9v436.5h239.7V17.7C244.2,9.7,229,5,222,5H157.4z"/>
			<polygon class="st5" points="10.7,453.4 19.9,440.7 19.9,5 10.7,16.9 			"/>
			<path class="st4" d="M157.4,5C127.1,5,19.9,5,19.9,5v435.7c0,0,107.2,0,137.5,0c27.1,0,57.5,0,64.5,0c7,0,22.3,4.7,28.5,12.7
				V17.7C244.2,9.7,229,5,222,5C214.9,5,184.5,5,157.4,5z"/>
			<path class="st4" d="M250.4,453.4c-6.2-8-21.4-12.7-28.5-12.7V5c7,0,22.3,4.7,28.5,12.7V453.4z"/>
		</g>
	</g>
</g>
<g id="Bookmark">
	<polygon id="Shadow_1_" class="st7" points="314.8,59.3 330.6,48 346.5,59.3 346.5,3 314.8,3 	"/>
	<polygon id="Bookmark_1_" class="st8" points="316.8,55.5 332.6,44.1 348.5,55.5 348.5,3 316.8,3 	"/>
</g>
</svg>
