<?xml version="1.0" encoding="utf-8"?>
<!-- Generator: Adobe Illustrator 23.0.1, SVG Export Plug-In . SVG Version: 6.00 Build 0)  -->
<svg version="1.1" id="Layer_1" xmlns="http://www.w3.org/2000/svg" xmlns:xlink="http://www.w3.org/1999/xlink" x="0px" y="0px"
	 viewBox="0 0 64 64" style="enable-background:new 0 0 64 64;" xml:space="preserve">
<style type="text/css">
	.st0{opacity:0.5;}
	.st1{fill:#42210B;}
	.st2{fill:#C69F75;}
	.st3{fill:#C69B6B;}
	.st4{fill:#402108;}
</style>
<g class="st0">
	<g>
		<path class="st1" d="M33.3,55.9c-13.1,0-23.7-10.6-23.7-23.7S20.2,8.4,33.3,8.4C46.4,8.4,57,19.1,57,32.2S46.4,55.9,33.3,55.9z
			 M33.3,10.3c-12,0-21.8,9.8-21.8,21.8S21.3,54,33.3,54c12,0,21.8-9.8,21.8-21.8S45.4,10.3,33.3,10.3z"/>
	</g>
	<g>
		<path class="st1" d="M33.3,47.1c-8.2,0-14.9-6.7-14.9-14.9c0-8.2,6.7-14.9,14.9-14.9c8.2,0,14.9,6.7,14.9,14.9
			C48.2,40.4,41.5,47.1,33.3,47.1z M33.3,18.9c-7.3,0-13.2,5.9-13.2,13.2c0,7.3,5.9,13.2,13.2,13.2c7.3,0,13.2-5.9,13.2-13.2
			C46.6,24.8,40.6,18.9,33.3,18.9z"/>
	</g>
	<g>
		<g>
			<path class="st1" d="M33.3,13.8C23.2,13.8,15,22,15,32.2c0,10.1,8.2,18.3,18.3,18.3c10.1,0,18.3-8.2,18.3-18.3
				C51.6,22,43.4,13.8,33.3,13.8z M51.2,31.9h-2.8c0-1.2-0.2-2.3-0.5-3.4l2.7-0.7C51,29.1,51.2,30.4,51.2,31.9z M50.5,27.3L47.8,28
				c-0.3-1.1-0.8-2.2-1.3-3.2l2.4-1.4C49.6,24.6,50.1,25.9,50.5,27.3z M48.7,23l-2.4,1.4c-0.6-1-1.3-1.9-2.1-2.7l2-2
				C47.1,20.7,48,21.8,48.7,23z M45.8,19.4l-2,2c-0.8-0.8-1.7-1.5-2.7-2.1l1.4-2.4C43.7,17.5,44.8,18.4,45.8,19.4z M42.1,16.6
				L40.7,19c-1-0.6-2.1-1-3.2-1.3l0.7-2.7C39.6,15.3,40.9,15.9,42.1,16.6z M33.6,14.3c1.4,0,2.8,0.2,4.2,0.6l-0.7,2.7
				c-1.1-0.3-2.3-0.4-3.4-0.5V14.3z M33.2,14.3v2.8c-1.2,0-2.3,0.2-3.5,0.4L29,14.8C30.3,14.5,31.7,14.3,33.2,14.3z M28.6,14.9
				l0.7,2.7c-1.1,0.3-2.2,0.8-3.2,1.3l-1.4-2.4C25.9,15.8,27.2,15.3,28.6,14.9z M24.3,16.7l1.4,2.4c-1,0.6-1.9,1.3-2.8,2.1l-2-2
				C21.9,18.3,23,17.4,24.3,16.7z M20.6,19.6l2,2c-0.8,0.8-1.5,1.8-2.2,2.8L18,22.9C18.7,21.7,19.6,20.6,20.6,19.6z M17.8,23.3
				l2.4,1.4c-0.6,1-1,2.1-1.4,3.2l-2.7-0.7C16.5,25.9,17.1,24.5,17.8,23.3z M16,27.7l2.7,0.7c-0.3,1.1-0.4,2.3-0.5,3.5h-2.8
				C15.4,30.4,15.6,29,16,27.7z M15.4,32.3h2.8c0,1.2,0.2,2.4,0.4,3.5L16,36.5C15.6,35.2,15.4,33.8,15.4,32.3z M16.1,37l2.7-0.7
				c0.3,1.1,0.8,2.2,1.4,3.3l-2.4,1.4C17,39.7,16.5,38.4,16.1,37z M17.9,41.3l2.4-1.4c0.6,1,1.3,1.9,2.1,2.8l-2,2
				C19.5,43.7,18.7,42.5,17.9,41.3z M20.8,45l2-2c0.8,0.8,1.8,1.5,2.8,2.1l-1.4,2.4C23,46.8,21.9,46,20.8,45z M24.6,47.8l1.4-2.4
				c1,0.6,2.1,1,3.3,1.3l-0.7,2.7C27.2,49,25.8,48.5,24.6,47.8z M33.2,50c-1.5,0-2.9-0.2-4.2-0.5l0.7-2.7c1.1,0.3,2.3,0.4,3.5,0.4
				V50z M33.2,46.8L33.2,46.8c-1.2,0-2.3-0.1-3.4-0.4l0,0c-0.1,0-0.3-0.1-0.4-0.1l0,0c-1.1-0.3-2.2-0.7-3.1-1.3l0,0
				c-0.1-0.1-0.3-0.1-0.4-0.2l0,0c-1-0.6-1.9-1.3-2.7-2.1l0,0c-0.1-0.1-0.2-0.2-0.3-0.3l0,0c0,0-0.1-0.1-0.1-0.1
				c0,0-0.1-0.1-0.1-0.1c-0.1-0.1-0.1-0.1-0.2-0.2c0,0-0.1-0.1-0.1-0.1c-0.1-0.1-0.2-0.2-0.2-0.3c0-0.1-0.1-0.1-0.1-0.2
				c0,0-0.1-0.1-0.1-0.1c0-0.1-0.1-0.1-0.1-0.2c0,0-0.1-0.1-0.1-0.1c0-0.1-0.1-0.1-0.1-0.2c0,0-0.1-0.1-0.1-0.1
				c0-0.1-0.1-0.1-0.1-0.2c0,0-0.1-0.1-0.1-0.1c-0.1-0.1-0.1-0.2-0.1-0.2c0-0.1-0.1-0.1-0.1-0.2c0-0.1-0.1-0.2-0.1-0.2c0,0,0,0,0,0
				h0c-0.1-0.1-0.2-0.3-0.2-0.4l0,0c0,0,0,0,0-0.1c0-0.1-0.1-0.1-0.1-0.2c0,0,0-0.1-0.1-0.1c0-0.1-0.1-0.1-0.1-0.2
				c0,0,0-0.1-0.1-0.1c0-0.1-0.1-0.2-0.1-0.3c0-0.1-0.1-0.2-0.1-0.3c0,0,0-0.1-0.1-0.1c0-0.1-0.1-0.2-0.1-0.2c0,0,0-0.1,0-0.1
				c0-0.1-0.1-0.2-0.1-0.2c0,0,0-0.1,0-0.1c0-0.1-0.1-0.2-0.1-0.3c0,0,0,0,0,0c-0.1-0.2-0.1-0.4-0.2-0.7l0,0c0-0.1-0.1-0.3-0.1-0.4
				l0,0c0-0.1,0-0.1,0-0.2c0,0,0-0.1,0-0.1c0-0.1,0-0.2-0.1-0.2c0,0,0-0.1,0-0.1c0-0.1,0-0.2,0-0.2c0-0.1,0-0.1,0-0.2
				c0-0.1,0-0.1,0-0.2c0-0.1,0-0.1,0-0.2c0-0.1,0-0.1,0-0.2c0-0.1,0-0.3,0-0.4c0,0,0-0.1,0-0.1c0-0.1,0-0.2,0-0.3c0,0,0-0.1,0-0.1
				c0-0.1,0-0.2,0-0.3c0,0,0-0.1,0-0.1c0-0.1,0-0.2,0-0.3c0,0,0,0,0,0h0c0-0.1,0-0.1,0-0.2c0-0.1,0-0.2,0-0.3h0c0,0,0,0,0,0
				c0.1-8,6.6-14.4,14.6-14.4s14.5,6.4,14.6,14.4c0,0,0,0,0,0l0,0c0,0.1,0,0.2,0,0.3c0,0.1,0,0.1,0,0.2h0c0,0,0,0,0,0
				c0,0.1,0,0.2,0,0.3c0,0,0,0.1,0,0.1c0,0.1,0,0.2,0,0.3c0,0,0,0.1,0,0.1c0,0.1,0,0.2,0,0.3c0,0,0,0.1,0,0.1c0,0.1,0,0.3,0,0.4
				c0,0.1,0,0.1,0,0.2c0,0.1,0,0.2,0,0.2c0,0.1,0,0.1,0,0.2c0,0.1,0,0.1,0,0.2c0,0.1,0,0.1,0,0.2c0,0.1,0,0.1,0,0.2
				c0,0.1,0,0.1,0,0.2c0,0.1,0,0.1,0,0.2c0,0,0,0.1,0,0.1l0,0c0,0.1-0.1,0.3-0.1,0.4l0,0c0,0,0,0,0,0.1c0,0,0,0,0,0
				c-0.1,0.2-0.1,0.4-0.2,0.6c0,0,0,0,0,0c0,0.1-0.1,0.2-0.1,0.2c0,0,0,0.1,0,0.1c0,0.1-0.1,0.1-0.1,0.2c0,0,0,0.1-0.1,0.1
				c0,0.1-0.1,0.1-0.1,0.2c0,0.1,0,0.1-0.1,0.1c0,0.1-0.1,0.1-0.1,0.2c0,0.1,0,0.1-0.1,0.2c0,0.1-0.1,0.1-0.1,0.2
				c0,0.1-0.1,0.1-0.1,0.2c0,0.1-0.1,0.2-0.1,0.3c0,0.1-0.1,0.1-0.1,0.2c0,0,0,0,0,0l0,0c-0.1,0.1-0.1,0.3-0.2,0.4l0,0
				c0,0,0,0,0,0.1c0,0.1-0.1,0.1-0.1,0.2c0,0-0.1,0.1-0.1,0.1c0,0.1-0.1,0.2-0.1,0.2c0,0,0,0.1-0.1,0.1c-0.1,0.1-0.1,0.2-0.2,0.3
				c0,0.1-0.1,0.1-0.1,0.2c0,0-0.1,0.1-0.1,0.1c0,0.1-0.1,0.1-0.1,0.2c0,0-0.1,0.1-0.1,0.1c-0.1,0.1-0.1,0.1-0.2,0.2
				c0,0,0,0-0.1,0.1c-0.1,0.1-0.1,0.2-0.2,0.2c0,0,0,0,0,0c-0.2,0.2-0.3,0.4-0.5,0.5l0,0c-0.1,0.1-0.2,0.2-0.3,0.3l0,0
				c0,0-0.1,0.1-0.2,0.1c0,0,0,0,0,0c-0.8,0.7-1.6,1.4-2.5,1.9l0,0c-0.1,0.1-0.3,0.2-0.4,0.2l0,0c-1,0.6-2,1-3.1,1.3l0,0
				c-0.1,0-0.3,0.1-0.4,0.1l0,0c-1.1,0.3-2.2,0.4-3.4,0.5v0c-0.1,0-0.2,0-0.3,0C33.3,46.8,33.2,46.8,33.2,46.8z M33.6,50v-2.8
				c1.2,0,2.4-0.2,3.5-0.5l0.7,2.7C36.5,49.8,35.1,50,33.6,50z M38.3,49.3l-0.7-2.7c1.1-0.3,2.2-0.8,3.2-1.4l1.4,2.4
				C40.9,48.4,39.6,49,38.3,49.3z M42.5,47.5L41.1,45c1-0.6,1.9-1.3,2.7-2.1l2,2C44.9,45.9,43.8,46.7,42.5,47.5z M46.2,44.6l-2-2
				c0.8-0.8,1.5-1.8,2.1-2.8l2.4,1.4C48,42.4,47.2,43.6,46.2,44.6z M49,40.8l-2.4-1.4c0.6-1,1-2.1,1.3-3.2l2.7,0.7
				C50.2,38.3,49.6,39.6,49,40.8z M47.9,35.8c0.3-1.1,0.4-2.3,0.4-3.4h2.8c0,1.4-0.2,2.8-0.5,4.2L47.9,35.8z"/>
		</g>
	</g>
	<g>
		<g>
			<polygon class="st1" points="42.7,41.5 35.5,32.2 42.7,22.8 42.6,22.7 33.3,29.9 24,22.7 23.9,22.8 31.1,32.2 23.9,41.5 24,41.6 
				33.3,34.4 42.6,41.6 			"/>
		</g>
		<g>
			<g>
				<polygon class="st1" points="29.7,32.2 33.2,59.4 33.5,59.4 36.9,32.2 33.5,4.9 33.2,4.9 				"/>
			</g>
			<g>
				<polygon class="st2" points="30.2,32 33.4,32 33.4,6.3 33.2,6.3 				"/>
			</g>
			<g>
				<polygon class="st2" points="36.5,32.3 33.3,32.3 33.3,58 33.5,58 				"/>
			</g>
		</g>
		<g>
			<g>
				<polygon class="st1" points="33.3,35.8 60.6,32.3 60.6,32 33.3,28.5 6,32 6,32.3 				"/>
			</g>
			<g>
				<polygon class="st2" points="33.1,35.3 33.1,32.1 7.5,32.1 7.5,32.2 				"/>
			</g>
			<g>
				<polygon class="st2" points="33.5,28.9 33.5,32.1 59.1,32.1 59.1,32 				"/>
			</g>
		</g>
		<g>
			<path class="st3" d="M37.7,32.2c0,2.4-2,4.4-4.4,4.4c-2.4,0-4.4-2-4.4-4.4c0-2.4,2-4.4,4.4-4.4C35.7,27.8,37.7,29.7,37.7,32.2z"
				/>
			<path class="st4" d="M33.3,36.9c-2.6,0-4.8-2.1-4.8-4.8c0-2.6,2.1-4.8,4.8-4.8c2.6,0,4.8,2.1,4.8,4.8
				C38.1,34.8,35.9,36.9,33.3,36.9z M33.3,28.1c-2.2,0-4,1.8-4,4c0,2.2,1.8,4,4,4s4-1.8,4-4C37.3,29.9,35.5,28.1,33.3,28.1z"/>
		</g>
		<g>
			<path class="st3" d="M36.3,32.2c0,1.6-1.3,2.9-2.9,2.9c-1.6,0-2.9-1.3-2.9-2.9c0-1.6,1.3-2.9,2.9-2.9
				C34.9,29.2,36.3,30.5,36.3,32.2z"/>
			<path class="st4" d="M33.3,35.4c-1.8,0-3.2-1.4-3.2-3.2c0-1.8,1.4-3.2,3.2-3.2c1.8,0,3.2,1.4,3.2,3.2
				C36.5,33.9,35.1,35.4,33.3,35.4z M33.3,29.5c-1.5,0-2.7,1.2-2.7,2.7c0,1.5,1.2,2.7,2.7,2.7c1.5,0,2.7-1.2,2.7-2.7
				C36,30.7,34.8,29.5,33.3,29.5z"/>
		</g>
	</g>
	<g>
		<g>
			<path class="st1" d="M32.3,63.2c0.2,0.1,0.5,0.2,0.8,0.2c0.3,0,0.5-0.1,0.5-0.3c0-0.2-0.1-0.3-0.5-0.4c-0.5-0.2-0.9-0.5-0.9-0.9
				c0-0.5,0.4-0.9,1.2-0.9c0.4,0,0.6,0.1,0.8,0.2L34,61.5c-0.1-0.1-0.3-0.1-0.7-0.1c-0.3,0-0.5,0.1-0.5,0.3c0,0.2,0.2,0.3,0.6,0.4
				c0.6,0.2,0.8,0.5,0.8,0.9c0,0.5-0.4,1-1.3,1c-0.4,0-0.7-0.1-0.9-0.2L32.3,63.2z"/>
		</g>
		<path class="st1" d="M31.9,3.1V0h0.8l0.7,1.2c0.2,0.3,0.4,0.7,0.5,1.1h0c0-0.4-0.1-0.8-0.1-1.3V0h0.7v3.1h-0.7l-0.7-1.2
			c-0.2-0.3-0.4-0.7-0.5-1.1l0,0c0,0.4,0,0.9,0,1.4v0.9H31.9z"/>
	</g>
	<g>
		<path class="st1" d="M63.5,32.5h-1.2v0.7h1.3v0.6h-2v-3.1h1.9v0.6h-1.2v0.7h1.2V32.5z"/>
		<path class="st1" d="M1.1,33.8l-0.7-3.1h0.8L1.3,32c0.1,0.4,0.1,0.8,0.2,1.1h0c0.1-0.3,0.1-0.7,0.2-1.1L2,30.7h0.8L3,32
			c0.1,0.4,0.1,0.7,0.2,1.1h0c0-0.3,0.1-0.7,0.2-1.1l0.3-1.3h0.7l-0.8,3.1H2.7l-0.3-1.4c-0.1-0.3-0.1-0.6-0.1-1h0
			c-0.1,0.4-0.1,0.7-0.2,1l-0.3,1.4H1.1z"/>
	</g>
</g>
</svg>
