<?xml version="1.0" encoding="utf-8"?>
<!-- Generator: Adobe Illustrator 23.0.1, SVG Export Plug-In . SVG Version: 6.00 Build 0)  -->
<svg version="1.1" id="Layer_1" xmlns="http://www.w3.org/2000/svg" xmlns:xlink="http://www.w3.org/1999/xlink" x="0px" y="0px"
	 viewBox="0 0 200 200" style="enable-background:new 0 0 200 200;" xml:space="preserve">
<style type="text/css">
	.st0{fill:#D68E4D;}
	.st1{fill:#886154;}
	.st2{fill:#232122;}
</style>
<g>
	<rect x="40" y="161.9" class="st0" width="5.6" height="38.1"/>
	<rect x="40" y="194.2" class="st0" width="56.3" height="5.9"/>
	<rect x="68.4" y="162.4" class="st0" width="5.6" height="32.3"/>
	<path class="st1" d="M154.4,94.9c-0.4-0.2-0.9-0.4-1.3-0.6c-3.8-1.5-8.5-2.4-12.6-2.5c-4.7,0-9.4-2.3-13.3-4.9
		c-3.5-2.4-6.5-5.6-9.2-8.9c-8.6-10.8-18.1-20.3-31.2-25.4c0,0,0.1-0.1,0.2-0.2c-10.5-3-22.1-3.5-34-1.1C18.2,58.5-5.2,88.7,1,118.9
		c3.3,16.2,11.6,29.5,25.4,37.1c3.9,3.2,8,7.2,9.5,11c0.3,0.8,0.6,1.1,0.8,1.1c1.7,2.4,3.9,3.5,6.6,3.5c3.5,0.1,6.7-2.2,8.7-5.8
		c2.4-2.1,6.1-3.9,10.4-0.4c0.8,1.2,1.7,2.3,2.8,3.1c0,0,0,0,0,0.1l0,0c1.7,1.3,3.7,2.1,5.9,2c2.8,0,5.8-2.3,7.9-5.7v0
		c2.6-4.4,6.8-4.6,6.8-4.6l0.1-0.1c2.7-0.5,5.3-1.1,7.9-1.7c2.4-0.7,4.7-1.8,6.9-2.9c5.5-2.6,10.8-5.8,15.9-9.2
		c5.2-3.5,9.4-8.5,15.5-10.5c4.1-1.3,8.2-1,12.3-0.6c8.4,0.9,17.5-0.9,22-8.8C172.8,115.4,165.5,100.1,154.4,94.9z"/>
	<path class="st0" d="M170.8,122.6c-1.1-1.4-2.8-2.4-4.8-2.4c-3.3,0-5.9,2.5-5.9,5.6c0,2.4,1.6,4.4,3.8,5.2
		c32.5,17.8,35.3,44.7,35.3,44.7C205.2,149.9,176.5,126.9,170.8,122.6z"/>
	<g>
		<path class="st1" d="M199.9,175.8l-1.6-0.1c2.1-30-37.6-52.5-38-52.8l0.8-1.4c0.1,0.1,10.4,5.8,20.2,15.3
			C194.4,149.4,200.8,162.9,199.9,175.8z"/>
	</g>
	<path class="st2" d="M154.7,114.9c0.5,1.6-0.3,3.2-1.8,3.8c-1.5,0.5-3.2-0.3-3.8-1.8c-0.5-1.5,0.3-3.2,1.8-3.8
		C152.4,112.5,154.1,113.3,154.7,114.9z"/>
</g>
</svg>
