<?xml version="1.0" encoding="utf-8"?>
<!-- Generator: Adobe Illustrator 23.0.1, SVG Export Plug-In . SVG Version: 6.00 Build 0)  -->
<svg version="1.1" id="Layer_1" xmlns="http://www.w3.org/2000/svg" xmlns:xlink="http://www.w3.org/1999/xlink" x="0px" y="0px"
	 viewBox="0 0 200 200" style="enable-background:new 0 0 200 200;" xml:space="preserve">
<style type="text/css">
	.st0{fill:#5B575A;}
	.st1{fill:#696A6C;}
	.st2{fill:#232122;}
	.st3{fill:#5B4C47;}
	.st4{fill:#AEB1AA;}
</style>
<g>
	<path class="st0" d="M48.8,159c0-7,3.1-16.4,6.9-22.2c2.4-3.7,8.3-7.3,12.1-9.3c14.8-7.8,35.6-4.6,46.4,8.5
		c7.1,8.7,10.2,21.8,10.3,32.9c0.1,6.9-2.3,13.3-6.2,18.7l1.2,0c14.8,0,13.3,12.2,13.3,12.2l-58.8-0.2l-0.2-0.1
		C58.1,193.5,48.8,178.3,48.8,159z"/>
	<path class="st1" d="M140.4,77.3l3.1,110.1c0,0,11.4,3.7,11.4,12.5l-23.8,0c0,0-18.8-68.2-34.9-73.4c-16.2-5.2,26-49.7,34-43.5
		L140.4,77.3z"/>
	<path class="st1" d="M64.4,54.3c0,23.2,20.4,42.1,45.6,42.1c25.2,0,45.6-18.8,45.6-42.1c0-23.2-20.4-42.1-45.6-42.1
		C84.8,12.2,64.4,31,64.4,54.3z"/>
	<path class="st2" d="M129,51.5c0,1.9,1.5,3.4,3.4,3.4c1.9,0,3.4-1.5,3.4-3.4c0-1.9-1.5-3.4-3.4-3.4C130.5,48.1,129,49.6,129,51.5z"
		/>
	<path class="st2" d="M84.6,51.4c0,1.9,1.5,3.4,3.4,3.4c1.9,0,3.4-1.5,3.4-3.4c0-1.9-1.5-3.4-3.4-3.4C86.1,48,84.6,49.6,84.6,51.4z"
		/>
	<path class="st1" d="M67.8,0.2C68.2,0,47.2-1,39.1,6.2c-4.8,4.3,17,0.5,14.5,2.3C66.3,4.7,67.8,0.2,67.8,0.2z"/>
	<path class="st1" d="M60.8,7.6c0.3-0.2-8.4-0.6-9.1-0.5c-4.1,0.5-13.8,3.2-16.8,6.2c-4.6,4.6,17,0.5,14.5,2.3
		C62.1,11.7,60.8,7.6,60.8,7.6z"/>
	<path class="st1" d="M96.3,14.6c1-1.1-9.5-7.3-10.4-7.8C75.5,0.5,65.2-2.9,53.8,3.2c-9.4,5.1-17.1,15.2-17.5,26.2
		c0,0,23.3,17.4,33.3,22.6C69.5,52,96.3,14.7,96.3,14.6z"/>
	<path class="st2" d="M99.5,54.6c0,7.8,1.6,14.1,10.6,14.1c8.5,0,10.6-6.3,10.6-14.1c0-7.8-4.7-14.1-10.6-14.1
		C104.3,40.5,99.5,46.8,99.5,54.6z"/>
	<path class="st3" d="M103,71.7l7.2-3l7.3,1.7c0,4.1-3.3,7.3-7.4,7.3c-3.8,0-6.9-2.9-7.3-6.6L103,71.7z"/>
	<g>
		<g>
			
				<rect x="101.4" y="67.4" transform="matrix(0.9114 -0.4115 0.4115 0.9114 -18.4726 51.0779)" class="st2" width="16" height="2"/>
		</g>
	</g>
	<g>
		<g>
			<rect x="109.7" y="60.3" transform="matrix(0.412 -0.9112 0.9112 0.412 2.8038 141.0539)" class="st2" width="2" height="16"/>
		</g>
	</g>
	<path class="st4" d="M130.2,94.1c0,0-2.7,70.2-22.8,78.2l-7.3-70.8L130.2,94.1z"/>
	<path class="st1" d="M111.7,91.4l-0.8,97.7c0,0,10.7,2.7,10.7,10.9l-39.9-0.1c0,0-13.2-49.6-28.4-54.5c-15.2-4.9-30-18.6-38.3,14
		c0,0-11.2-41.7,56.3-97.1L111.7,91.4z"/>
	<path class="st0" d="M23,137.4c2.8-3.6,6.3-6.5,10.1-8c9.1-3.7,20.2-1.9,27.9,3.9c11.9,9,18.8,27.8,20.9,42
		c0.6,3.9,1.2,8.2,1.4,12.1l1.4-0.1c0,0,0,0.1-0.1,0.1l1.2,0c14.8,0,13.1,12.4,13.1,12.4l-58.7,0c-15.8-6-25.1-21.7-25.1-41
		C15,151.9,18.1,143.6,23,137.4z"/>
	<path class="st0" d="M50.2,21.5c0,6.9,5.6,12.5,12.5,12.5c6.9,0,12.5-5.6,12.5-12.5C75.2,14.6,69.6,9,62.7,9
		C55.8,9,50.2,14.6,50.2,21.5z"/>
	<path class="st1" d="M152,0.5c-0.3-0.2,20.6-1.2,28.8,6c4.8,4.3-17,0.5-14.5,2.3C153.6,4.9,152.1,0.5,152,0.5z"/>
	<path class="st1" d="M159,7.8c-0.3-0.2,8.4-0.6,9.1-0.5c4.1,0.5,13.8,3.2,16.8,6.2c4.6,4.6-17,0.5-14.5,2.3
		C157.8,12,159.1,7.9,159,7.8z"/>
	<path class="st1" d="M123.6,14.9c-1-1.1,9.5-7.3,10.4-7.8c10.4-6.3,20.8-9.8,32.1-3.6c9.4,5.1,17.1,15.2,17.5,26.2
		c0,0-23.3,17.4-33.3,22.6C150.4,52.3,123.6,14.9,123.6,14.9z"/>
	<path class="st0" d="M169.7,21.8c0,6.9-5.6,12.5-12.5,12.5c-6.9,0-12.5-5.6-12.5-12.5c0-6.9,5.6-12.5,12.5-12.5
		C164.1,9.2,169.7,14.8,169.7,21.8z"/>
</g>
</svg>
