<svg xmlns="http://www.w3.org/2000/svg" width="85" height="85" style=""><rect id="backgroundrect" width="100%" height="100%" x="0" y="0" fill="none" stroke="none" style="" class=""/><title>boss-icons-liny-export</title><g class="currentLayer" style=""><title>Layer 1</title><path d="M82.0999984741211,39.79999923706055 H70.87999725341797 a28.530000686645508,28.530000686645508 0 0 0 -6.599999904632568,-16 l2.5399999618530273,-2.5299999713897705 a2.5,2.5 0 1 0 -3.5399999618530273,-3.5299999713897705 l-2.5299999713897705,2.5299999713897705 a28.530000686645508,28.530000686645508 0 0 0 -16,-6.599999904632568 V2.5 a2.5,2.5 0 0 0 -5,0 V13.710000038146973 a28.469999313354492,28.469999313354492 0 0 0 -15.9399995803833,6.610000133514404 l-2.5299999713897705,-2.5299999713897705 a2.5,2.5 0 0 0 -3.5399999618530273,3.5299999713897705 l2.5399999618530273,2.5399999618530273 A28.469999313354492,28.469999313354492 0 0 0 13.720000267028809,39.79999923706055 H2.5 a2.5,2.5 0 0 0 0,5 H13.720000267028809 a28.68000030517578,28.68000030517578 0 0 0 6.599999904632568,15.9399995803833 l-2.5299999713897705,2.5299999713897705 a2.5199999809265137,2.5199999809265137 0 0 0 0,3.5399999618530273 a2.509999990463257,2.509999990463257 0 0 0 3.5399999618530273,0 l2.5299999713897705,-2.5299999713897705 a28.68000030517578,28.68000030517578 0 0 0 15.9399995803833,6.599999904632568 V82.0999984741211 a2.5,2.5 0 0 0 5,0 V70.87999725341797 a28.469999313354492,28.469999313354492 0 0 0 15.9399995803833,-6.610000133514404 l2.5399999618530273,2.5399999618530273 a2.490000009536743,2.490000009536743 0 0 0 1.7699999809265137,0.7300000190734863 a2.450000047683716,2.450000047683716 0 0 0 1.7599999904632568,-0.7300000190734863 a2.5,2.5 0 0 0 0,-3.5399999618530273 l-2.5299999713897705,-2.5299999713897705 A28.469999313354492,28.469999313354492 0 0 0 70.88999938964844,44.79999923706055 H82.0999984741211 a2.5,2.5 0 0 0 0,-5 zm-42.75,-4 a5.920000076293945,5.920000076293945 0 0 1 -3.569999933242798,3.5 a5.809999942779541,5.809999942779541 0 0 1 -2,0.3700000047683716 a6,6 0 0 1 -6,-6 a5.829999923706055,5.829999923706055 0 0 1 0.3700000047683716,-2 A5.909999847412109,5.909999847412109 0 0 1 31.56999969482422,28 a5.760000228881836,5.760000228881836 0 0 1 2.1600000858306885,-0.4099999964237213 a6,6 0 0 1 6,6 A5.760000228881836,5.760000228881836 0 0 1 39.349998474121094,35.810001373291016 z" id="svg_1" class=""/></g></svg>