<?xml version="1.0" encoding="utf-8"?>
<!-- Generator: Adobe Illustrator 23.0.1, SVG Export Plug-In . SVG Version: 6.00 Build 0)  -->
<svg version="1.1"
	 id="Layer_1" xmlns:cc="http://creativecommons.org/ns#" xmlns:dc="http://purl.org/dc/elements/1.1/" xmlns:inkscape="http://www.inkscape.org/namespaces/inkscape" xmlns:rdf="http://www.w3.org/1999/02/22-rdf-syntax-ns#" xmlns:sodipodi="http://sodipodi.sourceforge.net/DTD/sodipodi-0.dtd" xmlns:svg="http://www.w3.org/2000/svg"
	 xmlns="http://www.w3.org/2000/svg" xmlns:xlink="http://www.w3.org/1999/xlink" x="0px" y="0px" viewBox="678 356 80 80"
	 enable-background="new 678 356 80 80" xml:space="preserve">
<sodipodi:namedview  bordercolor="#666666" borderopacity="1" gridtolerance="10" guidetolerance="10" id="namedview7" inkscape:current-layer="Layer_1" inkscape:cx="512" inkscape:cy="512" inkscape:pageopacity="0" inkscape:pageshadow="2" inkscape:window-height="480" inkscape:window-maximized="0" inkscape:window-width="640" inkscape:window-x="0" inkscape:window-y="0" inkscape:zoom="0.23046875" objecttolerance="10" pagecolor="#ffffff" showgrid="false">
	</sodipodi:namedview>
<g id="g2982" transform="matrix(-1.8749991,0,0,-1.8749991,991.99985,991.99977)">
	<path id="rect19383" inkscape:connector-curvature="0" fill="#835E59" d="M144,335.7c1.2,0,2.3-0.4,3.2-1.3c1.8-1.8,1.8-4.7,0-6.5
		l-5.4-5.4h21.1c2.5,0,4.6-2,4.6-4.6c0-2.5-2-4.6-4.6-4.6h-21.1l5.4-5.4c1.8-1.8,1.8-4.7,0-6.5s-4.7-1.8-6.5,0
		c-5.7,5.7-10.3,10.3-15.6,15.6c-0.5,0.5-0.5,1.4,0,1.9l15.6,15.6C141.7,335.3,142.8,335.7,144,335.7z"/>
</g>
</svg>
