<?xml version="1.0" encoding="utf-8"?>
<!-- Generator: Adobe Illustrator 23.0.1, SVG Export Plug-In . SVG Version: 6.00 Build 0)  -->
<svg version="1.1" id="Ñëîé_1" xmlns="http://www.w3.org/2000/svg" xmlns:xlink="http://www.w3.org/1999/xlink" x="0px" y="0px"
	 viewBox="0 0 100 100" style="enable-background:new 0 0 100 100;" xml:space="preserve">
<style type="text/css">
	.st0{fill:#FFFFFF;}
</style>
<g id="_x33_50._Repeat">
	<g>
		<path class="st0" d="M27.4,78C19.2,71.4,14,61.3,14,50c0-16.8,11.5-30.8,27-34.8V5.9C20.5,10,5,28.2,5,50
			c0,13.5,5.9,25.5,15.3,33.8C27.5,90.5,32,81.5,27.4,78z M79.4,15.9c-4.6-4.2-11.4,2.6-6.9,5.9C80.7,28.4,86,38.6,86,50
			c0,16.8-11.5,30.8-27,34.8v9.3C79.5,89.9,95,71.8,95,50C95,36.3,88.9,24.1,79.4,15.9z M45,22.9l14.6-8.8c2.1-1.3,2.1-3.4,0-4.6
			L44.8,0.6C42.7-0.7,41,0.3,41,2.7l0.1,18C41.1,23.2,42.8,24.2,45,22.9z M55.2,77.1L40.4,86c-2.1,1.3-2.1,3.4,0,4.6L55,99.4
			c2.1,1.3,3.9,0.3,3.9-2.2l0.1-18C59,76.8,57.3,75.8,55.2,77.1z"/>
	</g>
</g>
</svg>
