<?xml version="1.0" encoding="utf-8"?>
<!-- Generator: Adobe Illustrator 23.0.1, SVG Export Plug-In . SVG Version: 6.00 Build 0)  -->
<svg version="1.1" id="Layer_1" xmlns="http://www.w3.org/2000/svg" xmlns:xlink="http://www.w3.org/1999/xlink" x="0px" y="0px"
	 viewBox="0 0 300 180" style="enable-background:new 0 0 300 180;" xml:space="preserve">
<style type="text/css">
	.st0{fill:none;}
	.st1{fill:#FFFFFF;}
	.st2{fill:#314F6B;}
	.st3{fill:#455F78;}
	.st4{fill:#657F90;}
	.st5{fill:#9C9BA1;}
	.st6{fill:#A8A7AD;}
	.st7{fill:#5A7382;}
</style>
<path class="st0" d="M41.3,123.8c0.1,0,0.2,0,0.2,0C41.5,123.7,41.4,123.7,41.3,123.8z"/>
<path class="st0" d="M41.6,123.7c0,0,0.1,0,0.1,0C41.7,123.7,41.7,123.7,41.6,123.7z"/>
<path class="st0" d="M44.9,122.3c0,0,0.1,0.1,0.1,0.1C45,122.4,44.9,122.4,44.9,122.3z"/>
<path class="st0" d="M42.3,123.3C42.3,123.3,42.3,123.3,42.3,123.3C42.3,123.3,42.3,123.3,42.3,123.3z"/>
<path class="st0" d="M41.9,123.7C41.9,123.6,41.9,123.6,41.9,123.7C41.9,123.6,41.9,123.6,41.9,123.7z"/>
<path class="st0" d="M42,123.6C42.1,123.6,42.1,123.6,42,123.6C42.1,123.6,42.1,123.6,42,123.6z"/>
<path class="st0" d="M45.2,122.5c0,0,0.1,0,0.1,0C45.2,122.5,45.2,122.5,45.2,122.5z"/>
<path class="st0" d="M262.8,20.7C262.8,20.7,262.7,20.7,262.8,20.7C262.7,20.7,262.8,20.7,262.8,20.7z"/>
<path class="st0" d="M191.7,71.1c-0.1,0-0.2,0-0.3,0C191.5,71.1,191.6,71.1,191.7,71.1z"/>
<path class="st0" d="M187.7,73.5c0,0.1-0.1,0.1-0.1,0.2C187.6,73.6,187.7,73.6,187.7,73.5z"/>
<path class="st0" d="M215,55.7c-0.3,0.3-0.7,0.7-1,1C214.3,56.3,214.7,56,215,55.7z"/>
<path class="st0" d="M233.3,41.3c-0.1,0.1-0.2,0.2-0.3,0.2C233.1,41.5,233.2,41.4,233.3,41.3z"/>
<path class="st0" d="M187.1,74.4c0,0-0.1,0.1-0.1,0.1C187,74.5,187,74.5,187.1,74.4z"/>
<path class="st0" d="M233.5,41.1c0,0-0.1,0.1-0.1,0.1C233.4,41.1,233.5,41.1,233.5,41.1z"/>
<path class="st0" d="M186.4,75.3C186.3,75.3,186.3,75.3,186.4,75.3C186.3,75.3,186.3,75.3,186.4,75.3z"/>
<path class="st0" d="M163.5,91.8c-0.1,0.4-0.2,0.7-0.3,1.1C163.3,92.6,163.4,92.2,163.5,91.8z"/>
<path class="st0" d="M164.1,89.5c-0.1,0.4-0.2,0.7-0.3,1.1C163.9,90.2,164,89.8,164.1,89.5z"/>
<path class="st0" d="M170.9,85.1c0-0.2,0.1-0.4,0.1-0.5C171,84.8,171,84.9,170.9,85.1z"/>
<path class="st0" d="M262.5,20.3c0-0.1,0-0.1-0.1-0.2C262.5,20.2,262.5,20.3,262.5,20.3z"/>
<path class="st0" d="M262.6,20.6c0,0,0-0.1-0.1-0.1C262.6,20.5,262.6,20.5,262.6,20.6z"/>
<path class="st0" d="M262.9,20.7C262.9,20.8,262.9,20.8,262.9,20.7C262.9,20.8,262.9,20.8,262.9,20.7z"/>
<path class="st0" d="M263.1,20.7c0,0-0.1,0-0.1,0.1C263.1,20.7,263.1,20.7,263.1,20.7z"/>
<path class="st0" d="M263.4,20.5c-0.1,0-0.1,0.1-0.2,0.1C263.3,20.6,263.4,20.5,263.4,20.5z"/>
<path class="st0" d="M233.8,40.2C233.8,40.2,233.8,40.2,233.8,40.2C233.8,40.2,233.8,40.2,233.8,40.2z"/>
<path class="st0" d="M233.6,39.6C233.6,39.6,233.6,39.6,233.6,39.6C233.6,39.6,233.6,39.6,233.6,39.6z"/>
<path class="st0" d="M233.8,40.5C233.8,40.5,233.8,40.5,233.8,40.5C233.8,40.5,233.8,40.5,233.8,40.5z"/>
<path class="st0" d="M233.7,40.8C233.7,40.8,233.6,40.8,233.7,40.8C233.6,40.8,233.7,40.8,233.7,40.8z"/>
<path class="st0" d="M233.8,39.9C233.8,39.9,233.8,39.9,233.8,39.9C233.8,39.9,233.8,39.9,233.8,39.9z"/>
<path class="st0" d="M162.8,94.5c-0.2,1-0.5,2-0.7,3C162.3,96.4,162.6,95.5,162.8,94.5z"/>
<path class="st0" d="M94.2,109.6C94.2,109.6,94.2,109.5,94.2,109.6C94.2,109.5,94.2,109.6,94.2,109.6z"/>
<path class="st0" d="M94.3,109.8C94.3,109.8,94.3,109.7,94.3,109.8C94.3,109.7,94.3,109.8,94.3,109.8z"/>
<path class="st0" d="M94.6,109.9c-0.1,0-0.1,0-0.2-0.1C94.4,109.9,94.5,109.9,94.6,109.9z"/>
<path class="st0" d="M101.8,105C101.8,104.9,101.7,104.9,101.8,105C101.7,104.9,101.8,104.9,101.8,105z"/>
<path class="st0" d="M102.1,105.8c0-0.1,0-0.1-0.1-0.2C102.1,105.7,102.1,105.8,102.1,105.8z"/>
<path class="st0" d="M96.7,107.5c-0.2,0.4-0.4,0.7-0.5,1.1C96.3,108.2,96.5,107.9,96.7,107.5z"/>
<path class="st0" d="M94.2,109.4c0,0,0-0.1,0-0.1C94.1,109.3,94.2,109.3,94.2,109.4z"/>
<path class="st0" d="M94.4,108.4c0,0,0-0.1,0.1-0.1C94.4,108.3,94.4,108.3,94.4,108.4z"/>
<path class="st0" d="M94.2,108.8c0,0,0-0.1,0-0.1C94.3,108.7,94.3,108.7,94.2,108.8z"/>
<path class="st0" d="M94.2,109.1c0,0,0-0.1,0-0.1C94.2,109,94.2,109,94.2,109.1z"/>
<path class="st0" d="M127.8,99.8c-0.2,0.2-0.5,0.4-0.7,0.6C127.4,100.2,127.6,100,127.8,99.8z"/>
<path class="st0" d="M113.3,101.4c0,0-0.1,0.1-0.1,0.1C113.2,101.5,113.2,101.4,113.3,101.4z"/>
<path class="st0" d="M147.8,102.6c0-0.1,0-0.3,0.1-0.4C147.8,102.3,147.8,102.5,147.8,102.6z"/>
<path class="st0" d="M114.6,100.8C114.6,100.8,114.6,100.8,114.6,100.8C114.6,100.8,114.6,100.8,114.6,100.8z"/>
<path class="st0" d="M143.6,100.3c0-0.2,0-0.3,0-0.5C143.6,100,143.6,100.1,143.6,100.3z"/>
<path class="st0" d="M106.2,103.8c0.1-0.3,0.3-0.6,0.4-0.9C106.5,103.2,106.3,103.5,106.2,103.8z"/>
<path class="st0" d="M103.5,105.2c-0.1,0.1-0.2,0.3-0.3,0.4C103.4,105.4,103.4,105.3,103.5,105.2z"/>
<path class="st0" d="M104.5,103.9c-0.1,0.1-0.2,0.2-0.3,0.4C104.3,104.1,104.4,104,104.5,103.9z"/>
<path class="st0" d="M45.7,122.6c0.1,0,0.1,0,0.2-0.1C45.8,122.5,45.7,122.6,45.7,122.6z"/>
<path class="st0" d="M106.6,102.8c0-0.1,0.1-0.3,0.1-0.4C106.7,102.5,106.7,102.7,106.6,102.8z"/>
<path class="st0" d="M102.5,107c-0.1-0.2-0.1-0.5-0.2-0.7C102.4,106.5,102.4,106.8,102.5,107z"/>
<path class="st0" d="M53.6,117.7c0,0,0.1-0.1,0.1-0.1C53.7,117.7,53.7,117.7,53.6,117.7z"/>
<path class="st0" d="M54.2,117.8C54.2,117.8,54.2,117.8,54.2,117.8C54.2,117.8,54.2,117.8,54.2,117.8z"/>
<path class="st0" d="M54.2,118c0,0,0,0.1,0,0.1C54.2,118.1,54.2,118.1,54.2,118z"/>
<path class="st0" d="M53.2,118c0,0,0.1-0.1,0.1-0.1C53.3,117.9,53.3,118,53.2,118z"/>
<path class="st0" d="M52.9,118.3c0,0,0.1-0.1,0.1-0.1C53,118.3,52.9,118.3,52.9,118.3z"/>
<path class="st0" d="M54,118.6C54,118.6,54,118.6,54,118.6C54,118.6,54,118.6,54,118.6z"/>
<path class="st0" d="M53.8,119.2C53.8,119.2,53.7,119.2,53.8,119.2C53.7,119.2,53.8,119.2,53.8,119.2z"/>
<path class="st0" d="M56.4,120c0-0.1,0.1-0.2,0.1-0.3C56.4,119.8,56.4,119.9,56.4,120z"/>
<path class="st0" d="M52.6,118.7c0,0,0.1-0.1,0.1-0.1C52.7,118.6,52.6,118.6,52.6,118.7z"/>
<path class="st0" d="M54.1,118.3C54.1,118.3,54.1,118.4,54.1,118.3C54.1,118.4,54.1,118.3,54.1,118.3z"/>
<path class="st0" d="M50,120.9c0,0,0,0.1,0.1,0.1C50,121,50,120.9,50,120.9z"/>
<path class="st0" d="M47.9,120.6c0-0.1,0.1-0.1,0.1-0.1C48,120.5,47.9,120.6,47.9,120.6z"/>
<path class="st0" d="M47.2,121.4c0.1-0.2,0.3-0.4,0.4-0.5C47.5,121,47.4,121.2,47.2,121.4z"/>
<path class="st0" d="M52.4,119C52.4,119,52.4,119,52.4,119C52.4,119,52.4,119,52.4,119z"/>
<path class="st0" d="M46.3,122.3c0.1-0.1,0.2-0.2,0.4-0.3C46.5,122.1,46.4,122.2,46.3,122.3z"/>
<path class="st0" d="M49.8,119.8c0,0.1,0.1,0.2,0.1,0.4C49.9,120,49.9,119.9,49.8,119.8z"/>
<path class="st0" d="M46,122.5c0.1,0,0.1-0.1,0.2-0.1C46.1,122.4,46.1,122.4,46,122.5z"/>
<path class="st0" d="M56.5,119.6c0-0.1,0.1-0.1,0.1-0.2C56.6,119.5,56.6,119.6,56.5,119.6z"/>
<path class="st0" d="M49.9,120.2c0,0.1,0,0.3,0,0.4C49.9,120.5,49.9,120.3,49.9,120.2z"/>
<path class="st0" d="M50.2,121.2c0.1,0,0.1,0.1,0.2,0.1C50.3,121.2,50.3,121.2,50.2,121.2z"/>
<path class="st0" d="M49.9,120.7c0,0.1,0,0.1,0,0.2C49.9,120.8,49.9,120.7,49.9,120.7z"/>
<path class="st0" d="M57.1,119.1c0,0,0.1,0,0.2,0C57.1,119.1,57.1,119.1,57.1,119.1z"/>
<path class="st0" d="M296.7,8.6c0.1,0.3,0.1,0.6,0.1,0.9C296.8,9.2,296.7,8.9,296.7,8.6z"/>
<path class="st0" d="M284.8,10.2c0,0,0-0.1,0-0.1C284.8,10.1,284.8,10.2,284.8,10.2z"/>
<path class="st0" d="M296.1,7c0.1,0.2,0.2,0.4,0.3,0.6C296.3,7.4,296.2,7.2,296.1,7z"/>
<path class="st0" d="M285,9.8c0,0,0.1-0.1,0.1-0.1C285,9.7,285,9.7,285,9.8z"/>
<path class="st0" d="M296.5,7.7c0.1,0.2,0.1,0.5,0.2,0.7C296.6,8.2,296.5,8,296.5,7.7z"/>
<path class="st0" d="M295.6,6.3c0.1,0.2,0.3,0.3,0.4,0.5C295.9,6.6,295.8,6.4,295.6,6.3z"/>
<path class="st0" d="M270.3,15.8c0,0,0-0.1,0.1-0.1C270.3,15.7,270.3,15.8,270.3,15.8z"/>
<path class="st0" d="M270.2,16.1c0-0.1,0-0.1,0-0.2C270.2,16,270.2,16,270.2,16.1z"/>
<path class="st0" d="M270.4,16.4c-0.1-0.1-0.1-0.2-0.2-0.2C270.3,16.2,270.3,16.3,270.4,16.4z"/>
<path class="st0" d="M56.7,119.4c0-0.1,0.1-0.1,0.1-0.2C56.7,119.3,56.7,119.3,56.7,119.4z"/>
<path class="st0" d="M285.2,9.3c0,0,0.1-0.1,0.1-0.1C285.3,9.2,285.3,9.3,285.2,9.3z"/>
<path class="st0" d="M263.8,20.1c-0.1,0.1-0.2,0.2-0.3,0.3C263.6,20.3,263.7,20.2,263.8,20.1z"/>
<path class="st0" d="M57.3,119c0.1,0,0.1,0,0.2,0C57.4,119.1,57.3,119,57.3,119z"/>
<path class="st0" d="M57.6,119.1c0,0,0.1,0,0.1,0C57.7,119.1,57.6,119.1,57.6,119.1z"/>
<path class="st0" d="M56.8,119.2c0,0,0.1-0.1,0.1-0.1C56.9,119.1,56.9,119.2,56.8,119.2z"/>
<path class="st0" d="M294.3,5.3c0.2,0.1,0.3,0.2,0.5,0.3C294.6,5.5,294.4,5.4,294.3,5.3z"/>
<path class="st0" d="M293.3,5c0.2,0,0.3,0.1,0.4,0.1C293.6,5.1,293.5,5,293.3,5z"/>
<path class="st0" d="M295,5.7c0.1,0.1,0.3,0.2,0.4,0.4C295.3,6,295.2,5.8,295,5.7z"/>
<path class="st0" d="M59.1,119.3C59.1,119.3,59.1,119.3,59.1,119.3C59.1,119.3,59.1,119.3,59.1,119.3z"/>
<path class="st0" d="M58.7,119.4C58.8,119.4,58.8,119.4,58.7,119.4C58.8,119.4,58.8,119.4,58.7,119.4z"/>
<path class="st0" d="M53.9,119C53.9,119,53.9,119,53.9,119C53.9,119,53.9,119,53.9,119z"/>
<path class="st0" d="M76.5,119.2c-0.1,0.2-0.2,0.4-0.3,0.5C76.4,119.6,76.4,119.4,76.5,119.2z"/>
<path class="st0" d="M156.6,95.9c0.2-0.5,0.4-1,0.6-1.5C157,94.9,156.8,95.4,156.6,95.9z"/>
<path class="st0" d="M115.3,99.1c0,0.1-0.1,0.2-0.1,0.3C115.2,99.3,115.2,99.2,115.3,99.1z"/>
<path class="st0" d="M114.1,100c0.1-0.1,0.1-0.2,0.2-0.3C114.3,99.8,114.2,99.9,114.1,100z"/>
<path class="st0" d="M115.4,98.4c0,0.2-0.1,0.4-0.1,0.5C115.4,98.7,115.4,98.6,115.4,98.4z"/>
<path class="st0" d="M114.9,98.9c0.2-0.2,0.3-0.4,0.5-0.5C115.2,98.6,115.1,98.7,114.9,98.9z"/>
<path class="st0" d="M114.5,99.4c0.1-0.1,0.2-0.2,0.3-0.4C114.7,99.2,114.6,99.3,114.5,99.4z"/>
<path class="st0" d="M113.8,100.6c0.1-0.1,0.1-0.2,0.2-0.3C113.9,100.3,113.8,100.4,113.8,100.6z"/>
<path class="st0" d="M110.1,101.5C110.1,101.4,110.1,101.4,110.1,101.5c0.5-0.8,0.9-1.5,1.4-2.2C111,100,110.5,100.7,110.1,101.5z"
	/>
<path class="st0" d="M111.3,101.1c-0.3,0.5-0.6,1-0.9,1.5c0.7-1.1,1.4-2.3,2.1-3.4C112.1,99.9,111.7,100.5,111.3,101.1z"/>
<path class="st0" d="M119.7,96.1c0.7-1,1.5-2,2.2-3C121.2,94.1,120.4,95.1,119.7,96.1z"/>
<path class="st0" d="M118.5,97.8c0.3-0.4,0.6-0.8,0.8-1.2C119.1,96.9,118.8,97.4,118.5,97.8z"/>
<path class="st0" d="M106.8,102c0,0.1,0,0.2,0,0.3C106.8,102.2,106.8,102.1,106.8,102z"/>
<path class="st0" d="M117.4,99.5c0.2-0.4,0.5-0.8,0.7-1.2C117.9,98.7,117.7,99.1,117.4,99.5z"/>
<path class="st0" d="M122.1,100.2c0.2-0.2,0.4-0.5,0.5-0.7c0.1-0.2,0.3-0.4,0.4-0.6C122.7,99.3,122.4,99.8,122.1,100.2z"/>
<path class="st0" d="M123.9,97.7c0.2-0.2,0.3-0.5,0.5-0.7C124.2,97.2,124,97.4,123.9,97.7z"/>
<path class="st0" d="M125.1,96c0.1-0.2,0.3-0.3,0.4-0.5C125.3,95.7,125.2,95.8,125.1,96z"/>
<path class="st0" d="M122.4,95c-0.2,0.4-0.4,0.8-0.7,1.2C121.9,95.8,122.2,95.4,122.4,95z"/>
<path class="st0" d="M121.3,96.9c-0.1,0.2-0.2,0.3-0.3,0.5C121.1,97.2,121.2,97,121.3,96.9z"/>
<path class="st0" d="M126.3,97.8c-0.1,0.3-0.2,0.5-0.3,0.8C126.1,98.3,126.2,98,126.3,97.8z"/>
<path class="st0" d="M120,99.7c-0.1,0.1-0.1,0.3-0.1,0.4c0.1-0.3,0.2-0.5,0.3-0.8C120.1,99.5,120,99.6,120,99.7z"/>
<path class="st0" d="M120.7,98.1c-0.1,0.2-0.2,0.3-0.2,0.5C120.5,98.4,120.6,98.3,120.7,98.1z"/>
<path class="st0" d="M74.5,120.2c-0.1-0.1-0.1-0.2-0.1-0.3C74.4,120,74.4,120.1,74.5,120.2z"/>
<path class="st0" d="M136.5,97.9c0.1-0.3,0.2-0.7,0.3-1C136.7,97.2,136.6,97.6,136.5,97.9z"/>
<path class="st0" d="M125.9,99.3c0,0.1,0,0.2,0,0.3c0-0.2,0.1-0.4,0.1-0.7C125.9,99,125.9,99.2,125.9,99.3z"/>
<path class="st0" d="M136.9,96.8c0.1-0.4,0.2-0.7,0.3-1.1C137.1,96,137,96.4,136.9,96.8z"/>
<path class="st0" d="M135.9,99.2c0.2-0.3,0.3-0.7,0.4-1.1C136.2,98.5,136.1,98.8,135.9,99.2z"/>
<path class="st0" d="M128.2,99.4c0.1-0.1,0.2-0.2,0.2-0.2c0,0,0.1-0.1,0.1-0.1C128.4,99.2,128.3,99.3,128.2,99.4z"/>
<path class="st0" d="M137.2,95.3c0.1-0.4,0.1-0.8,0.1-1.3C137.3,94.5,137.2,94.9,137.2,95.3z"/>
<path class="st0" d="M72.5,119.8C72.5,119.8,72.5,119.8,72.5,119.8C72.5,119.8,72.5,119.8,72.5,119.8z"/>
<path class="st0" d="M74.4,119.6c0,0,0-0.1,0.1-0.1C74.5,119.5,74.5,119.6,74.4,119.6z"/>
<path class="st0" d="M74.4,119.9c0-0.1,0-0.1,0-0.2C74.4,119.7,74.4,119.8,74.4,119.9z"/>
<path class="st0" d="M69.4,119.6C69.4,119.6,69.4,119.6,69.4,119.6C69.4,119.6,69.4,119.6,69.4,119.6z"/>
<path class="st0" d="M71.9,119.8C71.9,119.8,71.9,119.8,71.9,119.8C71.9,119.8,71.9,119.8,71.9,119.8z"/>
<path class="st0" d="M69.1,119.5C69.1,119.5,69.1,119.5,69.1,119.5C69.1,119.5,69.1,119.5,69.1,119.5
	C69,119.5,69.1,119.5,69.1,119.5z"/>
<path class="st0" d="M72.2,119.9C72.2,119.9,72.2,119.9,72.2,119.9C72.2,119.9,72.2,119.9,72.2,119.9z"/>
<path class="st0" d="M69,119.4c0-0.1-0.1-0.2-0.1-0.3C68.9,119.2,68.9,119.3,69,119.4z"/>
<path class="st0" d="M70.1,119.5C70.1,119.5,70.1,119.5,70.1,119.5C70.1,119.5,70.1,119.5,70.1,119.5
	C70.1,119.5,70.1,119.5,70.1,119.5z"/>
<path class="st0" d="M96.1,104.5c0.1-0.2,0.2-0.4,0.3-0.5C96.3,104.2,96.2,104.4,96.1,104.5z"/>
<path class="st0" d="M95.1,106.2c0.1-0.2,0.2-0.4,0.3-0.5C95.3,105.8,95.2,106,95.1,106.2z"/>
<path class="st0" d="M94.6,107.9c0,0,0,0.1-0.1,0.1c0-0.1,0.1-0.1,0.1-0.2C94.7,107.8,94.7,107.8,94.6,107.9z"/>
<path class="st0" d="M93.4,109c0.1-0.2,0.2-0.4,0.4-0.6c0.1-0.2,0.2-0.4,0.3-0.6C93.9,108.2,93.6,108.6,93.4,109z"/>
<path class="st0" d="M89.8,110.7c-0.3,0-0.6,0.2-0.8,0.4C89.2,110.9,89.5,110.7,89.8,110.7z"/>
<path class="st0" d="M90.1,110.8c-0.1,0-0.1,0-0.2-0.1C90,110.7,90.1,110.7,90.1,110.8z"/>
<path class="st0" d="M89.8,110.7c0.1,0,0.1,0,0.2,0C89.9,110.7,89.8,110.7,89.8,110.7z"/>
<path class="st0" d="M101.5,104.3C101.5,104.3,101.5,104.3,101.5,104.3c0,0,0-0.1,0-0.2C101.5,104.1,101.5,104.2,101.5,104.3z"/>
<path class="st0" d="M101.3,103.1c0-0.1,0-0.3,0-0.4C101.3,102.8,101.3,103,101.3,103.1z"/>
<path class="st0" d="M105.5,102.8C105.5,102.8,105.5,102.8,105.5,102.8C105.5,102.8,105.5,102.8,105.5,102.8z"/>
<path class="st0" d="M101.6,101.7c-0.1,0.2-0.2,0.5-0.2,0.7C101.4,102.2,101.5,102,101.6,101.7z"/>
<path class="st0" d="M101.3,103.4c0,0.1,0,0.2,0,0.3C101.4,103.6,101.4,103.5,101.3,103.4z"/>
<path class="st0" d="M96.8,107.2c0.2-0.3,0.4-0.7,0.6-1c0.4-0.6,0.8-1.2,1.3-1.8C98,105.3,97.4,106.2,96.8,107.2z"/>
<path class="st0" d="M73.6,118.5c0,0.1-0.1,0.2-0.1,0.3C73.5,118.7,73.6,118.6,73.6,118.5z"/>
<path class="st0" d="M106.8,101.5c0,0.1,0,0.3,0,0.4C106.8,101.8,106.8,101.7,106.8,101.5z"/>
<path class="st0" d="M73.8,117.7c0,0.2,0,0.4-0.1,0.6C73.8,118.1,73.8,117.9,73.8,117.7z"/>
<path class="st0" d="M71.6,119.5L71.6,119.5C71.5,119.5,71.5,119.5,71.6,119.5C71.5,119.5,71.5,119.5,71.6,119.5z"/>
<path class="st0" d="M70.4,119.3C70.4,119.3,70.4,119.3,70.4,119.3C70.4,119.3,70.4,119.3,70.4,119.3z"/>
<path class="st0" d="M70.6,119C70.6,119,70.6,119,70.6,119C70.6,119,70.6,119,70.6,119z"/>
<path class="st0" d="M90.3,110.9c-0.1,0-0.1-0.1-0.2-0.1C90.2,110.8,90.3,110.8,90.3,110.9z"/>
<path class="st0" d="M70.8,118.6C70.8,118.6,70.8,118.6,70.8,118.6C70.8,118.6,70.8,118.6,70.8,118.6z"/>
<path class="st0" d="M74.6,119.4C74.6,119.4,74.6,119.4,74.6,119.4c0,0,0.1-0.1,0.1-0.1C74.7,119.3,74.7,119.3,74.6,119.4z"/>
<path class="st0" d="M76.6,119.1C76.6,119.1,76.6,119.1,76.6,119.1c0-0.1,0.1-0.2,0.1-0.3C76.7,118.9,76.6,119,76.6,119.1z"/>
<path class="st0" d="M77,117.6c-0.1,0.3-0.1,0.5-0.2,0.8C76.9,118.2,77,117.9,77,117.6z"/>
<path class="st0" d="M73.4,118.9c-0.1,0.1-0.1,0.2-0.2,0.2C73.3,119.1,73.3,119,73.4,118.9z"/>
<path class="st0" d="M72.8,119.6C72.9,119.5,72.9,119.5,72.8,119.6c0.1-0.1,0.1-0.1,0.2-0.2C72.9,119.5,72.9,119.5,72.8,119.6z"/>
<path class="st0" d="M278.7,11.1C278.6,11.1,278.6,11.1,278.7,11.1C278.6,11.1,278.6,11.1,278.7,11.1z"/>
<path class="st0" d="M197.1,64.5c0,0.1,0,0.2,0,0.3C197.1,64.7,197.1,64.6,197.1,64.5z"/>
<path class="st0" d="M196.4,68.3c0.1-0.2,0.2-0.3,0.3-0.5c0,0,0,0,0,0C196.7,67.9,196.6,68.1,196.4,68.3z"/>
<path class="st0" d="M197.1,66.7c0,0.1,0,0.2-0.1,0.3C197.1,66.9,197.1,66.8,197.1,66.7z"/>
<path class="st0" d="M197.2,65.6c0,0.1,0,0.2,0,0.3C197.2,65.8,197.2,65.7,197.2,65.6z"/>
<path class="st0" d="M197.1,65.1c0,0.1,0,0.2,0,0.3C197.2,65.3,197.2,65.2,197.1,65.1z"/>
<path class="st0" d="M197.2,66.2c0,0.1,0,0.2,0,0.3C197.2,66.3,197.2,66.2,197.2,66.2z"/>
<path class="st0" d="M209.9,59.4c-0.1,0.2-0.3,0.4-0.4,0.6c0.3-0.3,0.5-0.7,0.8-1C210.2,59,210.1,59.2,209.9,59.4z"/>
<path class="st0" d="M197,67.2c0,0.1-0.1,0.2-0.1,0.3C196.9,67.4,197,67.3,197,67.2z"/>
<path class="st0" d="M217.2,51.8c0.3-0.2,0.6-0.5,0.9-0.7C217.8,51.3,217.5,51.5,217.2,51.8z"/>
<path class="st0" d="M219,50.5c0.4-0.3,0.8-0.5,1.2-0.7C219.7,50,219.3,50.2,219,50.5z"/>
<path class="st0" d="M211.1,57.8c0.2-0.2,0.4-0.5,0.6-0.7C211.5,57.4,211.3,57.6,211.1,57.8z"/>
<path class="st0" d="M215.6,53.1c0.3-0.2,0.5-0.5,0.8-0.7C216.1,52.7,215.8,52.9,215.6,53.1z"/>
<path class="st0" d="M212.5,56.2c0.2-0.2,0.4-0.5,0.6-0.7C212.9,55.7,212.7,56,212.5,56.2z"/>
<path class="st0" d="M214,54.6c0.2-0.2,0.5-0.5,0.7-0.7C214.5,54.2,214.2,54.4,214,54.6z"/>
<path class="st0" d="M177.3,78.9C177.3,78.9,177.3,78.9,177.3,78.9c-0.1,0.2-0.2,0.4-0.3,0.7C177.1,79.3,177.2,79.1,177.3,78.9z"/>
<path class="st0" d="M179.7,76.3c0.2-0.4,0.4-0.7,0.6-1C180.1,75.6,179.9,75.9,179.7,76.3z"/>
<path class="st0" d="M147.1,94.7c-0.2,0.5-0.4,0.9-0.7,1.4C146.7,95.7,146.9,95.2,147.1,94.7z"/>
<path class="st0" d="M179.5,76.7c-0.2,0.4-0.4,0.9-0.6,1.3c0,0,0,0,0,0.1C179,77.6,179.3,77.1,179.5,76.7z"/>
<path class="st0" d="M177.6,78.4c0,0,0,0.1-0.1,0.1C177.5,78.5,177.5,78.4,177.6,78.4z"/>
<path class="st0" d="M177.1,77.7c0-0.1,0.1-0.1,0.1-0.2C177.2,77.6,177.2,77.6,177.1,77.7z"/>
<path class="st0" d="M177.8,77.4c0,0,0,0.1,0,0.1C177.8,77.5,177.8,77.4,177.8,77.4z"/>
<path class="st0" d="M177.7,77.9C177.7,77.9,177.7,77.9,177.7,77.9C177.7,77.9,177.7,77.9,177.7,77.9z"/>
<path class="st0" d="M175.4,80.8c-0.2,0.3-0.4,0.6-0.6,1C175,81.5,175.2,81.1,175.4,80.8z"/>
<path class="st0" d="M174.8,80.4c0-0.3,0-0.5,0-0.8C174.8,79.9,174.8,80.1,174.8,80.4z"/>
<path class="st0" d="M174.8,80.8c0,0.3,0,0.6,0,0.9C174.8,81.4,174.8,81.1,174.8,80.8z"/>
<path class="st0" d="M191.1,71c0,0,0.1,0,0.1,0C191.2,71.1,191.1,71,191.1,71C191.1,71,191.1,71,191.1,71z"/>
<path class="st0" d="M176.7,78.4c0-0.1,0.1-0.2,0.1-0.2C176.8,78.2,176.7,78.3,176.7,78.4z"/>
<path class="st0" d="M190.9,70.9C190.9,70.9,190.8,70.9,190.9,70.9C190.8,70.9,190.9,70.9,190.9,70.9z"/>
<path class="st0" d="M220.8,49.3c0.6-0.4,1.3-0.7,2-1C222.1,48.6,221.4,48.9,220.8,49.3z"/>
<path class="st0" d="M176,79.7C176,79.7,176,79.7,176,79.7c-0.2,0.3-0.3,0.6-0.5,0.9C175.7,80.3,175.8,80,176,79.7z"/>
<path class="st0" d="M223.8,47.9c0.2,0,0.4,0,0.6,0C224.3,47.9,224.1,47.9,223.8,47.9z"/>
<path class="st0" d="M243.9,31.7c-0.1,0-0.1,0.1-0.2,0.1c-0.2,0.1-0.4,0.2-0.5,0.3C243.4,32,243.7,31.8,243.9,31.7z"/>
<path class="st0" d="M266.3,17.4C266.3,17.4,266.3,17.4,266.3,17.4C266.3,17.4,266.3,17.4,266.3,17.4z"/>
<path class="st0" d="M241.6,33.2c0.1-0.1,0.3-0.2,0.4-0.3C241.9,33,241.8,33.1,241.6,33.2z"/>
<path class="st0" d="M236.2,37.2c-0.6,0.4-1.1,0.9-1.7,1.3c0.8-0.7,1.7-1.3,2.6-2C236.8,36.7,236.5,36.9,236.2,37.2z"/>
<path class="st0" d="M240.3,34.1C240.3,34.1,240.3,34.1,240.3,34.1C240.3,34.1,240.3,34.1,240.3,34.1z"/>
<path class="st0" d="M233.4,39.4C233.4,39.3,233.4,39.3,233.4,39.4c-0.1-0.1-0.1-0.1-0.1-0.1C233.4,39.3,233.4,39.3,233.4,39.4z"/>
<path class="st0" d="M270.4,15.5C270.4,15.5,270.4,15.6,270.4,15.5c0,0,0-0.1,0.1-0.1C270.5,15.4,270.4,15.5,270.4,15.5z"/>
<path class="st0" d="M278.3,11.6C278.3,11.6,278.2,11.6,278.3,11.6C278.2,11.6,278.3,11.6,278.3,11.6z"/>
<path class="st0" d="M277.5,12L277.5,12c-0.1,0-0.2,0-0.2,0.1C277.3,12.1,277.4,12,277.5,12z"/>
<path class="st0" d="M285.6,8.8C285.6,8.8,285.6,8.8,285.6,8.8c0,0,0.1-0.1,0.1-0.1C285.7,8.7,285.6,8.8,285.6,8.8z"/>
<polygon class="st0" points="278,11.8 278,11.8 278,11.8 "/>
<path class="st0" d="M278.5,11.3C278.5,11.4,278.4,11.4,278.5,11.3C278.4,11.4,278.5,11.4,278.5,11.3z"/>
<path class="st0" d="M262.4,19.9C262.4,20,262.4,20,262.4,19.9c0-0.1-0.1-0.3-0.1-0.4C262.3,19.7,262.3,19.8,262.4,19.9z"/>
<path class="st0" d="M232,41.1c-0.1,0.1-0.2,0.2-0.3,0.3C231.8,41.3,231.9,41.2,232,41.1z"/>
<path class="st0" d="M227.1,46.1c0,0-0.1,0.1-0.1,0.1C227,46.2,227.1,46.2,227.1,46.1z"/>
<path class="st0" d="M232.3,40.8c-0.1,0.1-0.1,0.2-0.2,0.3C232.2,41,232.3,40.9,232.3,40.8z"/>
<path class="st0" d="M232.4,40c0-0.1,0-0.1-0.1-0.2C232.3,39.9,232.3,39.9,232.4,40z"/>
<path class="st0" d="M226.8,46.5c0,0-0.1,0.1-0.1,0.1C226.7,46.6,226.7,46.5,226.8,46.5z"/>
<path class="st0" d="M232.4,40.1c0,0.1,0,0.2,0,0.3C232.5,40.3,232.5,40.2,232.4,40.1z"/>
<path class="st0" d="M232.4,40.5c0,0.1-0.1,0.2-0.1,0.3C232.4,40.7,232.4,40.6,232.4,40.5z"/>
<path class="st0" d="M225.6,47.5c-0.1,0-0.1,0.1-0.2,0.1C225.5,47.5,225.5,47.5,225.6,47.5z"/>
<path class="st0" d="M215,55.7c0.5-0.5,1-0.9,1.5-1.4C216,54.8,215.5,55.2,215,55.7z"/>
<path class="st0" d="M216.6,54.2c0.5-0.5,1-0.9,1.5-1.3C217.6,53.3,217.1,53.7,216.6,54.2z"/>
<path class="st0" d="M225.1,47.7c-0.1,0-0.1,0-0.2,0.1C225,47.7,225.1,47.7,225.1,47.7z"/>
<path class="st0" d="M226,47.2c-0.1,0-0.1,0.1-0.2,0.1C225.9,47.3,226,47.2,226,47.2z"/>
<path class="st0" d="M218.2,52.8c1.1-0.9,2.2-1.7,3.4-2.4C220.4,51.1,219.3,51.9,218.2,52.8z"/>
<path class="st0" d="M226.4,46.8c-0.1,0-0.1,0.1-0.2,0.1C226.3,46.9,226.4,46.9,226.4,46.8z"/>
<path class="st0" d="M180.5,74.8c0.3-0.5,0.6-0.9,0.9-1.3C181.1,73.9,180.8,74.4,180.5,74.8z"/>
<path class="st0" d="M45.6,122.6c0,0-0.1,0-0.1,0C45.5,122.6,45.5,122.6,45.6,122.6z"/>
<path class="st0" d="M44.8,122.2c0,0-0.1-0.1-0.1-0.1C44.7,122.1,44.7,122.2,44.8,122.2z"/>
<path class="st0" d="M148.8,97c0-0.2,0.1-0.4,0.1-0.6C148.9,96.6,148.8,96.8,148.8,97z"/>
<path class="st0" d="M44.5,121.9c-0.1-0.1-0.1-0.2-0.2-0.3C44.4,121.7,44.4,121.8,44.5,121.9C44.5,121.9,44.5,121.9,44.5,121.9z"/>
<path class="st0" d="M58.5,119.5C58.5,119.5,58.4,119.4,58.5,119.5C58.4,119.4,58.5,119.5,58.5,119.5z"/>
<path class="st0" d="M50.2,121.1C50.1,121.1,50.1,121.1,50.2,121.1C50.1,121.1,50.1,121.1,50.2,121.1z"/>
<path class="st0" d="M148.4,98.6c0-0.2,0.1-0.4,0.1-0.6C148.5,98.1,148.5,98.4,148.4,98.6z"/>
<path class="st0" d="M42.2,122.6c0,0.1,0,0.2,0.1,0.3c0,0,0,0,0,0C42.3,122.8,42.3,122.7,42.2,122.6z"/>
<path class="st0" d="M53.6,119.7c0-0.1,0-0.2,0.1-0.2c0,0,0,0,0,0C53.7,119.5,53.6,119.6,53.6,119.7z"/>
<path class="st0" d="M153,97.8c0.1-0.2,0.2-0.5,0.4-0.7C153.2,97.3,153.1,97.5,153,97.8z"/>
<path class="st0" d="M154,95.6c0.1-0.2,0.2-0.5,0.3-0.7C154.2,95.1,154.1,95.4,154,95.6z"/>
<path class="st0" d="M149.2,95.4c0-0.2,0.1-0.3,0.1-0.5C149.3,95.1,149.3,95.3,149.2,95.4z"/>
<path class="st0" d="M149.7,98.5c-0.1,0.3-0.1,0.5-0.2,0.8C149.6,99,149.6,98.7,149.7,98.5z"/>
<path class="st0" d="M52,119.6c0,0.1-0.1,0.1-0.1,0.2c0,0,0,0,0,0C51.9,119.7,52,119.6,52,119.6z"/>
<path class="st0" d="M42.3,123c0,0,0,0.1,0,0.1C42.3,123.1,42.3,123.1,42.3,123z"/>
<path class="st0" d="M138.8,100.9c0-0.2,0.1-0.3,0.2-0.5C138.9,100.5,138.9,100.7,138.8,100.9z"/>
<path class="st0" d="M138.7,101.6c0-0.2,0-0.4,0-0.6C138.8,101.2,138.7,101.4,138.7,101.6z"/>
<path class="st0" d="M139,100.3c0.1-0.1,0.1-0.3,0.2-0.4C139.1,100,139.1,100.1,139,100.3z"/>
<path class="st0" d="M145.2,98c-0.2,0.3-0.5,0.7-0.7,1C144.7,98.7,145,98.4,145.2,98z"/>
<path class="st0" d="M146.1,96.6c-0.2,0.3-0.4,0.6-0.6,0.9C145.8,97.2,145.9,96.9,146.1,96.6z"/>
<path class="st0" d="M145.1,94.8c-1.3,1.5-2.6,3-3.9,4.6c-0.3,0.4-0.7,0.8-1,1.2C141.7,98.7,143.4,96.7,145.1,94.8z"/>
<path class="st0" d="M139.5,99.3C139.5,99.3,139.5,99.3,139.5,99.3C139.5,99.3,139.5,99.3,139.5,99.3
	C139.5,99.3,139.5,99.3,139.5,99.3z"/>
<path class="st0" d="M144,98.1C144,98.1,144,98.1,144,98.1C144,98.1,144,98.1,144,98.1z"/>
<path class="st0" d="M143.8,98.7C143.8,98.8,143.8,98.8,143.8,98.7C143.8,98.8,143.8,98.8,143.8,98.7z"/>
<path class="st0" d="M143.6,99.5c0,0.1,0,0.1,0,0.2C143.6,99.6,143.6,99.5,143.6,99.5C143.6,99.5,143.6,99.5,143.6,99.5z"/>
<path class="st0" d="M42.2,123.4C42.2,123.4,42.2,123.5,42.2,123.4C42.2,123.5,42.2,123.4,42.2,123.4z"/>
<path class="st0" d="M144.6,96.9c-0.1,0.2-0.2,0.4-0.2,0.6C144.5,97.3,144.5,97.1,144.6,96.9z"/>
<path class="st0" d="M144.3,97.7c0,0.1-0.1,0.1-0.1,0.2C144.2,97.8,144.2,97.7,144.3,97.7z"/>
<path class="st0" d="M148.2,99.8c0,0.1,0,0.2,0,0.2c0-0.2,0.1-0.4,0.1-0.5C148.3,99.6,148.2,99.7,148.2,99.8z"/>
<path class="st0" d="M160,89.9c-0.5,1.5-1.1,2.9-1.6,4.4C158.9,92.9,159.5,91.4,160,89.9z"/>
<path class="st0" d="M156.5,96.2c-0.4,1-0.8,1.9-1.2,2.8C155.7,98.1,156.1,97.2,156.5,96.2z"/>
<path class="st0" d="M285.9,8.5c0.1-0.1,0.1-0.1,0.2-0.2C286,8.4,285.9,8.4,285.9,8.5z"/>
<path class="st0" d="M286.2,8.2c0.1-0.1,0.1-0.1,0.2-0.1C286.3,8.1,286.3,8.1,286.2,8.2z"/>
<path class="st0" d="M156.9,99.5c0.2-0.9,0.5-1.7,0.7-2.6C157.4,97.8,157.1,98.7,156.9,99.5z"/>
<path class="st0" d="M153.1,101.3c0.4-1.1,0.9-2.2,1.3-3.3C154,99.2,153.6,100.2,153.1,101.3z"/>
<path class="st0" d="M157.7,96.9c0.3-0.8,0.5-1.7,0.8-2.5C158.2,95.2,157.9,96,157.7,96.9z"/>
<path class="st0" d="M286.5,7.9c0.1-0.1,0.2-0.1,0.3-0.1C286.8,7.8,286.7,7.9,286.5,7.9z"/>
<path class="st0" d="M174.8,78.3c0,0.3,0,0.6,0,0.9C174.8,79,174.8,78.6,174.8,78.3z"/>
<path class="st0" d="M172,81.7c0.2-0.5,0.4-1,0.6-1.5C172.3,80.7,172.1,81.2,172,81.7z"/>
<path class="st0" d="M171.6,82.6c0,0.1-0.1,0.2-0.1,0.4c0.1-0.3,0.2-0.5,0.2-0.8C171.7,82.4,171.7,82.5,171.6,82.6z"/>
<path class="st0" d="M152,99.6c-0.1,0.2-0.2,0.4-0.4,0.6C151.7,100,151.9,99.8,152,99.6z"/>
<path class="st0" d="M286.9,7.8c0.1,0,0.2,0,0.3,0C287.1,7.8,287,7.8,286.9,7.8z"/>
<path class="st0" d="M59.4,119C59.4,119,59.4,119,59.4,119C59.4,119,59.4,119,59.4,119C59.4,119,59.4,119,59.4,119z"/>
<path class="st0" d="M149.1,101.4c0.1-0.5,0.2-1,0.3-1.4C149.2,100.4,149.1,100.9,149.1,101.4z"/>
<path class="st0" d="M148.8,103.8c0-0.7,0.1-1.3,0.2-1.9C148.9,102.5,148.8,103.1,148.8,103.8z"/>
<path class="st0" d="M162.8,90.1c0.2-0.7,0.4-1.3,0.6-2C163.3,88.8,163.1,89.4,162.8,90.1z"/>
<path class="st0" d="M76.2,119.8c-0.1,0.2-0.3,0.3-0.5,0.5C75.9,120.1,76,120,76.2,119.8z"/>
<path class="st0" d="M287.2,7.8c0.1,0,0.1,0,0.1,0.1C287.3,7.8,287.3,7.8,287.2,7.8z"/>
<path class="st0" d="M157.3,94c0.2-0.6,0.4-1.3,0.6-1.9C157.7,92.7,157.5,93.4,157.3,94z"/>
<path class="st0" d="M157.5,91c-0.5,1-0.9,2-1.4,3C156.6,93,157,92,157.5,91z"/>
<path class="st0" d="M155.7,94.9c-0.3,0.7-0.6,1.5-0.9,2.2C155.1,96.4,155.4,95.7,155.7,94.9z"/>
<path class="st0" d="M176.3,79.1c0-0.1,0.1-0.2,0.1-0.2C176.4,78.9,176.3,79,176.3,79.1z"/>
<path class="st0" d="M287.7,8.3c0-0.1,0-0.1-0.1-0.2c0,0,0,0,0,0C287.6,8.2,287.7,8.2,287.7,8.3z"/>
<path class="st0" d="M158.9,99.6c-0.4,0.9-0.8,1.7-1.2,2.6C158.1,101.3,158.5,100.5,158.9,99.6z"/>
<path class="st0" d="M287.5,7.9C287.5,7.9,287.5,8,287.5,7.9C287.5,8,287.5,7.9,287.5,7.9z"/>
<path class="st0" d="M160.3,96.5c-0.4,0.9-0.8,1.8-1.2,2.7C159.5,98.3,159.9,97.4,160.3,96.5z"/>
<path class="st0" d="M162.8,90.3c-0.3,1-0.7,1.9-1,2.8C162.1,92.2,162.5,91.2,162.8,90.3z"/>
<path class="st0" d="M161.7,93.3c-0.4,0.9-0.8,1.9-1.2,2.8C160.9,95.2,161.3,94.2,161.7,93.3z"/>
<path class="st1" d="M280.1,30.3c0.1-0.2,0-0.6-0.3-0.6h-3.3c0,0-0.1,0-0.1,0c0,0-0.1,0-0.1,0.1c0,0,0,0,0,0c0,0,0,0,0,0
	c0,0,0,0,0,0c0,0,0,0,0,0c0,0,0,0,0,0c0,0,0,0,0,0c0,0,0,0,0,0c0,0,0,0,0,0c0,0,0,0,0,0c0,0,0,0,0,0c0,0,0,0,0,0.1
	c-0.2,0-0.4,0.2-0.4,0.5c0,0.1,0,0.2,0.1,0.3c0,0,0,0.1,0,0.1c0,0.1,0,0.1,0,0.2c0,0.1,0,0.1,0,0.2c0,0,0,0.1,0,0.1
	c0,0.1,0,0.1,0,0.2c0,0,0,0.1,0,0.1c0,0.1,0,0.2,0,0.3c0,0,0,0,0,0c0,0.1,0,0.2,0,0.3c0,0.2,0,0.4,0,0.5c0,0,0,0,0,0
	c0,0.8,0.1,1.5,0.4,2.3c0.1,0.3,0.5,0.4,0.7,0.1C278.2,33.8,279.2,32.1,280.1,30.3C280.1,30.4,280.1,30.3,280.1,30.3z"/>
<path class="st1" d="M276.4,84.5c0.4,0,0.6-0.2,0.6-0.6c0-1,0.3-1.9-0.3-3.2c-0.6,1.6-1.9,2.3-2.3,3.7
	C275.3,84.6,275.8,84.6,276.4,84.5z"/>
<path class="st1" d="M264,34.9c0-0.1-0.1-0.2-0.1-0.3c0,0,0,0,0,0c0,0,0,0-0.1,0c0,0,0,0,0,0c0,0,0,0-0.1,0c0,0,0,0,0,0
	c0,0,0,0-0.1,0c0,0,0,0,0,0c0,0-0.1,0-0.1,0c0,0,0,0,0,0c0,0-0.1,0-0.1,0c-0.1,0.1-0.2,0.2-0.4,0.2c0,0,0,0,0,0
	c-0.8,0.5-1.8,0.8-2.5,1.4c0,0-0.1,0.1-0.1,0.1c-0.2-0.1-0.6,0.1-0.5,0.5c0.2,1.1,0.4,2.2,0.6,3.4c0.1,0.3,0.1,0.7,0.2,1
	c0.1,0.5,0.2,0.9,0.3,1.4c0.1,0.3,0.2,0.7,0.3,1c0.1,0.4,0.6,0.4,0.7,0c0.3-1.1,0.7-2.2,1.1-3.3c0-0.1,0.1-0.2,0.1-0.3
	c0-0.1,0-0.2,0.1-0.2c0.1-0.2,0.1-0.4,0.2-0.5c0-0.1,0-0.1,0.1-0.2c0.1-0.2,0.1-0.4,0.1-0.6c0,0,0-0.1,0-0.1c0-0.2,0.1-0.3,0.1-0.5
	c0.1-0.4,0.1-0.7,0.2-1.1c0,0,0,0,0,0C264.1,36,264.1,35.4,264,34.9z"/>
<path class="st1" d="M264.6,84.3c1.6,0,3.3,0.4,5.1-0.1c-1-2.4-0.1-4.8-0.3-7.4c-2.5,1.9-3.4,4.6-5.3,6.7
	C263.6,84,264,84.3,264.6,84.3z"/>
<path class="st1" d="M272.1,30.4c-0.1,0-0.2,0-0.3,0c0,0-0.1,0-0.1,0c-0.1,0-0.2,0-0.3,0.1c0,0,0,0-0.1,0c-0.2,0.1-0.4,0.1-0.6,0.2
	h0c-0.5,0.2-1,0.3-1.5,0.5l0,0c-0.1,0-0.2,0.1-0.3,0.1c0,0,0,0-0.1,0c-0.1,0-0.1,0-0.2,0.1c0,0,0,0-0.1,0c-0.1,0-0.1,0-0.2,0.1
	c0,0-0.1,0-0.1,0c-0.1,0-0.2,0-0.3,0.1c-0.2-0.2-0.6-0.1-0.6,0.3c0,1.5,0.1,3,0.3,4.5c0,0.2,0.1,0.5,0.1,0.7c0,0.2,0.1,0.5,0.1,0.7
	c0.1,0.3,0.5,0.4,0.7,0.1c0.1-0.2,0.3-0.4,0.4-0.5c0-0.1,0.1-0.1,0.1-0.2c0.1-0.1,0.2-0.2,0.3-0.3c0.3-0.4,0.7-0.9,1-1.3
	c0.3-0.4,0.6-0.8,0.9-1.2c0.7-1.1,1.5-2.4,1.2-3.7C272.5,30.4,272.3,30.4,272.1,30.4z"/>
<path class="st1" d="M280.6,48.2c0-0.4-0.5-0.6-0.7-0.2c-0.1,0.3-0.3,0.5-0.4,0.8l0,0c-0.1,0.3-0.3,0.6-0.4,0.9
	c-0.1,0.1-0.1,0.3-0.2,0.4c0,0.1-0.1,0.1-0.1,0.2c-0.1,0.2-0.2,0.4-0.3,0.6c0,0.1-0.1,0.1-0.1,0.2c-0.1,0.2-0.2,0.4-0.3,0.6
	c-0.1,0.3,0,0.5,0.3,0.6c0,0,0,0,0.1,0c0,0,0.1,0,0.1,0c0.2,0,0.3-0.1,0.5-0.1c0.1,0,0.3-0.1,0.4-0.1c0,0,0,0,0,0
	c0.2-0.1,0.5-0.1,0.7-0.2c0,0,0,0,0,0c0.2,0,0.4-0.1,0.5-0.1c0.1,0,0.2-0.1,0.2-0.2c0,0,0,0,0,0c0,0,0,0,0,0c0,0,0,0,0,0
	c0,0,0,0,0,0c0,0,0,0,0,0c0,0,0,0,0-0.1C280.9,50.3,280.9,49.2,280.6,48.2C280.6,48.2,280.6,48.2,280.6,48.2z"/>
<path class="st1" d="M281.4,41.1c0,0,0-0.1,0-0.1c0,0,0,0,0,0c0,0,0-0.1,0-0.1c0,0,0,0,0,0c0,0,0,0-0.1-0.1c0,0,0,0,0,0
	c0,0-0.1,0-0.1,0c-0.2-0.1-0.5,0-0.5,0.3h0c0,0,0,0,0,0c0,0.1,0,0.2,0,0.3c-0.9,1.1-1.8,2.2-2.3,3.6c0,0,0,0.1,0,0.1c0,0,0,0,0,0
	c0,0,0,0,0,0.1c0,0,0,0,0,0c0.1,0.2,0.3,0.3,0.5,0.3c0.2,0,0.4-0.1,0.6-0.1c0.7-0.1,1.3-0.4,1.7-0.9c0,0,0-0.1,0.1-0.1
	c0,0,0-0.1,0.1-0.1c0.3-0.7,0.2-1.7,0.2-2.5c0,0,0,0,0,0C281.6,41.5,281.5,41.2,281.4,41.1z"/>
<path class="st1" d="M247.3,79.2c0.1,0,0.2-0.1,0.4-0.2c-0.3-1.5,0.1-3.1-0.5-4.6c-0.2-0.1-0.3-0.2-0.5-0.2
	c-0.2,0.3-0.3,0.6-0.5,0.8C244.1,77.8,243.3,77.9,247.3,79.2z"/>
<path class="st1" d="M281.7,35.3c0-0.1,0-0.1-0.1-0.2c0,0,0,0,0,0c0,0,0-0.1-0.1-0.1c0,0,0,0,0,0c0,0,0-0.1-0.1-0.1c0,0,0,0,0-0.1
	c0,0,0-0.1-0.1-0.1c0,0,0,0,0-0.1c0,0,0-0.1-0.1-0.1c0,0,0-0.1-0.1-0.1c0,0,0,0,0-0.1c0,0,0,0,0-0.1c0,0,0-0.1,0-0.1
	c-0.1-0.2-0.4-0.2-0.6-0.1c-0.1,0-0.2,0-0.3,0.2c0,0,0,0.1,0,0.1c0,0.2-0.1,0.3-0.1,0.5c-0.1,0.1-0.1,0.3-0.2,0.4c0,0.1,0,0.2,0,0.2
	c-0.1,0.2-0.1,0.4-0.2,0.6c0,0,0,0.1,0,0.1c-0.1,0.2-0.1,0.3-0.2,0.5c0,0,0,0,0,0c-0.1,0.2-0.2,0.4-0.3,0.6c0,0,0,0,0,0
	c-0.1,0.2-0.2,0.4-0.3,0.6l0,0c-0.2,0.3-0.3,0.6-0.5,1c-0.2,0.3,0.2,0.7,0.5,0.5c0.9-0.6,2.1-1.2,2.7-2.2c0.1-0.1,0.1-0.2,0.1-0.3
	c0-0.1,0-0.1,0.1-0.2l0,0C281.9,36.3,281.8,35.8,281.7,35.3C281.7,35.3,281.7,35.3,281.7,35.3z"/>
<path class="st1" d="M252.1,18.2c-1.6,0.1-1.8,0.3-1.4,2.1C251.2,19.7,251.6,19,252.1,18.2z"/>
<path class="st1" d="M255.2,82.1c1.2,0.4,2.4,0.7,3.6,1.1c0.2,0.1,0.6,0.1,0.7-0.2c0.1-0.1,0.1-0.3,0.1-0.5c0,0,0-0.1,0-0.1
	c-0.4-1.4-0.9-2.9-1.2-4.4c0-0.2,0-0.4-0.1-0.6c0-0.4,0-0.7,0-1.1c-0.1-0.1-0.2-0.1-0.3-0.2c0,0,0,0-0.1,0.1c-0.2-0.2-0.7,0-0.6,0.4
	c0,0.1,0,0.2,0,0.3c-1,1.3-2,2.7-2.6,4.2C254.4,81.8,254.7,82,255.2,82.1z"/>
<path class="st1" d="M256.4,47.8c0.3,0.2,0.6,0.1,0.7-0.3c0.2-1.7,0.2-3.5,0.3-5.2c0-0.1,0-0.3,0-0.4c0-0.2,0-0.4,0-0.5
	c0-0.2,0-0.4,0-0.6c0-0.1,0-0.3,0-0.4c0-0.3,0.1-0.7,0.1-1c0,0,0-0.1,0-0.1c0,0,0,0,0,0c0,0,0-0.1,0-0.1c0,0,0,0,0,0
	c0,0,0-0.1-0.1-0.1c0,0,0,0,0,0c0,0-0.1,0-0.1-0.1c-0.1,0-0.1,0-0.2,0c-0.8-0.1-1.4,0.3-1.9,0.8c-0.1,0.1-0.2,0.2-0.3,0.3
	c0,0-0.1,0.1-0.1,0.1c0,0-0.1,0.1-0.1,0.1c-0.1,0.1-0.1,0.1-0.2,0.2c0,0,0,0-0.1,0c-0.1,0.1-0.2,0.1-0.2,0.2c-0.2,0-0.4,0.1-0.4,0.4
	c-0.1,1.3,0.4,2.6,0.8,3.7c0.1,0.3,0.2,0.5,0.3,0.8C255.3,46.3,255.7,47.2,256.4,47.8z"/>
<path class="st1" d="M251.6,52.8c0.2,0.1,0.5,0,0.6-0.2c0.2-1.3,0.3-2.6,0.2-3.9c0-0.1,0-0.1,0-0.2c0-0.2,0-0.5-0.1-0.7
	c0,0,0-0.1,0-0.1c0-0.2,0-0.4-0.1-0.7c0,0,0-0.1,0-0.1c0-0.2-0.1-0.5-0.1-0.7c-0.1-0.5-0.2-0.9-0.3-1.3c0-0.2-0.2-0.3-0.4-0.3
	c-0.2,0-0.4,0.1-0.7,0.2c-0.1,0-0.1,0.1-0.2,0.1c0,0,0,0,0,0c-0.3,0.2-0.6,0.4-0.9,0.6c0,0,0,0,0,0c-0.2,0.2-0.4,0.4-0.6,0.6
	c0,0,0,0,0,0c0,0-0.1,0.1-0.1,0.1c0,0,0,0,0,0c0,0-0.1,0.1-0.1,0.1c0,0,0,0,0,0c-0.1,0.2-0.3,0.3-0.4,0.5c0,0,0,0,0,0
	c0,0-0.1,0.1-0.1,0.1c0,0-0.1,0.1-0.1,0.1c-0.3,0.4-0.5,0.9-0.5,1.3c-0.1,0.1-0.2,0.4,0,0.5c0.8,1,1.6,2,2.5,2.8c0,0,0,0,0,0
	C250.5,52.2,251,52.5,251.6,52.8z"/>
<path class="st1" d="M283.7,80.8c-0.9,1.2-1.6,2.1-2.4,3c0.9,0.3,1.6,0.6,2.4,0.9C284,83.5,284,82.3,283.7,80.8z"/>
<path class="st1" d="M247.1,58.2c-0.1-0.2-0.1-0.4-0.2-0.6c0-0.1,0-0.1-0.1-0.2c0-0.1-0.1-0.3-0.1-0.4c0-0.1,0-0.2-0.1-0.2
	c0-0.2-0.1-0.3-0.1-0.5c-0.1-0.3-0.1-0.5-0.1-0.8c-0.1-0.4-0.1-1.5-0.4-2c0-0.1-0.1-0.1-0.1-0.2c-0.1-0.1-0.2-0.1-0.2-0.2
	c0,0,0,0-0.1,0c0,0,0,0,0,0c0,0-0.1,0-0.1,0c0,0,0,0-0.1,0c0,0,0,0,0,0c0,0-0.1,0-0.1,0c0,0,0,0,0,0c0,0-0.1,0-0.1,0c0,0,0,0,0,0
	c0,0-0.1,0-0.1,0.1c-0.4,0.4-0.8,0.8-1.2,1.3c-0.3,0-0.5,0.4-0.3,0.7c0.1,0.1,0.2,0.3,0.3,0.4c0.8,1,1.6,2,2.4,3
	C246.7,58.9,247.2,58.6,247.1,58.2z"/>
<path class="st2" d="M252.1,23.5c2-0.1,3.7-1.4,5-3.3c0.9-1.3,0.8-2.5-0.2-3.7c-1.1-1.4-3.7-1.9-5.2-1.1c-1.9,1-3.1,3.6-2.6,5.7
	C249.3,22.8,250.1,23.4,252.1,23.5z M252.1,18.2c-0.5,0.8-0.9,1.4-1.4,2.1C250.3,18.6,250.4,18.3,252.1,18.2z"/>
<path class="st2" d="M266.3,17.4c0-0.1-0.1-0.2-0.2-0.3c-0.9,0.3-1.5,1.2-2.5,1.4c0.3-0.6,1-0.9,1.1-1.8c-1.8,0.7-3.2,1.8-4.8,2.7
	c-0.4,0.3-0.9,0.7-0.5,1.2c0.4,0.7,1,0.3,1.5-0.1c0.5-0.3,0.9-0.7,1.3-1.1c0.1,0.2,0.1,0.3,0.1,0.4c0,0.1,0,0.1,0.1,0.2
	c0,0.1,0,0.1,0.1,0.2c0,0.1,0,0.1,0.1,0.1c0,0,0,0.1,0.1,0.1c0,0,0,0.1,0.1,0.1c0,0,0,0,0.1,0.1c0,0,0,0,0.1,0c0,0,0.1,0,0.1,0
	c0,0,0.1,0,0.1,0c0,0,0.1,0,0.1-0.1c0,0,0.1,0,0.1-0.1c0,0,0.1-0.1,0.2-0.1c0,0,0.1-0.1,0.1-0.1c0.1-0.1,0.2-0.2,0.3-0.3
	c0.8-0.7,1.5-1.4,2.2-2.1c0.1-0.1,0.2-0.2,0.3-0.4C266.3,17.6,266.3,17.5,266.3,17.4C266.3,17.4,266.3,17.4,266.3,17.4z"/>
<path class="st2" d="M287.6,8C287.5,8,287.5,7.9,287.6,8c-0.1-0.1-0.1-0.1-0.2-0.2c0,0-0.1,0-0.1-0.1c0,0-0.1,0-0.1,0
	c-0.1,0-0.2,0-0.3,0c-0.1,0-0.2,0.1-0.3,0.1c0,0-0.1,0.1-0.1,0.1c-0.1,0-0.1,0.1-0.2,0.1c-0.1,0-0.1,0.1-0.2,0.2
	c-0.1,0-0.1,0.1-0.2,0.2c-0.1,0.1-0.1,0.1-0.2,0.2c0,0.1-0.1,0.1-0.1,0.2c-0.1,0.1-0.2,0.2-0.2,0.3c0,0-0.1,0.1-0.1,0.1
	c-0.1,0.1-0.1,0.2-0.2,0.3c0,0.1-0.1,0.1-0.1,0.1c-0.1,0.1-0.1,0.2-0.1,0.3c0,0,0,0.1,0,0.1c0,0.1-0.1,0.3-0.1,0.4
	c0.1,0.2,0.1,0.6,0.6,0.6c0.8-0.1,2.5-2.1,2.3-2.9c0-0.1,0-0.2-0.1-0.2C287.6,8.1,287.6,8,287.6,8z"/>
<path class="st2" d="M273.4,13.3c-1.1,0.5-2,1.2-2.9,2c-0.1,0.1-0.1,0.1-0.1,0.2c0,0,0,0.1-0.1,0.1c0,0,0,0.1-0.1,0.1
	c0,0,0,0.1,0,0.1c0,0.1,0,0.1,0,0.2c0,0,0,0.1,0,0.1c0,0.1,0.1,0.2,0.2,0.2c0.3,0.4,0.7,0.3,1,0c0.7-0.8,1.4-1.6,2.1-2.4
	c0.1-0.1,0.1-0.2,0.2-0.3C273.6,13.6,273.5,13.4,273.4,13.3z"/>
<path class="st2" d="M278.2,11.6C278.2,11.6,278.3,11.6,278.2,11.6c0.1-0.1,0.1-0.1,0.2-0.2c0,0,0,0,0.1-0.1c0-0.1,0.1-0.1,0.1-0.2
	c0,0,0-0.1,0-0.1c0-0.1,0.1-0.2,0.1-0.3c-0.8-0.3-1.3,0.1-1.9,0.2c-0.3,0.1-0.5,0.3-0.5,0.7c0.1,0.5,0.4,0.6,0.8,0.5
	c0.1,0,0.2,0,0.2-0.1c0.2-0.1,0.4-0.1,0.5-0.2c0,0,0,0,0,0C278.1,11.7,278.2,11.7,278.2,11.6z"/>
<path class="st1" d="M238.5,73.3c0.4,0.4,0.7,0.1,0.9-0.2c0.7-1.1,1.4-2.2,1.6-3.7c-1.4,0.6-2.3,1.5-3.1,2.6
	C237.4,72.6,238.2,72.9,238.5,73.3z"/>
<path class="st3" d="M141.9,54c-0.4-0.5-0.8-0.5-1.4,0C141,54.2,141.4,54.4,141.9,54z"/>
<path class="st1" d="M242.2,62.6c-0.5-1.1-0.9-2.3-1.6-3.2c-0.1-0.2-0.4-0.1-0.5,0l-1.7,1.7c-0.1,0.1-0.1,0.3-0.1,0.4
	c0,0.2,0,0.4,0.2,0.4c1.1,0.5,2.1,1.1,3.4,1.2C242.1,63.1,242.3,62.8,242.2,62.6z"/>
<path class="st3" d="M182.8,124.3c-1.4,0.3-2.9,0.3-3.7,0.2c-4.4-0.4-7.8,0.8-11.3,1.3c-0.7,0.1-1,0.6-1,1.4c0,2.9-0.5,5.8-1.1,8.7
	c-1.6,7.2-4.5,13.8-9.1,19.6c-2.3,2.9-5.2,5.1-7.9,7.5c-3.5,3.1-7.3,5.7-11.2,8.3c-0.6,0.4-1.1,0.8-1.6,1.4c-1,1.3,0.5,2.8,1.8,2.5
	c0.7-0.1,1.2-0.5,1.8-0.8c5.6-3.3,12.1-4.5,17.7-7.9c5.8-3.5,11.2-7.8,16.1-12.4c7.6-7.2,15.2-17.9,11.1-28.7
	C184.3,124.5,183.8,124.1,182.8,124.3z"/>
<path class="st3" d="M146,50.5c-1.2-0.7-1.9-1.6-3.1-1.9C143.9,49.9,144.5,50.3,146,50.5z"/>
<path class="st3" d="M151.5,56.1c0.2-0.2,0-0.3-0.2-0.3c-0.3,0.1-0.8-0.1-1,0.3c0.1,0.1,0.1,0.3,0.2,0.3
	C150.9,56.6,151.2,56.4,151.5,56.1z"/>
<path class="st3" d="M140.6,55.6c0.4,0.2,0.8,0,1.3-0.1C141.5,55.5,141,55.1,140.6,55.6z"/>
<path class="st3" d="M131.1,45.2c-1.5,0.9-2.5,2.3-3.2,3.9C129,47.8,130.3,46.7,131.1,45.2z"/>
<path class="st3" d="M129.4,53.4c-0.1,0.1-0.2,0.3-0.3,0.4c0.1,0.2,0.2,0.2,0.3,0.1c0.1-0.1,0.3-0.3,0.3-0.4
	C129.7,53.4,129.5,53.3,129.4,53.4z"/>
<path class="st3" d="M128.3,43.1c-1,1.1-2,2-2.7,3.2C127,45.5,128,44.3,128.3,43.1z"/>
<path class="st4" d="M181.2,77.4c0.8-0.9,1.9-1.3,1.1-2.7C181.9,75.5,181.4,76.1,181.2,77.4z"/>
<path class="st3" d="M126.9,49.8c-1.2,1.4-2.1,2.7-3.1,3.9C126,52.2,126.7,51.2,126.9,49.8z"/>
<path class="st5" d="M171.3,89.6c1.8-1.9,1.8-3.8,1.4-6C171.8,85.5,171.4,87.3,171.3,89.6z"/>
<path class="st3" d="M127,52.8c1.7-2,3.8-3.6,4.9-6.1C129.9,48.4,128.3,50.5,127,52.8z"/>
<path class="st3" d="M130,59.6c1.2-0.5,2.4-1.1,3.5-2.3C131.8,57.8,131,58.8,130,59.6z"/>
<path class="st3" d="M136.9,52.6c-0.9,0.6-1.6,1-2.7,1.6C136.1,53.9,136.1,53.9,136.9,52.6z"/>
<path class="st3" d="M126.1,42.4c-1.8,2.8-3.7,5.4-5.9,7.9c-0.4,0.5-0.9,0.9-0.8,1.8c2.9-3.3,5.3-6.8,8.3-10
	C126.8,41.8,126.4,41.8,126.1,42.4z"/>
<path class="st3" d="M117.1,51.6c1.5-1.1,1.5-1.1,1.7-2.2C117.9,49.8,117.7,50.6,117.1,51.6z"/>
<path class="st3" d="M123.6,63.6c0.3,1.1,0.6,1.7,1.3,2.4C125,64.8,124.5,64.3,123.6,63.6z"/>
<path class="st3" d="M124.1,48.6c0.7-0.6,1.4-1.2,1.4-2.2C125,47.1,124.3,47.6,124.1,48.6z"/>
<path class="st3" d="M124.2,42.4c0.4,0,0.5-0.4,0.5-0.6c0.1-0.2-0.1-0.3-0.3-0.3c-0.5,0-0.4,0.4-0.4,0.7
	C124,42.2,124.2,42.4,124.2,42.4z"/>
<path class="st3" d="M116.3,49.5c-0.2,0.2-0.3,0.5-0.5,0.8c0.7-0.1,0.9-0.6,1.2-1.2C116.6,49.1,116.5,49.4,116.3,49.5z"/>
<path class="st3" d="M120.8,41.8c0.3,0.1,0.4,0.3,0.5,0.5c0.3,0.4,0.5,0.2,0.8,0c0.2-0.2,0.4-0.3,0.4-0.6c-0.1-0.3-0.4-0.3-0.6-0.3
	c-0.3-0.1-0.6-0.1-1-0.2c-0.3,0-0.7-0.1-0.8,0.3C119.9,42.2,120.5,41.8,120.8,41.8z"/>
<path class="st1" d="M103.8,100.5c0,0-0.3,0-0.3,0c-0.2,0.4-0.2,0.7,0.2,1C104,101.1,103.9,100.8,103.8,100.5z"/>
<path class="st6" d="M296.7,8.6c0-0.1,0-0.1,0-0.2c0-0.2-0.1-0.5-0.2-0.7c0-0.1,0-0.1-0.1-0.1c-0.1-0.2-0.2-0.4-0.3-0.6
	c0-0.1-0.1-0.1-0.1-0.1c-0.1-0.2-0.2-0.4-0.4-0.5c0,0,0,0,0,0c-2.7,0.5-5.4,1.1-8,1.9c0,0.1,0,0.1,0.1,0.2c0.2,0.8-1.5,2.8-2.3,2.9
	c-0.6,0.1-0.5-0.4-0.6-0.6c0-0.1,0-0.3,0.1-0.4c0,0,0-0.1,0-0.1c0-0.1,0.1-0.2,0.1-0.3c0-0.1,0.1-0.1,0.1-0.1
	c0.1-0.1,0.1-0.2,0.2-0.3c0,0,0.1-0.1,0.1-0.1c0.1-0.1,0.1-0.2,0.2-0.3c0,0,0,0,0,0c-2.6,0.9-5.1,1.9-7.6,3c0,0,0,0,0,0
	c-0.2,0.1-0.3,0.2-0.5,0.2l0,0c-1.3,0.6-2.7,1.2-4,1.9c-0.7,0.8-1.4,1.6-2.1,2.4c-0.3,0.3-0.7,0.4-1,0c-0.1-0.1-0.1-0.2-0.2-0.2
	c0,0,0-0.1,0-0.1c0-0.1,0-0.1,0-0.2c0,0,0-0.1,0-0.1c0,0,0-0.1,0.1-0.1c0,0,0-0.1,0.1-0.1c0,0,0,0,0-0.1c-1.4,0.7-2.8,1.4-4.1,2.1
	c0,0.2-0.2,0.3-0.3,0.4c-0.7,0.7-1.5,1.4-2.2,2.1c-0.1,0.1-0.2,0.2-0.3,0.3c0,0-0.1,0.1-0.1,0.1c-0.1,0-0.1,0.1-0.2,0.1
	c0,0-0.1,0-0.1,0.1c0,0-0.1,0-0.1,0.1c0,0-0.1,0-0.1,0c0,0-0.1,0-0.1,0c0,0-0.1,0-0.1,0c0,0,0,0-0.1-0.1c0,0,0,0-0.1-0.1
	c0,0,0-0.1-0.1-0.1c0,0,0-0.1-0.1-0.1c0-0.1,0-0.1-0.1-0.2c0-0.1,0-0.1-0.1-0.2c0,0,0,0,0,0c-1.8,1.1-3.5,2.3-5.3,3.6
	c-4.6,3.1-9.4,4.9-13.4,8.3c0.1,0,0.1-0.1,0.2-0.1c0.7-0.4,1.4-0.9,2.3-0.9c0.7,0,1.1-0.5,1.6-0.9c1.2-1.1,2.6-2.1,4.1-2.8
	c1.7-0.8,3.1-1.9,4.7-2.8c-0.3,1-1.1,1.5-1.8,2.1c-0.7,0.7-1.5,1.4-2.3,2c-0.5,0.3-0.9,0.9-1.7,0.4c-0.5-0.3-0.7,0.1-1,0.3
	c-1.2,0.8-2,1.9-3,2.9c-0.6,0.6-1,1.5-2.2,0.8c-0.4-0.2-0.7,0.2-1,0.4c-0.9,0.7-1.6,1.4-2.3,2.3c-0.4,0.5-0.8,1-1.6,0.6
	c-0.5-0.3-0.8,0.2-1.2,0.4c-0.9,0.7-1.8,1.5-2.6,2.2c-0.3,0.2-0.6,0.5-0.9,0.6c-0.2,0.1-0.5,0.1-0.7-0.1c-0.2-0.3-0.2-0.6,0.1-0.8
	c0.6-0.4,1.1-0.9,1.7-1.3c-1,0.7-1.9,1.4-2.8,2.1c0,0,0,0.1,0.1,0.1c0.1,0.1,0.1,0.2,0.2,0.2c0,0,0,0,0,0.1c0,0.1,0.1,0.2,0.1,0.2
	c0,0,0,0,0,0.1c0,0.1,0,0.2,0,0.2c0,0,0,0,0,0c0,0.1,0,0.2,0,0.3c0,0,0,0,0,0c0,0.1,0,0.2-0.1,0.2c0,0,0,0.1,0,0.1
	c0,0.1-0.1,0.1-0.1,0.2c0,0-0.1,0.1-0.1,0.1c0,0-0.1,0.1-0.1,0.1c-0.1,0.1-0.2,0.2-0.3,0.2c-2.3,2.1-4.4,4.4-6.3,6.9
	c-0.4,0.5-0.8,1-1.6,0.8c-1.2-0.3-2.2,0.3-3.2,0.9c-0.1,0.1-0.2,0.1-0.3,0.2c-2.2,1.9-4.4,3.6-6.6,5.3c0,0,0,0,0,0
	c-0.3,0.3-0.7,0.7-1,1c-1.7,1.7-3.2,3.4-4.1,5.7c-0.1,0.3-0.3,0.6-0.6,0.7c-2.6,0.7-4.3,2.7-6.2,4.3c-0.5,0.5-1.1,0.9-1.8,1.1
	c-0.5,0.2-0.9,0-1.2-0.3c-0.4-0.4-0.3-0.8,0-1.2c0.5-0.7,1.1-1.4,1.6-2c0.8,0.5,0.2,1.1,0.7,1.4c1.8-1.3,3.7-2.6,5.6-4
	c0.4-0.3,0.6-0.7,0.7-1.1c0.2-0.5,0.4-1,0.6-1.4c0.1-0.2,0.3-0.4,0.4-0.6c-4.3,3-8.7,5.7-13.2,8.4c-0.1,0.2-0.2,0.3-0.3,0.5
	c-0.8,1.1-0.8,2.5-0.8,3.9c-0.5,7.7,0.5,15.2,2.3,22.7c0.3,1,0.5,2.1,0.7,3.2c0.3,1.4,0.1,2.5-0.5,2.5c-1.1-0.1-1.3-1-1.5-1.9
	c-0.9-3.1-1.3-6.3-1.8-9.5c-0.3-1.9-0.7-3.9-1-5.8c-0.6-3.7-0.6-7.4-0.2-11c0.1-0.5,0.3-1.1-0.1-1.7c-0.6,0.1-1.1,0.7-1.7,0.6
	c-0.1,0-0.2,0-0.3,0c-0.1,0-0.1,0-0.1,0c0,0-0.1,0-0.1,0c-1,0.6-1.9,1.1-2.9,1.7c-0.2,0.3-0.3,0.5-0.5,0.8c0,0.1-0.1,0.1-0.1,0.2
	c-0.2,0.3-0.3,0.5-0.5,0.8c0,0-0.1,0.1-0.1,0.1c-0.2,0.2-0.4,0.5-0.6,0.7c0,0-0.1,0-0.1,0.1c-0.2,0.2-0.5,0.4-0.8,0.6
	c-1,0.6-1.1,1.4-1.1,2.4c-0.1,3.5,0.4,7,1.3,10.4c0.9,3.4,2.3,6.6,3.3,10c0.6,1.9,1.3,3.9,1.9,5.8c0.2,0.7,0.4,1.5,0.3,2.3
	c0,0.3-0.1,0.5-0.4,0.6c-0.3,0.1-0.5,0-0.7-0.2c-0.1-0.1-0.2-0.2-0.2-0.3c-0.8-2-1.9-3.7-2.8-5.6c-1.4-2.8-2.3-5.8-3.3-8.7
	c-1.4-3.9-1.2-7.9-1.2-11.9c0-0.8,0.2-1.7-0.4-2.6c-0.7,0.8-1.1,1.6-1.6,2.3c-0.5,0.9-0.9,2-2.3,1.9c-0.5,0-0.5,0.5-0.7,0.8
	c-0.6,1-0.9,2.3-2.4,2.5c-0.5,0.1-0.3,0.6-0.3,1c0.5,4.7,1.3,9.3,3.7,13.5c1,1.8,2.1,3.5,3.4,5.1c0.4,0.4,0.3,2.7,0,3
	c-0.2,0.2-0.5,0.2-0.7,0.1c-0.5-0.2-0.8-0.6-1.1-1c-1.2-1.9-2.3-3.8-3.2-5.9c-1.6-3.8-3.3-7.4-3.7-11.8c-0.8,0.5-0.9,1.3-1.4,1.8
	c-0.3,0.4-0.5,0.8-1,0.7c-0.5-0.1-0.6-0.6-0.6-1.1c0-1.2,0-2.4,0.2-3.6c0.2-0.7,0.3-1.4,0.5-2c0-0.2,0.1-0.4,0.1-0.5
	c0.1-0.5,0.3-1.1,0.5-1.6c0-0.1,0.1-0.2,0.1-0.4c-1.8,1.3-3.5,2.6-5.1,4.1c-0.7,0.6-1.4,1.3-2.2,1.9c-0.1,0.3-0.2,0.5-0.2,0.8
	c-0.1,0.4-0.2,0.7-0.3,1.1c-0.1,0.4-0.2,0.8-0.3,1.3c-0.1,0.4-0.2,0.8-0.3,1.1c-0.1,0.5-0.2,1-0.4,1.5c-0.2,1-0.5,2-0.7,3
	c-0.3,1.3-0.4,2.6-0.2,4.1c0.9-0.5,1-1.4,1.3-2.1c1.5-3.8,2.8-7.6,3.9-11.6c0.2-0.6,0.4-1.2,0.6-1.8c0.1-0.3,0.3-0.6,0.7-0.5
	c0.4,0.1,0.4,0.5,0.3,0.8c-0.3,1.3-0.7,2.6-1,3.9c-0.6,2.2-1.2,4.4-1.8,6.6c-0.2,0.6-0.1,0.8,0.6,0.6c0.1,0,0.2,0.1,0.2,0.2
	c0.1,0.4-0.8,2.7-1.1,3c-0.3,0.2-0.7,0.3-0.9,0.1c-0.6-0.9-0.7-0.4-1,0.2c-0.4,0.8-0.6,1.7-1.3,2.3c-0.7,0.6-1.3,0.5-1.5-0.4
	c-0.2-0.7-0.2-1.4-0.2-2.1c0-0.6,0.2-1.1-0.1-1.9c-1.1,1.3-1.5,2.9-2.3,4.2c-0.3,0.5-0.5,1.2-0.8,1.7c-0.3,0.6-0.6,1.4-1.5,1.2
	c-1-0.2-0.6-1.1-0.7-1.8c-0.1-0.7,0.2-1.4-0.1-2c-0.6,0-0.7,0.4-0.8,0.7c-0.3,0.6-0.6,1.1-0.9,1.7c-0.4,0.7-0.7,1.8-1.7,1.5
	c-1-0.4-0.5-1.4-0.4-2.2c0-0.1,0-0.2,0-0.4c-0.8-0.1-0.8,0.6-1.1,1c-0.3,0.4-0.5,0.7-0.8,1.1c-0.3,0.4-0.7,0.8-1.3,0.7
	c-0.7-0.2-0.7-0.9-0.6-1.4c0.1-0.7,0.2-1.5,0.3-2.2c0-0.1,0-0.3,0.1-0.4c0.1-0.7,0.2-1.5,0.3-2.2c0-0.1,0-0.2,0-0.2
	c-1.3-0.1-2.7-0.2-4.1-0.2c-0.2,0.3-0.4,0.5-0.5,0.8c0-0.2,0-0.3,0-0.5c0-0.1,0-0.1,0-0.2c0-0.1,0-0.1,0-0.2c-0.5,0-1-0.1-1.5-0.1
	c-1.1,1.3-2.1,2.6-3.2,3.9c-0.1,0.1-0.3,0.3-0.4,0.4c-0.3,0.3-0.7,0.7-1.2,0.5c-0.5-0.2-0.5-0.7-0.5-1.1c0-0.3,0-0.5-0.2-0.7
	c-0.3,0-0.6,0.3-0.8,0.4c-0.6,0.2-0.9,0-0.8-0.6c0.1-0.6,0.2-1.2,0.4-1.7c0.2-0.4,0.4-0.8,0.6-1.3c-2.5-0.1-5-0.1-7.5,0
	c-0.1,0.1-0.2,0.2-0.2,0.2c-0.1,0.1-0.2,0.2-0.3,0.3c-0.2,0.2-0.5,0.4-0.7,0.6c-0.6,0.4-1.3,0-1.3-0.7c0-0.1,0-0.2,0-0.3
	c-1.1,0.1-2.2,0.1-3.3,0.2c-0.2,0.2-0.4,0.5-0.5,0.7c-0.2,0.3-0.5,0.6-0.7,0.9c-0.3,0.4-0.7,1-1.2,0.7c-0.7-0.3-0.6-1-0.3-1.7
	c0-0.1,0.1-0.3,0.1-0.4c-1,0.1-1.9,0.2-2.9,0.4c-0.1,0.1-0.2,0.3-0.3,0.4c-0.3,0.5-0.5,1-1,1.4c-0.3,0.2-0.6,0.3-0.9,0.2
	c-0.3-0.2-0.4-0.5-0.4-0.8c0-0.1,0-0.3,0-0.4c0,0,0,0,0-0.1c0-0.1,0.1-0.2,0.1-0.3c-0.3,0.1-0.7,0.1-1,0.2c-0.2,0.3-0.3,0.5-0.5,0.7
	c0,0-0.1,0.1-0.1,0.1c-0.2,0.2-0.3,0.5-0.5,0.7c-0.4,0.5-0.6,1-1,1.4c-0.3,0.4-0.7,0.5-1.2,0.2c-0.5-0.3-0.4-0.8-0.1-1.2
	c0.3-0.5,0.6-1,0.9-1.5c-0.4,0.1-0.8,0.2-1.2,0.3c0,0,0,0,0,0.1c-0.5,0.8-1.1,1.6-1.6,2.5c-0.3,0.5-0.7,0.9-1.1,1.3
	c-0.3,0.3-0.8,0.5-1.2,0.2c-0.4-0.3-0.4-0.7-0.2-1.2c0.1-0.1,0.1-0.3,0.2-0.4c0.1-0.3,0.3-0.6,0.4-0.9c0,0,0-0.1,0-0.1
	c0-0.1,0.1-0.3,0.1-0.4c0,0,0,0,0,0c-0.4,0.1-0.8,0.3-1.2,0.4c0,0,0,0,0,0c0,0-0.1,0.1-0.1,0.1c-0.3,0.3-0.7,0.7-1,1.1
	c-0.1,0.1-0.2,0.2-0.3,0.4c-0.2,0.3-0.5,0.6-0.7,0.9c-0.1,0.1-0.2,0.3-0.3,0.4c-0.3,0.5-0.5,0.9-0.8,1.4c-0.1-0.2-0.1-0.5-0.2-0.7
	c-0.1-0.2-0.1-0.3-0.2-0.5c0-0.1,0-0.1-0.1-0.2c-0.1-0.2-0.2-0.5-0.3-0.7c0,0,0-0.1,0-0.1c-0.1-0.2-0.1-0.4-0.2-0.5c0,0,0,0,0-0.1
	c-1.4,0.6-2.8,1.2-4.1,2c-0.2,0.3-0.4,0.7-0.6,1c0,0.1-0.1,0.2-0.1,0.3c-0.2,0.4-0.4,0.7-0.5,1.1c-0.3,0.7-0.6,1.5-1.6,1.3
	c-0.1,0-0.1,0-0.2-0.1c0,0,0,0-0.1-0.1c0,0-0.1-0.1-0.1-0.1c0,0,0-0.1,0-0.1c0,0,0-0.1,0-0.1c0,0,0-0.1,0-0.1c0,0,0-0.1,0-0.1
	c0-0.1,0-0.1,0-0.2c0,0,0-0.1,0-0.1c0-0.1,0-0.1,0.1-0.2c0,0,0-0.1,0-0.1c0-0.1,0.1-0.2,0.1-0.2c0,0,0-0.1,0.1-0.1
	c0-0.1,0.1-0.2,0.1-0.3c0,0,0-0.1,0.1-0.1c-0.3,0.2-0.6,0.4-0.9,0.6c-0.1,0.2-0.2,0.4-0.4,0.6c-0.3,0.5-0.5,1-0.8,1.5
	c-0.8,1.2-1,1.3-2.1,0.4c0,0,0,0,0,0c-1,0.8-2,1.7-3,2.7c-2.7,2.7-6,4.1-9.3,5.2c-0.5,0.1-1,0.2-1.5,0.3c0,0,0,0,0,0
	c0,0,0,0.1-0.1,0.1c-0.1,0.2-0.2,0.4-0.3,0.5c0,0,0,0,0,0c-0.1,0.2-0.3,0.3-0.5,0.5c-0.4,0.3-0.8,0.3-1.2-0.1
	c-0.1-0.1-0.1-0.2-0.1-0.3c0,0,0-0.1,0-0.1c0-0.1,0-0.1,0-0.2c0,0,0-0.1,0-0.1c0,0,0-0.1,0.1-0.1c0,0,0.1-0.1,0.1-0.1c0,0,0,0,0,0
	c-0.6,0.1-1.1,0.1-1.7,0.1c0,0-0.1,0.1-0.1,0.1c-0.1,0.1-0.2,0.2-0.3,0.2c0,0,0,0,0,0c-0.1,0-0.2,0.1-0.3,0c0,0,0,0,0,0
	c-0.1,0-0.2,0-0.3-0.1c0,0,0,0,0,0c-0.1-0.1-0.2-0.1-0.3-0.2l0,0c-0.5,0-1,0-1.5,0c0,0,0,0,0,0c-0.1,0.1-0.2,0.1-0.3,0.1
	c-0.1,0-0.2,0-0.3,0c0,0-0.1,0-0.1,0c-0.1,0-0.1-0.1-0.2-0.1c0,0,0,0,0,0c-3.2-0.1-6.4-0.5-9.7-0.5c0,0,0,0,0,0
	c-0.1,0.1-0.1,0.1-0.2,0.2c0,0,0,0-0.1,0c-0.1,0.1-0.2,0.1-0.3,0.1c0,0,0,0-0.1,0c-0.1,0-0.2,0-0.3,0c0,0-0.1,0-0.1,0
	c-0.1,0-0.2-0.1-0.3-0.1c-0.1-0.1-0.2-0.1-0.3-0.2c0,0-0.1,0-0.1,0c0,0-0.1,0-0.1,0c-0.2,0-0.3,0-0.5,0c0,0,0,0,0,0
	c-0.1,0-0.1,0.1-0.1,0.1c0,0,0,0,0,0c0,0-0.1,0.1-0.1,0.2c0,0,0,0,0,0c0,0.1-0.1,0.1-0.1,0.2c0,0,0,0,0,0c0,0.1-0.1,0.2-0.1,0.3
	c-0.2,0.5-0.5,0.9-0.8,1.3c-0.4,0.5-0.8,0.5-1.3,0.1c-0.6-0.5-0.7-1-0.6-1.7c0-0.1,0-0.1,0-0.2c-0.6,0.1-1.2,0.2-1.8,0.3
	c0,0,0,0,0,0c-0.1,0.1-0.2,0.3-0.3,0.4c-0.3,0.4-0.4,1.2-1.2,1.1c-0.1,0-0.2,0-0.2-0.1c0,0,0,0,0,0c0,0-0.1-0.1-0.1-0.1c0,0,0,0,0,0
	c0,0,0-0.1-0.1-0.1c0,0,0,0,0,0c0-0.1,0-0.1,0-0.2c0,0,0,0,0,0c0-0.1,0-0.3,0-0.4c0,0,0,0,0,0c-0.7,0.2-1.4,0.3-2.1,0.5
	c0,0.1-0.1,0.1-0.1,0.2c-0.2,0.2-0.3,0.4-0.4,0.5c-0.2,0.2-0.3,0.4-0.6,0.6c-0.1,0.1-0.2,0.2-0.4,0.3c0,0-0.1,0-0.1,0.1
	c-0.1,0-0.1,0.1-0.2,0.1c0,0-0.1,0-0.1,0c-0.1,0-0.1,0-0.2,0.1c0,0-0.1,0-0.1,0c0,0-0.1,0-0.1,0c0,0-0.1,0-0.1,0c0,0-0.1,0-0.1,0
	c0,0-0.1,0-0.1-0.1c0,0-0.1-0.1-0.1-0.1c0,0-0.1-0.1-0.1-0.1c0,0-0.1-0.1-0.1-0.1c0-0.1-0.1-0.1-0.1-0.2c0,0,0,0,0-0.1
	c-0.7,0.3-1.5,0.6-2.2,1c0,0,0,0,0,0c0,0.1,0,0.1,0,0.2c0,0,0,0.1,0,0.1c0,0,0,0.1,0,0.1c0,0,0,0.1,0,0.1c0,0,0,0.1,0,0.1
	c0,0,0,0,0,0.1c0,0,0,0-0.1,0.1c0,0,0,0-0.1,0c0,0-0.1,0-0.1,0c0,0-0.1,0-0.1,0c0,0-0.1,0-0.1,0c0,0-0.1,0-0.1,0c0,0-0.1,0-0.1,0
	c-0.1,0-0.2,0-0.2,0c-0.9,0.1-1.6,0.5-2.2,1.3c0.6,0.3,1.1,0.6,1.6,0.8c0.5,0.2,1.1,0.4,1.6,0.6c6.3,2.8,12.8,4.9,19.7,6
	c4.1,0.6,8.1,1.5,12.2,2.1c6.9,1,13.9,1.3,21,1.3c14.2,0,28.3-0.2,42.4-1.3c6.4-0.5,12.8-1.1,19.2-2c2.4-0.4,4.9-0.6,7.3-1.5
	c0.8-0.3,1.1-0.7,1.2-1.5c0.1-1.2-0.1-2.3-0.7-3.4c-0.4-0.7-0.5-1.4-1.5-1.1c-0.5,0.1-0.9-0.1-1-0.6c-0.1-0.7,0.5-0.8,1-0.9
	c4.1-0.9,8.2-2,12.3-2.7c1.8-0.3,3.6-0.6,5.4-1.3c2.8-1.1,5.8-1.2,8.8-1.3c1,0,1.4,0.5,1.8,1.4c1,2.2,0.6,4.5,0.9,6.8
	c0,0.2,0,0.4-0.1,0.5c0.1,0.6,0.1,1.1,0,1.7c1.1,0.2,2.2,0.1,3.2-0.1c2.5-0.6,5.1-1,7.6-1.7c3.1-0.9,6.4-1,9.6-1.6
	c3.3-0.6,6.5-1.2,9.7-2.1c4.7-1.4,9.2-3.3,13.8-4.9c1.6-0.5,3.1-1.1,4.5-2c3.3-1.9,6.6-3.8,10-5.6c3-1.6,6-3.1,9-4.6
	c1.4-0.7,2.7-1.5,3.9-2.4c3.4-2.4,6.8-4.7,10.2-7.1c3.5-2.4,6.3-5.5,8.6-9.1c0.7-1.1,0.3-1.8-1-2c-0.1,0-0.1,0-0.2,0
	c-0.1-0.1-0.1-0.1-0.2-0.1c-0.1-0.1-0.2-0.1-0.3-0.1c-1.4,0.2-2.8,0.3-4.2,0.6c-0.3,0-0.7,0-1,0c-1.8-0.1-3.7,0-5.5,0
	c-4.2-0.1-8.3-0.6-12.5-1.6c-4.9-1.3-9.5-3.4-14.1-5.2c-1.3-0.5-2.5-1.3-3.5-2.2c-1-0.8-1.7-2.1-2.6-3c-2.5-2.4-2.9-5.4-2.6-8.6
	c0.2-2.1,0.9-4.1,2-5.9c1.6-2.8,3.5-5.6,5.5-8.1c4.1-5.1,8.4-10.1,13.3-14.4c3.8-3.3,8.1-6,12.8-7.8c3-1.1,6.1-2.7,9.4-2.7
	c1.2,0,2.4,0.3,3.4,1c3.2,2.3,2.8,8,2.3,11.9c0.1,1.1,0,2.2,0,3.3c-0.1,2.5-0.4,4.8-0.9,7.2c0,0.2-0.1,0.4-0.1,0.6
	c0.4,0.1,0.8,0.1,1.1-0.5c1.4-2.5,3.6-4.5,4.8-7.1c1.2-2.6,2.4-5.2,3.5-7.8c0.4-0.9,0.7-1.8,1-2.7c1.3-4.4,2.1-9,2.7-13.6
	c0.3-2.4,1.6-6.3,1.4-9.3C296.8,9.2,296.7,8.9,296.7,8.6z M68.2,125.2c-0.3,0.4-0.6,0.7-1.1,0.4c-0.5-0.3-0.3-0.8-0.1-1.2
	c0.6-1.1,1.3-2.1,1.9-3.2c0.1,0,0.3,0.1,0.4,0.1C69.2,122.6,69.1,124,68.2,125.2z M295.6,11.2c-0.2,0.7-1,1-1.6,0.8
	c-0.5-0.2-0.9-0.7-0.8-1.3c0-0.1,0-0.2,0-0.3c0,0,0-0.1,0-0.1c0-0.1,0-0.1,0-0.2c-0.3-0.6,0.1-1.4,0.6-1.6c0.1-0.1,0.2-0.1,0.4-0.1
	c0.1-0.1,0.3-0.1,0.5-0.1c0.5,0,1.1,0.5,1.1,1C295.8,9.9,295.8,10.5,295.6,11.2z"/>
<path class="st4" d="M139.2,99.8c-0.1,0.1-0.1,0.3-0.2,0.4c0,0,0,0.1,0,0.1c-0.1,0.2-0.1,0.3-0.2,0.5c0,0,0,0.1,0,0.1
	c0,0.2-0.1,0.4,0,0.6c0.7-0.1,1-0.6,1.3-1c0.3-0.4,0.7-0.8,1-1.2c-0.5,0-1.1,0-1.6-0.1c0,0,0,0,0,0.1
	C139.4,99.5,139.3,99.7,139.2,99.8z"/>
<path class="st4" d="M44.5,121.8c-0.1-0.1-0.1-0.2-0.2-0.3c-0.1-0.1-0.2-0.3-0.4-0.4c-0.5-0.1-1.9,0.9-1.7,1.4c0,0.1,0,0.2,0.1,0.2
	C43,122.5,43.7,122.1,44.5,121.8z"/>
<path class="st4" d="M149.1,101.4c0,0.1,0,0.3-0.1,0.4c-0.1,0.6-0.1,1.3-0.2,1.9c0.9-0.2,1.2-1,1.6-1.6c0.4-0.6,0.8-1.3,1.2-1.9
	c0.1-0.2,0.2-0.4,0.4-0.6c0-0.1,0.1-0.2,0.1-0.2c-0.6,0.3-1.2,0.5-1.8,0.5c-0.3,0-0.7,0-1-0.1c0,0,0,0.1,0,0.1
	C149.2,100.4,149.1,100.9,149.1,101.4z"/>
<path class="st4" d="M49.9,120.1c0-0.1,0-0.2-0.1-0.4c0-0.1-0.2-0.1-0.4-0.3c-0.3,0.2-0.6,0.4-0.9,0.6c-0.2,0.1-0.3,0.2-0.5,0.4
	c-0.1,0-0.1,0.1-0.1,0.1c0,0-0.1,0.1-0.1,0.1C48.5,120.5,49.2,120.3,49.9,120.1C49.9,120.2,49.9,120.2,49.9,120.1z"/>
<path class="st7" d="M69.1,119.5C69.1,119.5,69,119.5,69.1,119.5c-0.1-0.1-0.1-0.1-0.1-0.1c0-0.1-0.1-0.2-0.1-0.3
	c0.1-0.8,0.7-0.9,1.3-1.1c0.3-0.1,0.5,0,0.6,0.3c0,0.1,0,0.2,0,0.3c0,0,0,0,0,0.1c0,0.1-0.1,0.2-0.1,0.3c0,0,0,0,0,0
	c-0.1,0.1-0.1,0.2-0.2,0.3c0,0,0,0,0,0c-0.1,0.1-0.2,0.2-0.3,0.2c0,0,0,0,0,0c0.5,0,1,0,1.5,0c0,0,0,0-0.1-0.1
	c-0.4-0.5,0-0.8,0.3-1.1c0.6-0.3,1.1-0.9,1.9-0.7c0,0.2,0,0.4-0.1,0.6c0,0.1,0,0.1-0.1,0.2c0,0.1-0.1,0.2-0.1,0.3
	c0,0.1-0.1,0.1-0.1,0.2c-0.1,0.1-0.1,0.2-0.2,0.2c-0.1,0.1-0.1,0.2-0.2,0.2c0,0-0.1,0.1-0.1,0.1c0.6,0,1.1-0.1,1.7-0.1
	c0,0,0.1-0.1,0.1-0.1c0.8-0.4,1-1.5,2.2-1.6c-0.1,0.3-0.1,0.5-0.2,0.8c0,0.1-0.1,0.3-0.1,0.4c0,0.1-0.1,0.2-0.1,0.3
	c0.5-0.1,1-0.2,1.5-0.3c3.3-1.1,6.6-2.5,9.3-5.2c1-0.9,2-1.8,3-2.7c0,0,0,0-0.1,0c-0.1,0-0.1-0.1-0.2-0.1c0,0,0,0-0.1,0
	c-0.1,0-0.1,0-0.2-0.1c0,0,0,0,0,0c-0.1,0-0.1,0-0.2,0c0,0,0,0,0,0c-0.3,0-0.6,0.2-0.8,0.4c-0.4,0.3-0.8,0.3-1.2-0.1
	c-0.4-0.5,0-0.9,0.3-1.1c0.8-0.7,1.3-1.5,2-2.3c0.2-0.2,0.3-0.5,0.5-0.6c2.2-0.9,3-3.1,4.5-4.7c0.4-0.5,0.8-0.9,1.4-1.2
	c0.2,1.1-0.9,1.6-1,2.6c0.7-0.5,1.2-1.2,1.7-2c0.3-0.4,0.5-0.9,1-1.2c0.4-0.2,0.7-0.7,1.2-0.5c0.7,0.3-0.1,0.9,0.2,1.4
	c0.6-0.1,1-0.7,1.5-1.1c0.4-0.3,0.9-0.6,1.3-0.8c1.8-0.9,2.4-0.6,2.9,1.4c1.4-1,2.4-2.3,3.5-3.5c0.5-0.6,1-1.2,1.5-1.8
	c0.2-0.2,0.4-0.3,0.7-0.2c0.4,0.1,0.3,0.5,0.3,0.8c-0.1,0.7-0.6,1.4-0.7,2.5c1-1.2,1.8-2.1,2.6-3.1c0.4-0.6,1-1,1.5-1.4
	c0.2-0.2,0.6-0.5,0.8-0.4c1.5,0.7,2.1-0.6,2.9-1.3c0.3-0.3,0.7-0.7,1.1-0.3c0.3,0.3,0.1,0.7,0.1,1.1c-0.1,0.5-0.5,0.9-0.4,1.6
	c1.2-1.2,2.2-2.4,3.3-3.5c0.5-0.6,1.1-1,1.9-1.2c1-0.3,1.3,0,1.2,1c-0.1,0.7-0.5,1.3-0.8,2c-0.4,0.9-0.9,1.8-1.2,2.8
	c0.9-0.5,1.5-1.2,2-2c0.8-1.1,1.9-1.9,3-2.6c0.4-0.3,1-0.5,1.4-0.1c0.4,0.4,0.2,0.8,0,1.2c-0.7,1.7-1.5,3.4-2.3,5.1
	c-0.1,0.3-0.4,0.5-0.2,1c2.1-1.6,3.6-3.7,6-4.7c0.2,0.1,0.3,0.3,0.2,0.4c-2,1.4-3.6,3.1-5.3,4.9c0,0-0.1,0.1-0.1,0.1
	c2.5-0.1,5-0.1,7.5,0c0,0,0,0,0,0c0.2-0.3,0.3-0.7,0.4-1.1c0-0.1,0.1-0.1,0.1-0.2c0.1-0.3,0.2-0.7,0.3-1c0-0.1,0-0.1,0.1-0.2
	c0.1-0.4,0.2-0.7,0.3-1.1c0-0.1,0-0.2,0-0.3c0.1-0.4,0.1-0.8,0.1-1.3c1.4,1.8,0.1,3.2,0.2,4.7c1.1-0.7,1.3-2.1,2.6-2.8
	c0.6,1.1-0.2,1.9-0.4,2.8c0,0.2-0.1,0.3-0.2,0.5c0,0,0,0,0,0c0.5,0,1.1,0,1.6,0.1c1.3-1.5,2.6-3,3.9-4.6c0.4-0.4,0.8-0.8,1.4-0.9
	c0.5-0.1,0.7,0.2,0.7,0.6c0,0.1,0,0.1,0,0.2c-0.2,0.5-0.4,0.9-0.7,1.4c-0.1,0.2-0.2,0.3-0.3,0.5c-0.2,0.3-0.4,0.6-0.6,0.9
	c-0.1,0.2-0.2,0.4-0.4,0.5c-0.2,0.3-0.5,0.7-0.7,1c-0.1,0.2-0.2,0.3-0.3,0.5c1.4,0.1,2.7,0.2,4.1,0.2c0-0.1,0-0.2,0.1-0.3
	c0.1-0.3,0.1-0.6,0.2-0.9c0-0.2,0.1-0.4,0.1-0.6c0.1-0.3,0.1-0.6,0.2-0.9c0-0.2,0.1-0.4,0.1-0.6c0.1-0.3,0.2-0.7,0.3-1
	c0-0.2,0.1-0.3,0.1-0.5c0.2-0.5,0.3-1,0.5-1.5c0.4-0.9,0.6-2,0.9-2.9c0.2-0.5,0.4-1.1,1-0.9c0.7,0.2,0.4,0.9,0.2,1.3
	c-0.6,2-1.2,4-1.9,6c-0.2,0.5-0.3,1-0.5,1.5c-0.1,0.3-0.1,0.5-0.2,0.8c-0.1,0.2-0.1,0.4-0.1,0.6c0.3,0,0.7,0,1,0.1
	c0.6,0,1.2-0.2,1.8-0.5c0.3-0.5,0.6-1.1,0.9-1.6c0.1-0.2,0.2-0.5,0.4-0.7c0.2-0.5,0.5-1,0.7-1.4c0.1-0.2,0.2-0.5,0.3-0.7
	c0.3-0.7,0.6-1.4,0.9-2c0.3-0.8,0.8-1.6,1.2-2.4c0.2-0.4,0.6-0.8,1.1-0.5c0.4,0.3,0.1,0.7-0.1,1c-0.5,1-0.9,2-1.4,3
	c-0.1,0.3-0.3,0.6-0.4,0.9c-0.3,0.7-0.6,1.5-0.9,2.2c-0.1,0.1-0.1,0.3-0.2,0.4c0.6-0.5,1.3-1,1.9-1.5c0,0,0-0.1,0.1-0.1
	c0.2-0.5,0.4-1,0.6-1.5c0-0.1,0.1-0.3,0.1-0.4c0.2-0.6,0.4-1.3,0.6-1.9c0.3-0.9,0.7-1.8,1.1-2.6c0.2-0.4,0.5-0.7,0.9-0.5
	c0.5,0.2,0.2,0.6,0.1,1c-0.5,1.5-1.1,2.9-1.6,4.4l0,0c1.5-1.4,2.9-2.8,4.4-4.2c0,0,0,0,0-0.1c0.2-0.7,0.4-1.3,0.6-2
	c0.1-0.2,0.2-0.5,0.3-0.7c0.2-0.4,0.4-0.7,0.8-0.6c0.3,0.1,0.2,0.5,0.1,0.8c-0.1,0.3-0.2,0.7-0.3,1c0.7-0.7,1.4-1.3,2.2-1.9
	c1.6-1.5,3.4-2.8,5.1-4.1c0-0.1,0.1-0.3,0.1-0.4c0.1-0.2,0.1-0.3,0.2-0.5c0.2-0.5,0.4-1,0.6-1.5c0.7-1.6,0.5-3.4,0.8-5.1
	c0.1-0.8,0.1-1.5,0.6-2.2c0.2-0.3,0.6-0.5,1-0.5c0.5,0.1,0.5,0.5,0.4,0.9c-0.1,1.6-0.3,3.3-0.4,4.9c0,0.3,0,0.6,0,0.9
	c0,0.1,0,0.2,0,0.3c0,0.3,0,0.5,0,0.8c0,0,0,0,0,0.1c0.4-0.2,0.8-0.5,1.2-0.7c0,0,0,0,0,0c0.1-0.2,0.2-0.4,0.3-0.6
	c0-0.1,0.1-0.2,0.1-0.2c0.1-0.2,0.2-0.3,0.3-0.5c0-0.1,0.1-0.2,0.1-0.2c0.1-0.1,0.2-0.3,0.3-0.4c0-0.1,0.1-0.1,0.1-0.2
	c0.1-0.2,0.3-0.4,0.5-0.6c0,0.2,0.1,0.3,0.1,0.5c0,0,0,0.1,0,0.1c0,0.1,0,0.3-0.1,0.4c0,0,0,0,0,0c0,0.1-0.1,0.3-0.2,0.4
	c0,0,0,0.1-0.1,0.1c-0.1,0.1-0.1,0.2-0.2,0.4c0,0,0,0,0,0c0.5-0.3,1-0.6,1.5-0.9c0.2-0.4,0.4-0.9,0.6-1.3c0.1-0.1,0.1-0.3,0.2-0.4
	c0.2-0.4,0.4-0.7,0.6-1c0.1-0.1,0.2-0.3,0.2-0.4c0.3-0.5,0.6-0.9,0.9-1.3c1.3-1.7,2-3.6,2.7-5.5c0.2-0.6,0.3-1.5,1.1-1.3
	c0.8,0.2,0.5,1.1,0.5,1.7c-0.1,1.6-0.8,3.1-0.8,4.7c0.6,0.4,1.1-0.6,1.8-0.2c0.5,0.3,0.9-0.6,1.7-0.7c-0.1,0.1-0.2,0.3-0.3,0.4
	c1-0.5,1.9-1.1,2.9-1.7c0,0,0,0,0,0c-0.1,0-0.1-0.1-0.2-0.1c0,0,0,0-0.1-0.1c-0.1-0.1-0.1-0.2-0.2-0.3c-0.2-0.6,0.3-0.8,0.7-0.9
	c0.3-0.1,0.6-0.1,0.9-0.1c1.3-0.3,1.7-0.8,1.7-2.1c0-0.9,0-1.7,0.9-2.3c0.3-0.2,0.4-0.9,0.6-1.4c0.2-0.4,0.4-0.7,0.8-0.6
	c0.3,0.1,0.6,0.3,0.6,0.7c0,0.2,0.1,0.5,0.1,0.7c0,0.1,0,0.2,0,0.3c0,0.1,0,0.2,0,0.3c0,0.1,0,0.2,0,0.3c0,0.1,0,0.2,0,0.3
	c0,0.1,0,0.2,0,0.3c0,0.1,0,0.2,0,0.3c0,0.1,0,0.2,0,0.3c0,0.1,0,0.2,0,0.3c0,0.1,0,0.2-0.1,0.3c0,0.1,0,0.2-0.1,0.3
	c0,0.1-0.1,0.2-0.1,0.3c0,0.1-0.1,0.2-0.1,0.2c0,0,0,0,0,0c4.5-2.7,8.9-5.4,13.2-8.4c0.1-0.2,0.2-0.3,0.4-0.5
	c0.3-0.4,0.5-0.7,0.8-1.1c0.2-0.2,0.4-0.5,0.6-0.7c0.3-0.3,0.6-0.7,0.8-1c0.2-0.2,0.4-0.5,0.6-0.7c0.3-0.3,0.6-0.6,0.8-0.9
	c0.2-0.2,0.5-0.5,0.7-0.7c0.3-0.3,0.6-0.5,0.9-0.8c0.3-0.2,0.5-0.5,0.8-0.7c0.3-0.2,0.6-0.5,0.8-0.7c0.3-0.2,0.6-0.5,0.9-0.7
	c0.3-0.2,0.5-0.4,0.8-0.6c0.4-0.3,0.8-0.5,1.2-0.7c0.2-0.1,0.4-0.3,0.7-0.4c0.6-0.4,1.3-0.7,2-1c0.3-0.2,0.7-0.4,1.1-0.4
	c0.2,0,0.4,0,0.6,0c0,0,0,0,0,0c2.2-2,4.3-4.1,6.4-6.3c0.5-0.5,1-1,1.6-1.5c0,0,0-0.1-0.1-0.1c0-0.1,0-0.1-0.1-0.2
	c-0.1-0.1-0.1-0.2-0.3-0.3c-0.6-0.6-0.2-1.3,0.2-1.9c0.4-0.4,0.9-0.7,1.6-1c0.1,0.6-0.4,0.9-0.5,1.2c-0.2,0.5-0.5,0.9,0,1.4
	c0,0,0,0,0,0c0.9-0.7,1.8-1.4,2.8-2.1c0.3-0.2,0.6-0.4,0.9-0.7c1.1-0.8,2.2-1.6,3.3-2.4c0,0,0,0,0,0c0.4-0.3,0.9-0.6,1.3-0.9
	c0.1-0.1,0.3-0.2,0.4-0.3c0.4-0.3,0.8-0.5,1.2-0.7c0.2-0.1,0.4-0.2,0.5-0.3c4-3.3,8.8-5.2,13.4-8.3c1.7-1.3,3.5-2.5,5.3-3.6
	c0-0.1-0.1-0.3-0.1-0.4c-0.4,0.4-0.9,0.7-1.3,1.1c-0.5,0.3-1,0.8-1.5,0.1c-0.4-0.5,0.1-1,0.5-1.2c1.6-0.9,3-2,4.8-2.7
	c-0.1,0.9-0.9,1.1-1.1,1.8c1-0.2,1.6-1.1,2.5-1.4c0.1,0.1,0.1,0.2,0.2,0.3c0,0,0,0,0,0c0,0.1,0,0.2,0,0.2c1.3-0.7,2.7-1.4,4.1-2.1
	c0,0,0.1-0.1,0.1-0.1c0.8-0.9,1.8-1.6,2.9-2c0.1,0.1,0.2,0.2,0.3,0.3c-0.1,0.1-0.1,0.2-0.2,0.3c1.3-0.7,2.6-1.3,4-1.9
	c-0.1,0-0.2,0-0.2,0.1c-0.4,0.1-0.7-0.1-0.8-0.5c-0.1-0.4,0.1-0.6,0.5-0.7c0.6-0.1,1.2-0.4,1.9-0.2c0,0.1-0.1,0.2-0.1,0.3
	c0,0,0,0.1,0,0.1c0,0.1-0.1,0.1-0.1,0.2c0,0,0,0-0.1,0.1c-0.1,0.1-0.1,0.1-0.2,0.2c0,0,0,0,0,0c-0.1,0.1-0.1,0.1-0.2,0.2
	c0,0,0,0,0,0c2.5-1.1,5-2.1,7.6-3c0,0,0.1-0.1,0.1-0.1c0.1-0.1,0.1-0.1,0.2-0.2c0.1-0.1,0.1-0.1,0.2-0.2c0.1-0.1,0.1-0.1,0.2-0.2
	c0.1-0.1,0.1-0.1,0.2-0.1c0,0,0.1-0.1,0.1-0.1c0.1-0.1,0.2-0.1,0.3-0.1c0.1,0,0.2,0,0.3,0c0,0,0.1,0,0.1,0c0.1,0,0.1,0,0.1,0.1
	c0,0,0.1,0,0.1,0.1c0,0,0.1,0.1,0.1,0.1c0,0,0,0.1,0.1,0.1c0,0,0,0,0,0c2.6-0.8,5.3-1.4,8-1.9c-0.1-0.1-0.1-0.1-0.2-0.2
	c-0.1-0.1-0.3-0.2-0.4-0.4c-0.1-0.1-0.2-0.1-0.3-0.2c-0.1-0.1-0.3-0.2-0.5-0.3c-0.1-0.1-0.3-0.1-0.5-0.2c-0.1,0-0.3-0.1-0.4-0.1
	c-0.3-0.1-0.7-0.1-1.1-0.2c-1.9-0.1-3.8-0.2-5.7-0.4c-4.6-0.4-9.2,0.1-13.6,1.4c-4.9,1.4-9.9,2.5-14.8,3.7
	c-9.3,2.2-18.5,4.7-27.4,8.3c-2.7,1.1-5.6,1.8-8.2,3c-3.4,1.6-6.9,2.9-10.2,4.7c-2.8,1.4-5.5,2.9-8.2,4.4c-4.3,2.5-8.6,5.2-12.9,7.8
	c-3.2,2-6.6,3.9-9.9,5.7c-4.9,2.7-9.8,5.4-14.8,8c-5.6,3-11.6,5.2-17.4,7.8c-7.4,3.4-14.7,7-22,10.6c-1.8,0.9-3.5,2.3-5.3,3.1
	c-5.6,2.3-10.8,5.5-16,8.6c-4.3,2.5-8.4,5.2-12.6,7.7c-5.1,3-10.2,6.1-15.5,8.6c-5.5,2.6-11.2,5-16.7,7.6c-4.9,2.3-9.8,4.6-14.7,6.9
	c-0.7,0.3-1.4,0.7-2.1,1c-2.8,1.3-5.4,3.1-8.2,4.5c-1.4,0.7-2.6,1.6-3.7,2.7c-0.2,0.2-0.4,0.3-0.4,0.6c-0.2,1.6,1.1,2.9,2.7,2.6
	c0.6-0.1,1.2-0.2,1.7,0.1c1.3,0.6,2,0,2.7-0.9c0.2-0.3,0.5-0.6,0.4-1c0-0.5,0.3-0.7,0.7-0.7c1.1-0.1,1.9-0.7,2.7-1.2
	c0.6-0.4,1.3-0.7,2-0.6c0.6,0.1,0.4,1,1.1,1.2c0.6-0.2,0.9-0.7,1.3-1.1c0.9-0.9,2-1.7,3.4-1.2c0.7,0.2,0.9-0.3,1.2-0.6
	c0.7-0.8,1.5-1.5,2.5-2c0.7-0.3,1.5-0.5,1.9,0.2c0.6,0.9,1.2,0.4,1.8,0.2c0.5-0.2,1-0.6,1.5-0.8c0.4-0.2,0.5,0.1,0.5,0.5
	c0.2,0,0.6,0,0.7,0.1c0.3,1,0.7,0.7,1.2,0.2c0.2-0.2,0.4-0.3,0.6-0.4c0.3-0.1,0.5,0,0.6,0.3c0.2,0.9-1.4,2.5-2.1,2.1
	c-0.7-0.4-0.9,0-1.2,0.3c-0.1,0.1-0.3,0.3-0.4,0.4c0,0,0,0,0,0C62.6,119,65.8,119.4,69.1,119.5z M251.6,15.5
	c1.5-0.8,4.2-0.3,5.2,1.1c1,1.2,1.1,2.4,0.2,3.7c-1.3,1.9-2.9,3.2-5,3.3c-1.9-0.1-2.8-0.8-3.1-2.4C248.5,19,249.7,16.5,251.6,15.5z
	 M86.5,106.5c0.5,0,1.2,0.1,1.2,0.7c0.1,0.8-0.7,0.8-1.2,0.9c-0.5,0.1-1-0.2-1.1-0.7C85.5,106.7,86,106.5,86.5,106.5z M81.8,113.5
	c0.2-0.2,0.3-0.4,0.5-0.5c0.4-0.3,0.6-0.9,1.3-1c0.2,1.4,0,2.1-0.9,2.5c-0.4,0.2-0.7,0.2-1-0.2C81.6,114.1,81.5,113.8,81.8,113.5z
	 M78.8,114.3c0.6-0.6,1.2-1.3,2.5-1.2c-0.4,0.9-0.7,1.6-1.1,2.2c-0.3,0.5-0.8,0.6-1.3,0.3C78.5,115.3,78.4,114.7,78.8,114.3z
	 M65.9,117.1c0.3-0.2,0.7-0.3,1.1,0c0.1,0.1,0.1,0.4,0.1,0.5c-0.1,0.6-1,1.1-1.6,0.9c-0.3-0.1-0.4-0.2-0.4-0.6
	C65,117.4,65.5,117.3,65.9,117.1z"/>
<path class="st4" d="M143.7,98.8C143.8,98.8,143.8,98.8,143.7,98.8c0.1-0.3,0.2-0.5,0.3-0.7c0,0,0,0,0,0c0.1-0.1,0.1-0.2,0.2-0.3
	c0-0.1,0.1-0.1,0.1-0.2c0-0.1,0.1-0.1,0.1-0.2c0.1-0.2,0.2-0.4,0.2-0.6c-0.6-0.2-0.6,0.3-0.8,0.5c-0.6,0.7-1.1,1.3-1.7,2
	c0.5,0,1,0,1.5,0.1c0,0,0,0,0,0C143.6,99.2,143.7,99,143.7,98.8z"/>
<path class="st4" d="M57.5,119.1c-0.1,0-0.1,0-0.2,0c0,0-0.1,0-0.1,0c-0.1,0-0.1,0-0.2,0c0,0,0,0,0,0
	C57.2,119.1,57.3,119.1,57.5,119.1C57.5,119.1,57.5,119.1,57.5,119.1z"/>
<path class="st4" d="M53.7,119.5C53.7,119.4,53.7,119.4,53.7,119.5c0-0.1,0-0.1,0.1-0.2c0,0,0-0.1,0-0.1c0-0.1,0.1-0.1,0.1-0.2
	c0,0,0,0,0,0c0-0.1,0.1-0.2,0.1-0.3c0,0,0,0,0-0.1c0-0.1,0.1-0.1,0.1-0.2c0,0,0-0.1,0-0.1c0-0.1,0-0.1,0-0.2c0,0,0-0.1,0-0.1
	c0-0.1,0-0.1,0-0.2c0,0,0-0.1,0-0.1c0-0.1,0-0.2,0-0.3c-0.2,0.1-0.3,0.1-0.5,0.2c0,0-0.1,0.1-0.1,0.1c-0.1,0.1-0.2,0.1-0.3,0.2
	c0,0-0.1,0.1-0.1,0.1c-0.1,0.1-0.1,0.1-0.2,0.2c0,0-0.1,0.1-0.1,0.1c-0.1,0.1-0.1,0.2-0.2,0.2c0,0-0.1,0.1-0.1,0.1
	c-0.1,0.1-0.1,0.2-0.2,0.3c0,0,0,0,0,0c-0.1,0.2-0.2,0.4-0.4,0.6c0,0.1-0.1,0.1-0.1,0.2C52.5,119.6,53.1,119.5,53.7,119.5z"/>
<path class="st4" d="M97.2,103.5c0.2-0.3,0.3-0.6,0.3-1c-0.4,0.5-0.8,1-1.1,1.5c-0.1,0.2-0.2,0.3-0.3,0.5c-0.2,0.4-0.5,0.7-0.7,1.1
	c-0.1,0.2-0.2,0.4-0.3,0.5c-0.3,0.6-0.6,1.1-1,1.7c-0.1,0.2-0.2,0.4-0.3,0.6c0.3-0.2,0.6-0.4,0.9-0.6c0,0,0-0.1,0.1-0.1
	C95.5,106.3,96.4,104.9,97.2,103.5z"/>
<path class="st4" d="M120.5,98.6c0.1-0.2,0.2-0.3,0.2-0.5c0.1-0.3,0.2-0.5,0.4-0.8c0.1-0.2,0.2-0.3,0.3-0.5c0.1-0.2,0.3-0.5,0.4-0.7
	c0.2-0.4,0.4-0.8,0.7-1.2c0.6-1,1.2-2.1,1.7-3.7c-1,0.8-1.7,1.2-2.2,1.9c-0.8,1-1.5,2-2.2,3c-0.1,0.1-0.2,0.3-0.3,0.4
	c-0.3,0.4-0.6,0.8-0.8,1.2c-0.1,0.2-0.3,0.4-0.4,0.6c-0.2,0.4-0.5,0.8-0.7,1.2c-0.1,0.2-0.2,0.4-0.3,0.6c1-0.1,1.9-0.3,2.9-0.4
	c0.1-0.1,0.1-0.3,0.2-0.4C120.2,99.1,120.3,98.8,120.5,98.6z"/>
<path class="st4" d="M153.1,101.3c-0.2,0.6-0.5,1.1-0.5,2.2c1.1-1.6,1.9-3,2.6-4.5c0.4-0.9,0.8-1.9,1.2-2.8c0-0.1,0-0.1,0.1-0.2
	c-0.6,0.5-1.2,1-1.9,1.5c-0.1,0.2-0.1,0.3-0.2,0.5C154,99.2,153.6,100.2,153.1,101.3z"/>
<path class="st4" d="M115.3,99.1c0-0.1,0-0.1,0-0.2c0-0.2,0.1-0.3,0.1-0.5c-0.2,0.2-0.3,0.3-0.5,0.5c-0.1,0.1-0.1,0.1-0.1,0.2
	c-0.1,0.1-0.2,0.2-0.3,0.4c-0.1,0.1-0.1,0.1-0.2,0.2c-0.1,0.1-0.2,0.2-0.2,0.3c-0.1,0.1-0.1,0.2-0.1,0.2c-0.1,0.1-0.1,0.2-0.2,0.3
	c0,0,0,0,0,0.1c0.3-0.1,0.7-0.1,1-0.2c0.1-0.3,0.3-0.7,0.4-1C115.2,99.3,115.2,99.2,115.3,99.1z"/>
<path class="st4" d="M106.8,102C106.8,102,106.8,102,106.8,102c0-0.2,0-0.3,0-0.5c-0.4,0.4-0.8,0.8-1.2,1.2c0.4-0.1,0.8-0.3,1.2-0.4
	c0,0,0,0,0,0C106.8,102.2,106.8,102.1,106.8,102z"/>
<path class="st4" d="M225.1,47.7c0.1,0,0.2-0.1,0.3-0.1c0.1,0,0.1-0.1,0.2-0.1c0.1,0,0.2-0.1,0.2-0.2c0.1,0,0.1-0.1,0.2-0.1
	c0.1-0.1,0.2-0.1,0.2-0.2c0.1,0,0.1-0.1,0.2-0.1c0.1-0.1,0.1-0.1,0.2-0.2c0,0,0.1-0.1,0.1-0.1c0.1-0.1,0.2-0.2,0.2-0.3
	c0,0,0.1-0.1,0.1-0.1c0.1-0.1,0.2-0.3,0.3-0.4c1.3-1.6,2.8-3,4.3-4.3c0.1-0.1,0.2-0.2,0.3-0.3c0,0,0,0,0.1-0.1
	c0.1-0.1,0.2-0.2,0.2-0.3l0,0c0.1-0.1,0.1-0.2,0.1-0.3c0,0,0,0,0-0.1c0-0.1,0-0.2,0-0.3l0,0c-0.5,0.5-1.1,1-1.6,1.5
	c-2.1,2.2-4.2,4.3-6.4,6.3c0.2,0,0.3-0.1,0.5-0.1C225,47.7,225.1,47.7,225.1,47.7z"/>
<path class="st4" d="M113,97.7c-0.7,0.4-1.1,0.9-1.5,1.5c-0.4,0.7-0.9,1.4-1.3,2.1c0.4-0.1,0.8-0.2,1.2-0.3c0.4-0.6,0.8-1.3,1.2-1.9
	C112.7,98.8,113.2,98.5,113,97.7z"/>
<path class="st4" d="M126.1,98.6c0.1-0.3,0.2-0.5,0.3-0.8c0.5-1.1,1.1-2.2,1.6-3.3c0.3-0.6,0.7-1.2,0.8-2.1c-1,0.3-1.6,1-2.2,1.6
	c-0.4,0.5-0.8,0.9-1.1,1.4c-0.1,0.2-0.3,0.3-0.4,0.5c-0.2,0.3-0.5,0.6-0.7,1c-0.2,0.2-0.3,0.5-0.5,0.7c-0.3,0.4-0.5,0.8-0.8,1.2
	c-0.1,0.2-0.3,0.4-0.4,0.6c1.1-0.1,2.2-0.2,3.3-0.2c0-0.1,0.1-0.2,0.1-0.3C126,98.8,126,98.7,126.1,98.6z"/>
<path class="st4" d="M174.8,81.8c0.2-0.3,0.4-0.6,0.6-1c0-0.1,0.1-0.1,0.1-0.2c0.2-0.3,0.3-0.6,0.5-0.9c-0.4,0.2-0.8,0.5-1.2,0.7
	c0,0.1,0,0.3,0,0.4C174.8,81.1,174.8,81.4,174.8,81.8z"/>
<path class="st4" d="M157.7,96.9C157.7,96.9,157.6,96.9,157.7,96.9c-0.3,0.9-0.5,1.8-0.8,2.7c-0.4,1.4-0.8,2.8-0.5,4.4
	c0.8-0.4,1-1.1,1.3-1.7c0.4-0.9,0.8-1.7,1.2-2.6c0.1-0.2,0.1-0.3,0.2-0.5c0.4-0.9,0.8-1.8,1.2-2.7c0.1-0.1,0.1-0.3,0.2-0.4
	c0.4-0.9,0.8-1.8,1.2-2.8c0-0.1,0-0.1,0.1-0.2c0.4-0.9,0.7-1.9,1-2.8c0,0,0-0.1,0-0.1c-1.5,1.4-2.9,2.8-4.4,4.2v0
	C158.2,95.2,157.9,96,157.7,96.9z"/>
<path class="st4" d="M101.4,103.7c0-0.1,0-0.2,0-0.3c0-0.1,0-0.2,0-0.3c0-0.1,0-0.3,0-0.4c0-0.1,0-0.2,0-0.3c0-0.2,0.1-0.4,0.2-0.7
	c-0.9-0.2-1.2,0.4-1.5,0.8c-0.4,0.6-0.9,1.2-1.3,1.9c-0.4,0.6-0.9,1.2-1.3,1.8c1.3-0.7,2.7-1.4,4.1-2c0-0.1,0-0.1,0-0.2
	C101.4,104,101.4,103.8,101.4,103.7z"/>
<path class="st4" d="M218.2,52.8C218.2,52.8,218.2,52.8,218.2,52.8c-0.6,0.5-1.1,0.9-1.6,1.4c0,0-0.1,0.1-0.1,0.1
	c-0.5,0.5-1,0.9-1.5,1.4l0,0c2.3-1.7,4.5-3.5,6.6-5.3c0,0,0,0,0,0C220.4,51.1,219.3,51.9,218.2,52.8z"/>
<path class="st4" d="M176.1,82.4c1-0.7,1.2-1.1,2-2.7c0.3-0.6,0.5-1.1,0.8-1.7c0,0,0,0,0-0.1c-0.5,0.3-1,0.6-1.5,0.9
	c-0.1,0.2-0.2,0.5-0.3,0.7C176.7,80.4,176.4,81.3,176.1,82.4z"/>
<path class="st1" d="M59.2,117.3c0.6-0.2,0.8-0.7,0.9-1.2C59.8,116.5,59.3,116.7,59.2,117.3z"/>
<path class="st1" d="M94.4,105.4c0.3-0.6,1-0.9,1.1-1.7C94.6,104,94.5,104.7,94.4,105.4z"/>
<path class="st3" d="M134.8,44.3c-1.1-0.6-2-1.3-3.4-1.1C132.5,44,133.3,44.9,134.8,44.3z"/>
<path class="st1" d="M123.1,96.7c-0.3-0.1-0.4,0.2-0.5,0.4c-0.1,0.1-0.1,0.3,0.1,0.3c0.3,0,0.4-0.2,0.5-0.4
	C123.2,96.8,123.2,96.7,123.1,96.7z"/>
<path class="st1" d="M102.8,102.8c0,0.2,0,0.3,0.2,0.4c0.2,0,0.3-0.2,0.3-0.3c0-0.2-0.1-0.5-0.1-0.5
	C103,102.3,102.9,102.6,102.8,102.8z"/>
<path class="st3" d="M222.8,124.9c-3,1-6.2,1.5-9.3,2.1c-0.6,0.1-0.9,0.4-1.1,1.1c-0.8,4.8-1.5,9.7-2.4,14.5
	c-0.8,4.1,4.4,1.3,5.6,0.2c2.3-2,4-5.1,5.5-7.8c1.4-2.7,2.4-5.6,2.7-8.7C224,125,223.7,124.6,222.8,124.9z"/>
<path class="st3" d="M110.5,45c-0.4,0.3-0.6,0.8-0.8,1.3C110.6,45.7,110.9,45.2,110.5,45z"/>
<path class="st2" d="M295.4,3.9c-1.2-0.4-2.5-0.6-3.8-0.7c-2.4-0.1-4.7-0.1-7.1-0.2c-3.7-0.3-7.2,0.2-10.8,1.2
	c-5.2,1.4-10.5,2.8-15.7,4c-3.7,0.9-7.4,1.8-11.1,2.8c-7.7,2.2-15.1,5.2-22.5,7.9c-5.7,2.1-11.1,4.8-16.4,7.6
	c-5.3,2.9-10.4,6.1-15.6,9.2c-7.5,4.5-15.2,8.8-23,12.9c-3.2,1.7-6.2,3.4-9.7,4.4c-1.9,0.5-3.7,0.6-5.6-0.1
	c-3.1-1.1-5.9-2.7-8.5-4.6c-3.8-2.8-8-4.7-12.3-6.4c-3.9-1.5-8-2-12.2-2.1c-2.8-0.1-5.6,0-8.4-0.2c-2.2-0.2-4.4-0.1-6.6,0
	c-2.3,0.1-4.6,0.8-6.8,1.7c-0.8,0.3-0.8,0.9-0.4,1.6c1.1,2,2.4,3.8,4.4,4.9c3.8,2,7.3,4.4,10.7,6.9c1.3,0.9,2.5,2,3.5,3.2
	c0.9,1.1,1.7,2.2,2.6,3.3c1.8,2.2,2.7,4.8,3.5,7.4c0.3,1,0.1,1.8-1.1,2.3c-0.8,0.3-1.5,0.9-2.3,1.3c-4.1,2.2-8.3,4.2-12.3,6.6
	c-0.5,0.3-1.1,0.8-1.7,0.8c-1.1,0-2.1,0.5-3.1,0.8c-1.7,0.5-3.5,0.9-5.2-0.1c-1.4-0.9-3-1.1-4.5-1.7c-0.5-0.2-1.1-0.3-1.6,0.1
	c-0.6,0.5-0.5,1.2-0.2,1.8c0.5,1.2,1.1,2.4,1.5,3.7c0.3,1,1.4,1.8,1.1,2.7c-0.4,1-1.6,1.3-2.6,1.9c-6.9,4.1-14,7.9-21.3,11.2
	c-10,4.5-20,9.3-29.9,14c-1.8,0.8-2,0.7-2.6-1.1c-0.2-0.5-0.3-1-0.4-1.5c-0.3-1.1-0.6-2.1-1.3-3C30,99.8,17.9,90.2,6.6,95
	c0,0,0,0,0,0c-4.5,1.9,1,6.4,2.6,8.6c3.7,4.7,7.4,9.4,10.7,14.4c1.1,1.7,2.2,3.3,3,5.1c0.4,0.9,0.6,1.7,0.3,2.6
	c-1.2,3.6-2.1,7.2-3.7,10.6c-3.2,6.8-6.8,13.4-10.4,20c-2.2,4,8.2,1.3,9.9,0.6c3.5-1.6,7.3-4.1,10.2-6.6c2.9-2.5,5.3-5.4,7.3-8.7
	c2.5-4.3,4.8-8.5,5.2-13.7c0.3,0.1,0.6,0.2,0.8,0.3c6.9,2.8,13.9,5,21.2,6.2c5.3,0.9,10.5,2,15.9,2.4c2.8,0.2,5.7,0.7,8.6,0.7
	c9.6,0.1,19.1,0,28.7-0.1c4.3,0,8.7-0.3,13-0.4c2.9-0.1,5.8-0.4,8.8-0.6c7.5-0.5,15-1.2,22.4-2.5c1.2-0.2,2.3-0.3,3.6-0.5
	c0.1,1-0.1,1.8-0.3,2.6c-0.4,1.9-1,3.8-1.7,5.7c-2.1,5.5-4.7,10.7-8.9,14.8c-4.8,4.7-9.8,9.2-15.5,12.7c-1.4,0.9-2.9,1.7-3.8,3.1
	c-0.9,1.2-0.9,1.9,0,3.1c1.4,1.9,4.2,2.7,6.3,1.8c2-0.8,4.1-1.3,6.2-2c17.5-5.5,31.4-15.3,39.4-30.6c0.2-0.3,0.4-0.6,0.5-0.9
	c0.1-0.2,0.2-0.4,0.2-0.6c1.5-3.2,2.8-6.5,3.9-10.1c0.9-3.3,7.4-3.1,10.5-3.7c2.5-0.5,5-1.1,7.5-1.5c1.7-0.3,1.8-0.2,1.8,1.5
	c0,0.2,0,0.4,0,0.6c-0.7,6.6-1.3,13.2-4.7,19.1c-0.5,0.9-0.3,1.5,0.8,1.7c0.5,0.1,1,0.1,1.5,0c2.7-0.6,5.1-1.7,7.1-3.6
	c3.2-3,5.5-6.7,7.5-10.6c1.6-3.2,2.5-6.7,2.7-10.3c0.1-1.6,0.9-2.2,2.2-2.7c2.7-0.9,5.4-1.8,8.1-2.8c2.7-1,5.3-2.2,7.8-3.7
	c2.9-1.8,5.8-3.4,8.9-4.8c2.1-0.9,4.1-1.9,6-3.2c0.3-0.2,0.7-0.4,1-0.5c2.9-1.3,5.4-3.2,7.9-4.9c2.6-1.8,5-3.8,7.6-5.5
	c3.7-2.4,8.7-6.7,10.3-10.9c0.9-2.3,0.4-5.9,0.1-8.3c-0.1-0.5-0.1-1.1-0.8-1.1c-0.5,0-0.7,0.4-0.9,0.8c-1,1.8-2.2,3.4-3.5,5
	c-0.3,0.4-0.5,0.9-1.3,0.7c-0.3-0.9-0.2-1.7-0.1-2.6c0.1-1.1,0-2.2-0.1-3.2c-0.1-0.5-0.3-0.9-0.8-1c-0.5-0.1-0.8,0.2-1,0.7
	c-1,2.2-2.6,3.9-4.1,5.7c-0.3,0.4-0.7,0.9-1.4,0.8c-0.3-2-0.9-4.1-0.4-6.1c0.2-0.9,0.4-1.8,0.4-2.6c0-0.3,0-0.6,0-0.9
	c1.9-2.2,2.8-5.2,4.1-7.8c0.6-1.1,1.1-2.2,1.6-3.4c0.5-0.8,0.9-1.6,1.4-2.4c1.7-2.4,3-5,4.1-7.6c0.3-0.2,0.5-0.4,0.8-0.6
	c0.1-0.1,0.2-0.2,0.3-0.3c0,0,0,0,0.1-0.1c1.2-2,2.8-3.9,4.2-5.8c2.3-3.3,3.5-7.2,5.2-10.8c2.1-4.5,2.9-9.5,3.7-14.4
	c0.4-2.7,0.6-5.4,1-8.1c0.3-2.4,0.2-4.7-0.1-7C297.3,5.1,296.6,4.3,295.4,3.9z M109.7,46.2c0.2-0.5,0.3-1,0.8-1.3
	C110.9,45.2,110.6,45.7,109.7,46.2z M10.4,96.6c-0.3,0-0.5-0.3-0.6-0.6c-0.1-0.4,0.2-0.5,0.4-0.7c0.5,0,0.5,0.3,0.5,0.6
	C10.8,96.3,10.9,96.6,10.4,96.6z M12.7,97.2c-0.7-0.7-0.6-1.4-0.4-2.3C13.2,95.7,12.7,96.5,12.7,97.2z M18.3,141.7
	c0.4-1.3,1-2.1,1.7-2.9C19.8,139.9,19.9,141.1,18.3,141.7z M17.8,103.9c0.4,0.8,0.5,1.3,0.5,1.8C17.7,105.3,17.7,105.3,17.8,103.9z
	 M19.8,105.9c-0.7-1.5-0.6-2.8-0.7-4.1C19.7,103,20.1,104.2,19.8,105.9z M19.9,107.4c-0.2-0.3-0.4-0.6,0-1c0.3,0.3,0.3,0.6,0.3,1
	C20.1,107.4,19.9,107.5,19.9,107.4z M21.1,103.9c-0.3-1.8-0.6-3.5-0.9-5.3c0.1,0,0.3-0.1,0.4-0.1c0.8,1.7,0.5,3.5,0.9,5.3
	C21.3,103.9,21.2,103.9,21.1,103.9z M21.8,111.4c1.1,0.6,0.9,1.7,1.4,2.9C21.8,113.5,21.3,112.7,21.8,111.4z M23.2,100.3
	c-0.4,0-0.8,0-0.8-0.5c0-0.3,0.2-0.5,0.5-0.4c0.4,0.1,0.7,0.3,0.7,0.7C23.7,100.2,23.4,100.2,23.2,100.3z M24,108.6
	c0.1,0,0.3,0,0.4,0c0.3,1.3,0.6,2.7,0.8,4C24.1,111.5,24.2,110,24,108.6z M27.5,115.9c-0.7-2.6-1.4-5.3-2.2-8.1
	C26.9,109.1,28,113,27.5,115.9z M30.3,120.6c-0.2,0.1-0.4,0.3-0.7,0.1c-0.1-0.1-0.1-0.2-0.1-0.3c-0.1-0.4,0.1-0.5,0.5-0.6
	c0.4,0,0.7-0.2,1.2-0.3C31,120.1,30.7,120.4,30.3,120.6z M31.1,114.8c-0.5-1-0.8-1.8-0.7-3C31.3,112.8,31.6,113.5,31.1,114.8z
	 M151.3,55.8c0.2,0,0.4,0.1,0.2,0.3c-0.3,0.3-0.6,0.4-1,0.3c-0.1,0-0.1-0.2-0.2-0.3C150.5,55.7,151,55.9,151.3,55.8z M146,50.5
	c-1.5-0.2-2.1-0.6-3.1-1.9C144.1,48.9,144.8,49.8,146,50.5z M141.9,54c-0.4,0.4-0.8,0.2-1.4,0C141.1,53.5,141.5,53.5,141.9,54z
	 M142,55.5c-0.5,0.1-0.9,0.3-1.3,0.1C141,55.1,141.5,55.5,142,55.5z M134.8,44.3c-1.6,0.5-2.3-0.4-3.4-1.1
	C132.9,43,133.7,43.7,134.8,44.3z M136.9,52.6c-0.8,1.2-0.8,1.2-2.7,1.6C135.2,53.6,135.9,53.2,136.9,52.6z M127,52.8
	c1.3-2.3,3-4.3,4.9-6.1C130.8,49.1,128.7,50.8,127,52.8z M129.6,53.5c0,0.2-0.2,0.3-0.3,0.4c-0.1,0.1-0.2,0.1-0.3-0.1
	c0.1-0.1,0.2-0.3,0.3-0.4C129.5,53.3,129.7,53.4,129.6,53.5z M133.4,57.3c-1.1,1.2-2.2,1.8-3.5,2.3C131,58.8,131.8,57.8,133.4,57.3z
	 M131.1,45.2c-0.8,1.6-2.1,2.6-3.2,3.9C128.6,47.5,129.5,46.1,131.1,45.2z M125.7,46.3c0.6-1.2,1.6-2.1,2.7-3.2
	C128,44.3,127,45.5,125.7,46.3z M126.9,49.8c-0.2,1.4-1,2.4-3.1,3.9C124.8,52.5,125.8,51.2,126.9,49.8z M124.1,48.6
	c0.1-0.9,0.9-1.5,1.4-2.2C125.5,47.4,124.9,48,124.1,48.6z M124.4,41.5c0.2,0,0.4,0.1,0.3,0.3c-0.1,0.3-0.2,0.6-0.5,0.6
	c0,0-0.2-0.2-0.2-0.3C124,41.9,123.9,41.5,124.4,41.5z M120.1,41.4c0.1-0.4,0.5-0.2,0.8-0.3c0.3,0.1,0.7,0.1,1,0.2
	c0.2,0,0.5,0,0.6,0.3c0.1,0.3-0.2,0.4-0.4,0.6c-0.2,0.2-0.5,0.4-0.8,0c-0.1-0.2-0.2-0.4-0.5-0.5C120.5,41.8,119.9,42.2,120.1,41.4z
	 M115.8,50.3c0.2-0.3,0.3-0.5,0.5-0.8c0.1-0.2,0.3-0.4,0.8-0.4C116.8,49.7,116.6,50.2,115.8,50.3z M117.1,51.6
	c0.6-1,0.8-1.9,1.7-2.2C118.6,50.6,118.6,50.6,117.1,51.6z M119.3,52.1c-0.1-1,0.4-1.4,0.8-1.8c2.2-2.5,4.2-5.1,5.9-7.9
	c0.4-0.6,0.7-0.6,1.5-0.3C124.6,45.3,122.3,48.8,119.3,52.1z M123.6,63.6c0.9,0.8,1.4,1.2,1.3,2.4C124.2,65.2,123.9,64.6,123.6,63.6
	z M32.3,126.4c-0.2-0.1-0.4-0.5-0.3-0.6c0.2-0.3,0.5-0.2,0.8,0c0.2,0.2,0.5,0.4,0.6,0.8C32.9,126.7,32.6,126.6,32.3,126.4z
	 M34.1,137c-0.1-1.1,0.3-2.1,1-3.5C34.9,135,34.6,136,34.1,137z M173.4,154c-4.9,4.7-10.3,8.9-16.1,12.4c-5.6,3.4-12.1,4.7-17.7,7.9
	c-0.6,0.3-1.2,0.7-1.8,0.8c-1.4,0.2-2.9-1.3-1.8-2.5c0.5-0.5,1-1,1.6-1.4c3.9-2.6,7.7-5.2,11.2-8.3c2.7-2.4,5.6-4.6,7.9-7.5
	c4.5-5.8,7.5-12.4,9.1-19.6c0.6-2.9,1.1-5.8,1.1-8.7c0-0.8,0.3-1.3,1-1.4c3.5-0.5,6.9-1.8,11.3-1.3c0.7,0.1,2.2,0.1,3.7-0.2
	c1-0.2,1.4,0.2,1.7,1C188.6,136,181,146.8,173.4,154z M223.8,126.2c-0.4,3.1-1.3,6-2.7,8.7c-1.4,2.7-3.1,5.8-5.5,7.8
	c-1.2,1.1-6.4,3.9-5.6-0.2c0.9-4.8,1.7-9.6,2.4-14.5c0.1-0.7,0.4-1,1.1-1.1c3.1-0.6,6.3-1.1,9.3-2.1
	C223.7,124.6,224,125,223.8,126.2z M283.7,80.8c0.3,1.5,0.4,2.7,0,3.9c-0.8-0.3-1.5-0.6-2.4-0.9C282.1,82.9,282.7,82,283.7,80.8z
	 M276.7,80.7c0.6,1.3,0.2,2.3,0.3,3.2c0,0.4-0.2,0.6-0.6,0.6c-0.6,0-1.1,0.1-1.9-0.2C274.9,82.9,276.1,82.2,276.7,80.7z M271.4,34.3
	c-0.3,0.4-0.6,0.8-0.9,1.2c-0.3,0.4-0.7,0.9-1,1.3c-0.1,0.1-0.2,0.2-0.3,0.3c0,0.1-0.1,0.1-0.1,0.2c-0.1,0.2-0.3,0.4-0.4,0.5
	c-0.2,0.3-0.6,0.2-0.7-0.1c-0.1-0.2-0.1-0.5-0.1-0.7c0-0.2-0.1-0.5-0.1-0.7c-0.2-1.5-0.3-3-0.3-4.5c0-0.4,0.4-0.4,0.6-0.3
	c0.1,0,0.2,0,0.3-0.1c0,0,0.1,0,0.1,0c0.1,0,0.1,0,0.2-0.1c0,0,0,0,0.1,0c0.1,0,0.1,0,0.2-0.1c0,0,0,0,0.1,0c0.1,0,0.2-0.1,0.3-0.1
	l0,0c0.5-0.2,1-0.3,1.5-0.5h0c0.2-0.1,0.4-0.1,0.6-0.2c0,0,0,0,0.1,0c0.1,0,0.2,0,0.3-0.1c0,0,0.1,0,0.1,0c0.1,0,0.2,0,0.3,0
	c0.2,0,0.4,0.1,0.5,0.3C272.9,32,272.1,33.3,271.4,34.3z M264.1,83.5c1.8-2,2.8-4.8,5.3-6.7c0.3,2.6-0.6,5,0.3,7.4
	c-1.8,0.5-3.5,0.1-5.1,0.1C264,84.3,263.6,84,264.1,83.5z M263.9,37.7c0,0.2-0.1,0.3-0.1,0.5c0,0,0,0.1,0,0.1c0,0.2-0.1,0.4-0.1,0.6
	c0,0.1,0,0.1-0.1,0.2c0,0.2-0.1,0.4-0.2,0.5c0,0.1,0,0.2-0.1,0.2c0,0.1-0.1,0.2-0.1,0.3c-0.3,1.1-0.7,2.2-1.1,3.3
	c-0.1,0.4-0.6,0.3-0.7,0c-0.1-0.3-0.2-0.7-0.3-1c-0.1-0.5-0.2-0.9-0.3-1.4c-0.1-0.3-0.1-0.7-0.2-1c-0.2-1.1-0.4-2.2-0.6-3.4
	c-0.1-0.3,0.3-0.5,0.5-0.5c0,0,0.1-0.1,0.1-0.1c0.7-0.7,1.6-0.9,2.5-1.4c0,0,0,0,0,0c0.1-0.1,0.2-0.1,0.4-0.2c0,0,0.1,0,0.1,0
	c0,0,0,0,0,0c0,0,0.1,0,0.1,0c0,0,0,0,0,0c0,0,0,0,0.1,0c0,0,0,0,0,0c0,0,0,0,0.1,0c0,0,0,0,0,0c0,0,0,0,0.1,0c0,0,0,0,0,0
	c0.1,0.1,0.1,0.2,0.1,0.3c0,0.6,0,1.2,0,1.7c0,0,0,0,0,0C264,37,263.9,37.3,263.9,37.7z M276.3,35.2c-0.3-0.7-0.4-1.5-0.4-2.3
	c0,0,0,0,0,0c0-0.2,0-0.4,0-0.5c0-0.1,0-0.2,0-0.3c0,0,0,0,0,0c0-0.1,0-0.2,0-0.3c0,0,0-0.1,0-0.1c0-0.1,0-0.1,0-0.2
	c0,0,0-0.1,0-0.1c0-0.1,0-0.1,0-0.2c0-0.1,0-0.1,0-0.2c0,0,0-0.1,0-0.1c0-0.1,0-0.2-0.1-0.3c-0.1-0.3,0.2-0.5,0.4-0.5c0,0,0,0,0-0.1
	c0,0,0,0,0,0c0,0,0,0,0,0c0,0,0,0,0,0c0,0,0,0,0,0c0,0,0,0,0,0c0,0,0,0,0,0c0,0,0,0,0,0c0,0,0,0,0,0c0,0,0,0,0,0c0,0,0,0,0,0
	c0,0,0.1,0,0.1-0.1c0,0,0.1,0,0.1,0h3.3c0.3,0,0.4,0.3,0.3,0.6c0,0,0,0,0,0c-0.9,1.7-1.9,3.4-3,4.9
	C276.8,35.6,276.4,35.5,276.3,35.2z M281,51.4C281,51.4,281,51.4,281,51.4C281,51.4,281,51.4,281,51.4c0,0.1,0,0.1,0,0.1
	c0,0,0,0,0,0c0,0,0,0,0,0c-0.1,0.1-0.1,0.1-0.2,0.2c-0.2,0-0.4,0.1-0.5,0.1c0,0,0,0,0,0c-0.2,0.1-0.5,0.1-0.7,0.2c0,0,0,0,0,0
	c-0.1,0-0.3,0.1-0.4,0.1c-0.2,0-0.3,0.1-0.5,0.1c0,0-0.1,0-0.1,0c0,0,0,0-0.1,0c-0.3,0-0.4-0.3-0.3-0.6c0.1-0.2,0.2-0.4,0.3-0.6
	c0-0.1,0.1-0.1,0.1-0.2c0.1-0.2,0.2-0.4,0.3-0.6c0-0.1,0.1-0.1,0.1-0.2c0.1-0.1,0.1-0.3,0.2-0.4c0.1-0.3,0.3-0.6,0.4-0.9l0,0
	c0.1-0.3,0.3-0.5,0.4-0.8c0.2-0.4,0.7-0.1,0.7,0.2c0,0,0,0,0,0C280.9,49.2,280.9,50.3,281,51.4C281,51.3,281,51.4,281,51.4z
	 M281.2,44.2c0,0,0,0.1-0.1,0.1c0,0,0,0.1-0.1,0.1c-0.4,0.5-1.1,0.8-1.7,0.9c-0.2,0-0.4,0.1-0.6,0.1c-0.2,0-0.4-0.1-0.5-0.3
	c0,0,0,0,0,0c0,0,0,0,0-0.1c0,0,0,0,0,0c0,0,0-0.1,0-0.1c0.5-1.3,1.4-2.5,2.3-3.6c0-0.1,0-0.2,0-0.3c0,0,0,0,0,0h0
	c0-0.3,0.3-0.4,0.5-0.3c0,0,0.1,0,0.1,0c0,0,0,0,0,0c0,0,0,0,0.1,0.1c0,0,0,0,0,0c0,0,0,0.1,0,0.1c0,0,0,0,0,0c0,0,0,0.1,0,0.1
	c0.1,0.1,0.2,0.4,0,0.5c0,0,0,0,0,0C281.4,42.5,281.6,43.4,281.2,44.2z M281.8,36.7L281.8,36.7c0,0.1,0,0.1-0.1,0.2
	c0,0.1-0.1,0.2-0.1,0.3c-0.6,1-1.7,1.6-2.7,2.2c-0.3,0.2-0.7-0.2-0.5-0.5c0.2-0.3,0.4-0.6,0.5-1l0,0c0.1-0.2,0.2-0.4,0.3-0.6
	c0,0,0,0,0,0c0.1-0.2,0.2-0.4,0.3-0.6c0,0,0,0,0,0c0.1-0.2,0.1-0.3,0.2-0.5c0,0,0-0.1,0-0.1c0.1-0.2,0.1-0.4,0.2-0.6
	c0-0.1,0-0.1,0-0.2c0-0.1,0.1-0.3,0.2-0.4c0-0.2,0.1-0.3,0.1-0.5c0,0,0-0.1,0-0.1c0.1-0.1,0.2-0.2,0.3-0.2c0.2-0.2,0.5-0.2,0.6,0.1
	c0,0,0,0.1,0,0.1c0,0,0,0,0,0.1c0,0,0,0,0,0.1c0,0,0,0.1,0.1,0.1c0,0,0,0.1,0.1,0.1c0,0,0,0,0,0.1c0,0,0,0.1,0.1,0.1c0,0,0,0,0,0.1
	c0,0,0,0.1,0.1,0.1c0,0,0,0,0,0c0,0,0,0.1,0.1,0.1c0,0,0,0,0,0c0,0.1,0,0.1,0.1,0.2c0,0,0,0,0,0C281.8,35.8,281.9,36.3,281.8,36.7z
	 M295.4,18.9c-0.6,4.6-1.4,9.2-2.7,13.6c-0.3,0.9-0.6,1.8-1,2.7c-1.2,2.6-2.4,5.2-3.5,7.8c-1.2,2.7-3.4,4.6-4.8,7.1
	c-0.3,0.5-0.7,0.6-1.1,0.5c0-0.2,0.1-0.4,0.1-0.6c0.5-2.4,0.8-4.8,0.9-7.2c0-1.1,0.1-2.2,0-3.3c0.5-3.9,0.9-9.6-2.3-11.9
	c-1-0.7-2.2-1-3.4-1c-3.3,0-6.4,1.6-9.4,2.7c-4.7,1.8-9,4.5-12.8,7.8c-5,4.3-9.2,9.3-13.3,14.4c-2.1,2.5-3.9,5.3-5.5,8.1
	c-1.1,1.8-1.8,3.8-2,5.9c-0.3,3.2,0.1,6.2,2.6,8.6c1,0.9,1.6,2.1,2.6,3c1,0.9,2.3,1.7,3.5,2.2c4.7,1.8,9.2,3.9,14.1,5.2
	c4.1,1.1,8.2,1.5,12.5,1.6c1.8,0,3.7-0.1,5.5,0c0.3,0,0.7,0,1,0c1.4-0.3,2.8-0.3,4.2-0.6c0.1,0,0.3,0,0.3,0.1c0.1,0,0.2,0,0.2,0.1
	c0.1,0,0.1,0,0.2,0c1.3,0.2,1.7,0.9,1,2c-2.3,3.6-5.1,6.6-8.6,9.1c-3.4,2.4-6.8,4.7-10.2,7.1c-1.3,0.9-2.6,1.7-3.9,2.4
	c-3,1.5-6,3-9,4.6c-3.4,1.8-6.7,3.7-10,5.6c-1.4,0.8-3,1.4-4.5,2c-4.6,1.6-9.1,3.5-13.8,4.9c-3.2,0.9-6.5,1.5-9.7,2.1
	c-3.2,0.6-6.5,0.7-9.6,1.6c-2.5,0.7-5.1,1.1-7.6,1.7c-1.1,0.2-2.2,0.3-3.2,0.1c0.1-0.6,0.1-1.2,0-1.7c0.1-0.1,0.1-0.3,0.1-0.5
	c-0.3-2.3,0-4.6-0.9-6.8c-0.4-0.9-0.8-1.4-1.8-1.4c-3,0-6,0.2-8.8,1.3c-1.7,0.6-3.6,1-5.4,1.3c-4.1,0.7-8.2,1.8-12.3,2.7
	c-0.5,0.1-1.1,0.2-1,0.9c0.1,0.5,0.5,0.7,1,0.6c1-0.2,1.1,0.4,1.5,1.1c0.7,1.1,0.8,2.2,0.7,3.4c-0.1,0.8-0.4,1.1-1.2,1.5
	c-2.3,1-4.8,1.2-7.3,1.5c-6.4,0.9-12.8,1.5-19.2,2c-14.1,1.1-28.3,1.2-42.4,1.3c-7,0-14-0.3-21-1.3c-4.1-0.6-8.2-1.5-12.2-2.1
	c-6.8-1.1-13.3-3.3-19.7-6c-0.5-0.2-1.1-0.4-1.6-0.6c-0.5-0.2-1-0.5-1.6-0.8c0.6-0.8,1.3-1.2,2.2-1.3c0.1,0,0.2,0,0.2,0
	c0,0,0.1,0,0.1,0c0,0,0.1,0,0.1,0c0,0,0.1,0,0.1,0c0,0,0.1,0,0.1,0c0,0,0.1,0,0.1,0c0,0,0,0,0.1,0c0,0,0,0,0.1-0.1c0,0,0,0,0-0.1
	c0,0,0-0.1,0-0.1c0,0,0-0.1,0-0.1c0,0,0-0.1,0-0.1c0,0,0-0.1,0-0.1c0,0,0-0.1,0-0.2c0-0.1,0-0.2-0.1-0.3c-0.2-0.5,1.2-1.5,1.7-1.4
	c0.1,0,0.3,0.2,0.4,0.4c0.1,0.1,0.1,0.2,0.2,0.3c0,0.1,0.1,0.1,0.1,0.2c0,0,0.1,0.1,0.1,0.1c0,0,0.1,0.1,0.1,0.1
	c0,0,0.1,0.1,0.1,0.1c0,0,0.1,0.1,0.1,0.1c0,0,0.1,0,0.1,0c0,0,0.1,0,0.1,0c0,0,0.1,0,0.1,0c0,0,0.1,0,0.1,0c0.1,0,0.1,0,0.2-0.1
	c0,0,0.1,0,0.1,0c0.1,0,0.1-0.1,0.2-0.1c0,0,0.1,0,0.1-0.1c0.1-0.1,0.2-0.2,0.4-0.3c0.2-0.2,0.4-0.4,0.6-0.6
	c0.1-0.2,0.3-0.4,0.4-0.5c0-0.1,0.1-0.1,0.1-0.2c0,0,0.1-0.1,0.1-0.1c0-0.1,0.1-0.1,0.1-0.1c0.1-0.1,0.3-0.3,0.5-0.4
	c0.3-0.2,0.6-0.4,0.9-0.6c0.2,0.1,0.3,0.2,0.4,0.3c0,0.1,0.1,0.2,0.1,0.4c0,0,0,0,0,0c0,0,0,0,0,0c0,0.1,0,0.3,0,0.4c0,0,0,0,0,0
	c0,0.1,0,0.1,0,0.2c0,0,0,0,0,0c0,0,0,0.1,0.1,0.1c0,0,0,0,0,0c0,0,0.1,0.1,0.1,0.1c0,0,0,0,0,0c0.1,0,0.1,0.1,0.2,0.1
	c0.8,0.2,0.8-0.7,1.2-1.1c0.1-0.1,0.2-0.3,0.3-0.4c0-0.1,0.1-0.1,0.1-0.2c0.1-0.2,0.2-0.4,0.4-0.6c0,0,0,0,0,0
	c0.1-0.1,0.1-0.2,0.2-0.3c0,0,0.1-0.1,0.1-0.1c0.1-0.1,0.1-0.2,0.2-0.2c0,0,0.1-0.1,0.1-0.1c0.1-0.1,0.1-0.1,0.2-0.2
	c0,0,0.1-0.1,0.1-0.1c0.1-0.1,0.2-0.1,0.3-0.2c0,0,0.1-0.1,0.1-0.1c0.1-0.1,0.3-0.1,0.5-0.2c0,0.1,0,0.2,0,0.3c0,0,0,0.1,0,0.1
	c0,0.1,0,0.1,0,0.2c0,0,0,0.1,0,0.1c0,0.1,0,0.1,0,0.2c0,0,0,0.1,0,0.1c0,0.1,0,0.1-0.1,0.2c0,0,0,0,0,0.1c0,0.1-0.1,0.2-0.1,0.3
	c0,0,0,0,0,0c0,0.1-0.1,0.1-0.1,0.2c0,0,0,0.1,0,0.1c0,0.1,0,0.1-0.1,0.2c0,0.1,0,0.2-0.1,0.2c-0.1,0.7,0,1.2,0.6,1.7
	c0.5,0.4,0.9,0.4,1.3-0.1c0.3-0.4,0.6-0.8,0.8-1.3c0-0.1,0.1-0.2,0.1-0.3c0,0,0,0,0,0c0-0.1,0.1-0.1,0.1-0.2c0,0,0,0,0,0
	c0-0.1,0.1-0.1,0.1-0.2c0,0,0,0,0,0c0,0,0.1-0.1,0.1-0.1c0,0,0,0,0,0c0,0,0,0,0,0c0,0,0.1,0,0.2,0c0,0,0.1,0,0.1,0
	c0.1,0,0.1,0,0.2,0c0,0,0,0,0,0c0,0,0.1,0,0.1,0c0,0,0.1,0,0.1,0c0.1,0,0.2,0.1,0.3,0.2c0.1,0.1,0.2,0.1,0.3,0.1c0,0,0.1,0,0.1,0
	c0.1,0,0.2,0,0.3,0c0,0,0,0,0.1,0c0.1,0,0.2-0.1,0.3-0.1c0,0,0,0,0.1,0c0.1-0.1,0.1-0.1,0.2-0.2c0,0,0,0,0.1,0
	c0.1-0.1,0.3-0.3,0.4-0.4c0.3-0.4,0.5-0.7,1.2-0.3c0.8,0.4,2.3-1.2,2.1-2.1c-0.1-0.3-0.3-0.4-0.6-0.3c-0.2,0.1-0.4,0.3-0.6,0.4
	c-0.5,0.5-0.9,0.7-1.2-0.2c0-0.1-0.4-0.1-0.7-0.1c0-0.4-0.1-0.6-0.5-0.5c-0.5,0.2-1,0.6-1.5,0.8c-0.6,0.2-1.2,0.7-1.8-0.2
	c-0.4-0.6-1.2-0.5-1.9-0.2c-1,0.4-1.8,1.2-2.5,2c-0.3,0.4-0.6,0.9-1.2,0.6c-1.4-0.5-2.5,0.2-3.4,1.2c-0.4,0.4-0.7,0.9-1.3,1.1
	c-0.6-0.2-0.4-1.1-1.1-1.2c-0.7-0.1-1.4,0.2-2,0.6c-0.9,0.6-1.7,1.2-2.7,1.2c-0.4,0-0.7,0.3-0.7,0.7c0,0.4-0.2,0.7-0.4,1
	c-0.7,0.9-1.4,1.5-2.7,0.9c-0.5-0.3-1.1-0.2-1.7-0.1c-1.6,0.3-3-1-2.7-2.6c0-0.3,0.3-0.4,0.4-0.6c1.1-1.1,2.3-2,3.7-2.7
	c2.7-1.5,5.3-3.2,8.2-4.5c0.7-0.3,1.4-0.7,2.1-1c4.9-2.3,9.8-4.6,14.7-6.9c5.5-2.6,11.2-5,16.7-7.6c5.4-2.6,10.5-5.6,15.5-8.6
	c4.2-2.5,8.4-5.2,12.6-7.7c5.2-3.1,10.3-6.3,16-8.6c1.9-0.8,3.5-2.1,5.3-3.1c7.3-3.6,14.6-7.2,22-10.6c5.8-2.6,11.8-4.8,17.4-7.8
	c4.9-2.6,9.9-5.3,14.8-8c3.3-1.9,6.7-3.7,9.9-5.7c4.3-2.7,8.5-5.3,12.9-7.8c2.7-1.6,5.5-3,8.2-4.4c3.3-1.7,6.8-3.1,10.2-4.7
	c2.7-1.2,5.5-1.9,8.2-3c8.9-3.6,18.1-6.2,27.4-8.3c5-1.1,9.9-2.3,14.8-3.7c4.4-1.3,9-1.8,13.6-1.4c1.9,0.2,3.8,0.2,5.7,0.4
	c0.4,0,0.8,0.1,1.1,0.2c0.2,0,0.3,0.1,0.4,0.1c0.2,0.1,0.3,0.1,0.5,0.2c0.2,0.1,0.3,0.2,0.5,0.3c0.1,0.1,0.2,0.1,0.3,0.2
	c0.1,0.1,0.3,0.2,0.4,0.4c0.1,0.1,0.1,0.1,0.2,0.2c0,0,0,0,0,0c0.1,0.2,0.3,0.3,0.4,0.5c0,0,0.1,0.1,0.1,0.1
	c0.1,0.2,0.2,0.4,0.3,0.6c0,0,0,0.1,0.1,0.1c0.1,0.2,0.1,0.5,0.2,0.7c0,0.1,0,0.1,0,0.2c0.1,0.3,0.1,0.6,0.1,0.9
	C297,12.6,295.7,16.5,295.4,18.9z M254.7,81.2c0.7-1.5,1.6-2.9,2.6-4.2c0-0.1,0-0.2,0-0.3c-0.1-0.4,0.4-0.6,0.6-0.4c0,0,0,0,0.1-0.1
	c0.1,0.1,0.2,0.1,0.3,0.2c0,0.4,0,0.7,0,1.1c0,0.2,0,0.4,0.1,0.6c0.3,1.5,0.8,2.9,1.2,4.4c0,0,0,0.1,0,0.1c0,0.2,0,0.3-0.1,0.5
	c-0.1,0.2-0.5,0.2-0.7,0.2c-1.2-0.4-2.4-0.7-3.6-1.1C254.7,82,254.4,81.8,254.7,81.2z M253.8,41c0-0.2,0.2-0.4,0.4-0.4
	c0.1-0.1,0.2-0.1,0.2-0.2c0,0,0,0,0.1,0c0.1-0.1,0.1-0.1,0.2-0.2c0,0,0.1-0.1,0.1-0.1c0,0,0.1-0.1,0.1-0.1c0.1-0.1,0.2-0.2,0.3-0.3
	c0.5-0.5,1.1-0.9,1.9-0.8c0.1,0,0.1,0,0.2,0c0,0,0.1,0,0.1,0.1c0,0,0,0,0,0c0,0,0,0,0.1,0.1c0,0,0,0,0,0c0,0,0,0,0,0.1c0,0,0,0,0,0
	c0,0,0,0.1,0,0.1c0,0.3-0.1,0.7-0.1,1c0,0.1,0,0.3,0,0.4c0,0.2,0,0.4,0,0.6c0,0.2,0,0.4,0,0.5c0,0.1,0,0.3,0,0.4
	c-0.1,1.7-0.2,3.5-0.3,5.2c0,0.3-0.4,0.5-0.7,0.3c-0.6-0.6-1-1.4-1.4-2.2c-0.1-0.3-0.2-0.6-0.3-0.8C254.2,43.5,253.8,42.2,253.8,41z
	 M247.6,48.9c-0.1-0.2-0.1-0.4,0-0.5c0-0.4,0.2-0.8,0.5-1.3c0,0,0.1-0.1,0.1-0.1c0,0,0.1-0.1,0.1-0.1c0,0,0,0,0,0
	c0.1-0.1,0.2-0.3,0.4-0.5c0,0,0,0,0,0c0,0,0.1-0.1,0.1-0.1c0,0,0,0,0,0c0,0,0.1-0.1,0.1-0.1c0,0,0,0,0,0c0.2-0.2,0.4-0.4,0.6-0.6
	c0,0,0,0,0,0c0.3-0.2,0.6-0.4,0.9-0.6c0,0,0,0,0,0c0.1,0,0.1-0.1,0.2-0.1c0.2-0.1,0.4-0.1,0.7-0.2c0.2,0,0.3,0.1,0.4,0.3
	c0.1,0.4,0.2,0.9,0.3,1.3c0,0.2,0.1,0.5,0.1,0.7c0,0,0,0.1,0,0.1c0,0.2,0.1,0.4,0.1,0.7c0,0,0,0.1,0,0.1c0,0.2,0,0.4,0.1,0.7
	c0,0.1,0,0.1,0,0.2c0.1,1.3,0,2.6-0.2,3.9c0,0.3-0.4,0.3-0.6,0.2c-0.6-0.3-1.1-0.6-1.5-1.1c0,0,0,0,0,0
	C249.1,50.9,248.3,49.9,247.6,48.9z M246.2,75.1c0.2-0.2,0.3-0.6,0.5-0.8c0.2,0.1,0.3,0.2,0.5,0.2c0.6,1.5,0.1,3.1,0.5,4.6
	c-0.2,0.1-0.3,0.2-0.4,0.2C243.3,77.9,244.1,77.8,246.2,75.1z M244.1,55.6c-0.1-0.1-0.2-0.3-0.3-0.4c-0.2-0.3,0-0.6,0.3-0.7
	c0.3-0.5,0.8-0.9,1.2-1.3c0,0,0.1,0,0.1-0.1c0,0,0,0,0,0c0,0,0.1,0,0.1,0c0,0,0,0,0,0c0,0,0.1,0,0.1,0c0,0,0,0,0,0c0,0,0,0,0.1,0
	c0,0,0.1,0,0.1,0c0,0,0,0,0,0c0,0,0,0,0.1,0c0.1,0,0.2,0.1,0.2,0.2c0.1,0,0.1,0.1,0.1,0.2c0.3,0.5,0.3,1.6,0.4,2
	c0,0.3,0.1,0.5,0.1,0.8c0,0.2,0.1,0.3,0.1,0.5c0,0.1,0,0.2,0.1,0.2c0,0.1,0.1,0.3,0.1,0.4c0,0.1,0,0.1,0.1,0.2
	c0.1,0.2,0.1,0.4,0.2,0.6c0.1,0.4-0.4,0.7-0.6,0.4C245.6,57.6,244.8,56.6,244.1,55.6z M238.5,61.9c-0.2-0.1-0.3-0.3-0.2-0.4
	c0-0.1,0-0.3,0.1-0.4l1.7-1.7c0.1-0.1,0.4-0.2,0.5,0c0.8,1,1.2,2.1,1.6,3.2c0.1,0.2-0.2,0.5-0.4,0.5C240.6,63,239.6,62.4,238.5,61.9
	z M241,69.3c-0.2,1.5-1,2.6-1.6,3.7c-0.2,0.4-0.5,0.6-0.9,0.2c-0.4-0.4-1.1-0.7-0.6-1.4C238.7,70.9,239.6,70,241,69.3z M59.2,117.3
	c0.1-0.6,0.6-0.8,0.9-1.2C59.9,116.6,59.8,117.1,59.2,117.3z"/>
<path class="st2" d="M186.8,73c-0.7-0.5-1.1,0.6-1.8,0.2c0-1.6,0.6-3.1,0.8-4.7c0-0.5,0.3-1.5-0.5-1.7c-0.8-0.2-0.9,0.7-1.1,1.3
	c-0.7,1.9-1.4,3.8-2.7,5.5c-0.3,0.4-0.6,0.9-0.9,1.3c-0.1,0.1-0.2,0.3-0.2,0.4c-0.2,0.3-0.4,0.7-0.6,1c-0.1,0.1-0.1,0.3-0.2,0.4
	c-0.2,0.5-0.4,0.9-0.7,1.4c-0.3,0.6-0.5,1.1-0.8,1.7c-0.7,1.6-1,2-2,2.7c0.3-1,0.6-1.9,0.9-2.8c0.1-0.2,0.2-0.5,0.3-0.7
	c0.1-0.1,0.1-0.2,0.2-0.4c0,0,0-0.1,0.1-0.1c0.1-0.1,0.1-0.3,0.2-0.4c0,0,0,0,0,0c0-0.1,0.1-0.3,0.1-0.4c0,0,0-0.1,0-0.1
	c0-0.2,0-0.3-0.1-0.5c-0.2,0.2-0.3,0.4-0.5,0.6c0,0.1-0.1,0.1-0.1,0.2c-0.1,0.1-0.2,0.3-0.3,0.4c0,0.1-0.1,0.2-0.1,0.2
	c-0.1,0.1-0.2,0.3-0.3,0.5c0,0.1-0.1,0.2-0.1,0.2c-0.1,0.2-0.2,0.4-0.3,0.6c-0.2,0.3-0.3,0.6-0.5,0.9c0,0.1-0.1,0.1-0.1,0.2
	c-0.2,0.3-0.4,0.6-0.6,1c0-0.3,0-0.6,0-0.9c0-0.1,0-0.3,0-0.4c0,0,0,0,0-0.1c0-0.3,0-0.5,0-0.8c0-0.1,0-0.2,0-0.3c0-0.3,0-0.6,0-0.9
	c0.1-1.6,0.3-3.3,0.4-4.9c0-0.4,0.1-0.8-0.4-0.9c-0.4-0.1-0.7,0.1-1,0.5c-0.5,0.7-0.5,1.4-0.6,2.2c-0.2,1.7,0,3.5-0.8,5.1
	c-0.2,0.5-0.4,1-0.6,1.5c-0.1,0.2-0.1,0.3-0.2,0.5c-0.1,0.3-0.2,0.5-0.2,0.8c-0.2,0.5-0.3,1.1-0.5,1.6c0,0.2-0.1,0.4-0.1,0.5
	c-0.2,0.7-0.3,1.4-0.5,2c-0.3,1.2-0.3,2.4-0.2,3.6c0,0.5,0.1,0.9,0.6,1.1c0.5,0.1,0.8-0.3,1-0.7c0.4-0.6,0.6-1.3,1.4-1.8
	c0.3,4.3,2.1,8,3.7,11.8c0.9,2.1,2,4,3.2,5.9c0.3,0.4,0.6,0.8,1.1,1c0.2,0.1,0.5,0.1,0.7-0.1c0.3-0.3,0.4-2.6,0-3
	c-1.3-1.6-2.4-3.3-3.4-5.1c-2.4-4.2-3.2-8.8-3.7-13.5c0-0.4-0.2-0.9,0.3-1c1.5-0.2,1.7-1.5,2.4-2.5c0.2-0.3,0.3-0.8,0.7-0.8
	c1.4,0.1,1.9-1,2.3-1.9c0.4-0.8,0.9-1.5,1.6-2.3c0.6,1,0.4,1.8,0.4,2.6c0,4-0.2,8,1.2,11.9c1.1,2.9,2,5.9,3.3,8.7
	c0.9,1.9,2.1,3.6,2.8,5.6c0,0.1,0.1,0.2,0.2,0.3c0.2,0.2,0.4,0.3,0.7,0.2c0.3-0.1,0.4-0.3,0.4-0.6c0.1-0.8-0.1-1.5-0.3-2.3
	c-0.6-1.9-1.2-3.9-1.9-5.8c-1-3.3-2.4-6.6-3.3-10c-0.9-3.4-1.4-6.9-1.3-10.4c0-1,0.1-1.7,1.1-2.4c0.3-0.2,0.5-0.4,0.8-0.6
	c0,0,0.1,0,0.1-0.1c0.2-0.2,0.4-0.4,0.6-0.7c0,0,0.1-0.1,0.1-0.1c0.2-0.2,0.4-0.5,0.5-0.8c0-0.1,0.1-0.1,0.1-0.2
	c0.2-0.3,0.3-0.5,0.5-0.8c0.1-0.1,0.2-0.3,0.3-0.4C187.7,72.4,187.3,73.3,186.8,73z M171.3,89.6c0-2.3,0.5-4.1,1.4-6
	C173.1,85.8,173.1,87.7,171.3,89.6z M181.2,77.4c0.2-1.2,0.6-1.9,1.1-2.7C183.1,76.1,182,76.4,181.2,77.4z"/>
<path class="st2" d="M133.8,94.1c0.1-0.1,0.1-0.2-0.2-0.4c-2.4,1-4,3.1-6,4.7c-0.2-0.4,0-0.7,0.2-1c0.7-1.7,1.5-3.4,2.3-5.1
	c0.2-0.4,0.4-0.9,0-1.2c-0.5-0.5-1-0.2-1.4,0.1c-1.2,0.7-2.2,1.5-3,2.6c-0.6,0.8-1.1,1.5-2,2c0.3-1,0.8-1.9,1.2-2.8
	c0.3-0.6,0.7-1.2,0.8-2c0.1-1-0.2-1.3-1.2-1c-0.8,0.2-1.4,0.7-1.9,1.2c-1.1,1.1-2.1,2.3-3.3,3.5c-0.1-0.7,0.3-1.1,0.4-1.6
	c0.1-0.4,0.3-0.8-0.1-1.1c-0.5-0.4-0.8,0.1-1.1,0.3c-0.8,0.7-1.4,2.1-2.9,1.3c-0.2-0.1-0.6,0.2-0.8,0.4c-0.5,0.5-1.1,0.9-1.5,1.4
	c-0.7,1-1.6,1.9-2.6,3.1c0-1.1,0.6-1.8,0.7-2.5c0-0.3,0.1-0.7-0.3-0.8c-0.3-0.1-0.5,0.1-0.7,0.2c-0.5,0.6-0.9,1.2-1.5,1.8
	c-1.1,1.2-2.1,2.5-3.5,3.5c-0.5-2.1-1.2-2.4-2.9-1.4c-0.5,0.2-0.9,0.5-1.3,0.8c-0.5,0.3-0.8,0.9-1.5,1.1c-0.3-0.5,0.4-1.1-0.2-1.4
	c-0.5-0.2-0.8,0.3-1.2,0.5c-0.4,0.3-0.7,0.7-1,1.2c-0.5,0.7-1,1.5-1.7,2c0.1-0.9,1.2-1.5,1-2.6c-0.6,0.3-1,0.7-1.4,1.2
	c-1.5,1.6-2.3,3.8-4.5,4.7c-0.2,0.1-0.4,0.4-0.5,0.6c-0.6,0.8-1.2,1.7-2,2.3c-0.3,0.3-0.7,0.6-0.3,1.1c0.4,0.4,0.8,0.4,1.2,0.1
	c0.3-0.2,0.5-0.4,0.8-0.4c0,0,0,0,0,0c0.1,0,0.1,0,0.2,0c0,0,0,0,0,0c0.1,0,0.1,0,0.2,0.1c0,0,0,0,0.1,0c0.1,0,0.1,0.1,0.2,0.1
	c0,0,0,0,0.1,0c0,0,0,0,0,0c1.2,0.9,1.4,0.8,2.1-0.4c0.3-0.5,0.5-1,0.8-1.5c0.2-0.4,0.5-0.8,0.7-1.2c0.3-0.6,0.6-1.1,1-1.7
	c0.1-0.2,0.2-0.4,0.3-0.5c0.2-0.4,0.5-0.7,0.7-1.1c0.1-0.2,0.2-0.4,0.3-0.5c0.3-0.5,0.7-1,1.1-1.5c0,0.4-0.1,0.7-0.3,1
	c-0.8,1.4-1.7,2.8-2.5,4.3c0,0.1-0.1,0.2-0.1,0.2c0,0.1-0.1,0.2-0.1,0.3c0,0,0,0.1-0.1,0.1c0,0.1-0.1,0.2-0.1,0.2c0,0,0,0.1,0,0.1
	c0,0.1,0,0.1-0.1,0.2c0,0,0,0.1,0,0.1c0,0.1,0,0.1,0,0.2c0,0,0,0.1,0,0.1c0,0,0,0.1,0,0.1c0,0,0,0.1,0,0.1c0,0,0,0.1,0,0.1
	c0,0,0.1,0.1,0.1,0.1c0,0,0,0,0.1,0.1c0.1,0,0.1,0.1,0.2,0.1c1,0.2,1.3-0.7,1.6-1.3c0.2-0.4,0.3-0.7,0.5-1.1c0-0.1,0.1-0.2,0.1-0.3
	c0.6-1,1.2-1.9,1.9-2.9c0.4-0.6,0.9-1.2,1.3-1.9c0.3-0.4,0.6-1,1.5-0.8c-0.1,0.2-0.2,0.5-0.2,0.7c0,0.1,0,0.2,0,0.3
	c0,0.1,0,0.3,0,0.4c0,0.1,0,0.2,0,0.3c0,0.1,0,0.2,0,0.3c0,0.1,0.1,0.2,0.1,0.4c0,0.1,0,0.2,0.1,0.2c0.1,0.2,0.1,0.4,0.2,0.5
	c0,0,0,0.1,0,0.1c0.1,0.2,0.2,0.5,0.3,0.7c0,0.1,0,0.1,0.1,0.2c0.1,0.2,0.1,0.3,0.2,0.5c0.1,0.2,0.1,0.5,0.2,0.7
	c0.2-0.5,0.5-1,0.8-1.4c0.1-0.1,0.2-0.3,0.3-0.4c0.2-0.3,0.4-0.6,0.7-0.9c0.1-0.1,0.2-0.3,0.3-0.4c0.3-0.4,0.6-0.7,1-1.1
	c0,0,0.1-0.1,0.1-0.1c0,0,0,0,0,0c0.4-0.4,0.8-0.8,1.2-1.2c0,0.1,0,0.3,0,0.4c0,0,0,0.1,0,0.1c0,0.1,0,0.2,0,0.3c0,0,0,0,0,0
	c0,0,0,0,0,0c0,0.1-0.1,0.3-0.1,0.4c0,0,0,0.1,0,0.1c-0.1,0.3-0.3,0.6-0.4,0.9c-0.1,0.1-0.1,0.3-0.2,0.4c-0.2,0.5-0.2,0.9,0.2,1.2
	c0.4,0.3,0.9,0.2,1.2-0.2c0.4-0.4,0.8-0.9,1.1-1.3c0.5-0.8,1.1-1.6,1.6-2.5c0.5-0.7,0.9-1.5,1.4-2.2c0.4-0.6,0.8-1.2,1.5-1.5
	c0.2,0.7-0.2,1.1-0.5,1.5c-0.7,1.1-1.4,2.3-2.1,3.4c-0.3,0.4-0.3,0.8,0.1,1.2c0.5,0.3,0.9,0.2,1.2-0.2c0.4-0.4,0.7-0.9,1-1.4
	c0.2-0.2,0.3-0.5,0.5-0.7c0,0,0.1-0.1,0.1-0.1c0.2-0.2,0.3-0.5,0.5-0.7c0,0,0,0,0-0.1c0.1-0.1,0.1-0.2,0.2-0.3
	c0-0.1,0.1-0.2,0.1-0.2c0.1-0.1,0.1-0.2,0.2-0.3c0.1-0.1,0.1-0.1,0.2-0.2c0.1-0.1,0.2-0.2,0.3-0.4c0-0.1,0.1-0.1,0.1-0.2
	c0.2-0.2,0.3-0.4,0.5-0.5c0,0.2-0.1,0.4-0.1,0.5c0,0.1,0,0.1,0,0.2c0,0.1-0.1,0.2-0.1,0.3c-0.1,0.4-0.3,0.7-0.4,1
	c0,0.1-0.1,0.2-0.1,0.3c0,0,0,0,0,0.1c0,0.1,0,0.3,0,0.4c0,0.3,0,0.6,0.4,0.8c0.3,0.2,0.6,0,0.9-0.2c0.5-0.4,0.7-0.9,1-1.4
	c0.1-0.1,0.2-0.3,0.3-0.4c0.1-0.2,0.2-0.4,0.3-0.6c0.2-0.4,0.5-0.8,0.7-1.2c0.1-0.2,0.3-0.4,0.4-0.6c0.3-0.4,0.6-0.8,0.8-1.2
	c0.1-0.1,0.2-0.3,0.3-0.4c0.7-1,1.5-2,2.2-3c0.5-0.7,1.2-1.1,2.2-1.9c-0.6,1.6-1.1,2.7-1.7,3.7c-0.2,0.4-0.4,0.8-0.7,1.2
	c-0.1,0.2-0.3,0.5-0.4,0.7c-0.1,0.2-0.2,0.3-0.3,0.5c-0.1,0.2-0.3,0.5-0.4,0.8c-0.1,0.2-0.2,0.3-0.2,0.5c-0.1,0.2-0.2,0.5-0.3,0.7
	c-0.1,0.3-0.2,0.5-0.3,0.8c-0.2,0.7-0.3,1.3,0.3,1.7c0.5,0.3,0.9-0.3,1.2-0.7c0.3-0.3,0.5-0.6,0.7-0.9c0.3-0.5,0.6-0.9,1-1.4
	c0.3-0.4,0.5-0.8,0.8-1.2c0.2-0.2,0.3-0.5,0.5-0.7c0.2-0.3,0.5-0.7,0.7-1c0.1-0.2,0.3-0.3,0.4-0.5c0.4-0.5,0.7-1,1.1-1.4
	c0.6-0.7,1.1-1.3,2.2-1.6c-0.1,0.9-0.5,1.5-0.8,2.1c-0.5,1.1-1.1,2.2-1.6,3.3c-0.1,0.3-0.2,0.5-0.3,0.8c0,0.1-0.1,0.2-0.1,0.4
	c-0.1,0.2-0.1,0.4-0.1,0.7c-0.1,0.8,0.7,1.2,1.3,0.7c0.2-0.2,0.5-0.4,0.7-0.6c0.1-0.1,0.2-0.2,0.3-0.3c0.1-0.1,0.2-0.2,0.4-0.4
	C130.2,97.3,131.8,95.5,133.8,94.1z M95.4,103.7c0,0.8-0.8,1.1-1.1,1.7C94.5,104.7,94.6,104,95.4,103.7z M103.5,100.5
	c0,0,0.3,0,0.3,0c0.1,0.3,0.2,0.7-0.1,1C103.3,101.1,103.3,100.8,103.5,100.5z M103.1,103.2c-0.2-0.1-0.3-0.2-0.2-0.4
	c0-0.3,0.1-0.5,0.4-0.4c0.1,0,0.1,0.3,0.1,0.5C103.4,103,103.3,103.2,103.1,103.2z M122.6,97.3c-0.1,0-0.2-0.2-0.1-0.3
	c0.2-0.2,0.2-0.5,0.5-0.4c0.1,0,0.2,0.2,0.1,0.3C123,97.2,122.9,97.4,122.6,97.3z"/>
<path class="st2" d="M164.6,86.8c-0.4-0.2-0.7,0.2-0.8,0.6c-0.1,0.2-0.2,0.5-0.3,0.7c-0.2,0.7-0.4,1.3-0.6,2c0,0,0,0,0,0.1
	c0,0,0,0.1,0,0.1c-0.3,1-0.7,1.9-1,2.8c0,0.1,0,0.1-0.1,0.2c-0.4,0.9-0.8,1.9-1.2,2.8c-0.1,0.1-0.1,0.3-0.2,0.4
	c-0.4,0.9-0.8,1.8-1.2,2.7c-0.1,0.2-0.1,0.3-0.2,0.5c-0.4,0.9-0.8,1.7-1.2,2.6c-0.3,0.6-0.5,1.3-1.3,1.7c-0.3-1.6,0.1-3,0.5-4.4
	c0.2-0.9,0.5-1.7,0.7-2.6c0,0,0,0,0-0.1c0.3-0.8,0.5-1.7,0.8-2.5v0l0,0c0.5-1.5,1-3,1.6-4.4c0.1-0.3,0.4-0.7-0.1-1
	c-0.4-0.2-0.7,0.1-0.9,0.5c-0.4,0.9-0.8,1.7-1.1,2.6c-0.2,0.6-0.4,1.3-0.6,1.9c0,0.1-0.1,0.3-0.1,0.4c-0.2,0.5-0.4,1-0.6,1.5
	c0,0,0,0.1-0.1,0.1c0,0.1,0,0.1-0.1,0.2c-0.4,1-0.8,1.9-1.2,2.8c-0.7,1.4-1.5,2.8-2.6,4.5c-0.1-1,0.2-1.6,0.5-2.2
	c0.4-1.1,0.9-2.2,1.3-3.3c0.1-0.2,0.1-0.3,0.2-0.5c0.1-0.1,0.1-0.3,0.2-0.4c0.3-0.7,0.6-1.5,0.9-2.2c0.1-0.3,0.3-0.6,0.4-0.9
	c0.4-1,0.9-2,1.4-3c0.2-0.3,0.5-0.8,0.1-1c-0.5-0.3-0.9,0.1-1.1,0.5c-0.4,0.8-0.9,1.6-1.2,2.4c-0.3,0.7-0.6,1.4-0.9,2
	c-0.1,0.2-0.2,0.5-0.3,0.7c-0.2,0.5-0.5,1-0.7,1.4c-0.1,0.2-0.2,0.5-0.4,0.7c-0.3,0.5-0.6,1.1-0.9,1.6c0,0.1-0.1,0.2-0.1,0.2
	c-0.1,0.2-0.2,0.4-0.4,0.6c-0.4,0.6-0.8,1.3-1.2,1.9c-0.4,0.6-0.7,1.3-1.6,1.6c0-0.7,0.1-1.3,0.2-1.9c0-0.1,0-0.3,0.1-0.4
	c0.1-0.5,0.2-1,0.3-1.4c0,0,0-0.1,0-0.1c0-0.2,0.1-0.4,0.1-0.6c0.1-0.3,0.1-0.5,0.2-0.8c0.1-0.5,0.3-1,0.5-1.5c0.7-2,1.3-4,1.9-6
	c0.1-0.4,0.4-1.1-0.2-1.3c-0.6-0.2-0.9,0.4-1,0.9c-0.3,1-0.5,2-0.9,2.9c-0.2,0.5-0.4,1-0.5,1.5c-0.1,0.2-0.1,0.3-0.1,0.5
	c-0.1,0.3-0.2,0.7-0.3,1c-0.1,0.2-0.1,0.4-0.1,0.6c-0.1,0.3-0.1,0.6-0.2,0.9c0,0.2-0.1,0.4-0.1,0.6c-0.1,0.3-0.1,0.6-0.2,0.9
	c0,0.2-0.1,0.4-0.1,0.5c-0.1,0.7-0.2,1.5-0.3,2.2c0,0.1,0,0.3-0.1,0.4c-0.1,0.7-0.2,1.5-0.3,2.2c-0.1,0.6-0.1,1.2,0.6,1.4
	c0.6,0.2,1-0.2,1.3-0.7c0.3-0.4,0.5-0.7,0.8-1.1c0.3-0.4,0.3-1.1,1.1-1c0,0.1,0,0.3,0,0.4c-0.1,0.8-0.7,1.8,0.4,2.2
	c1,0.3,1.3-0.8,1.7-1.5c0.3-0.5,0.6-1.1,0.9-1.7c0.2-0.3,0.2-0.8,0.8-0.7c0.3,0.6,0,1.3,0.1,2c0.1,0.7-0.2,1.5,0.7,1.8
	c0.9,0.2,1.2-0.6,1.5-1.2c0.3-0.5,0.5-1.2,0.8-1.7c0.8-1.3,1.1-2.9,2.3-4.2c0.3,0.8,0.1,1.3,0.1,1.9c0,0.7,0,1.4,0.2,2.1
	c0.2,0.9,0.8,1,1.5,0.4c0.7-0.6,0.9-1.5,1.3-2.3c0.3-0.6,0.4-1.1,1-0.2c0.2,0.3,0.6,0.1,0.9-0.1c0.3-0.2,1.2-2.6,1.1-3
	c0-0.1-0.2-0.2-0.2-0.2c-0.7,0.2-0.7,0-0.6-0.6c0.6-2.2,1.2-4.4,1.8-6.6c0.4-1.3,0.7-2.6,1-3.9c0.1-0.3,0.1-0.7-0.3-0.8
	c-0.4-0.1-0.6,0.2-0.7,0.5c-0.2,0.6-0.4,1.2-0.6,1.8c-1.1,3.9-2.4,7.8-3.9,11.6c-0.3,0.7-0.4,1.6-1.3,2.1c-0.2-1.5-0.1-2.8,0.2-4.1
	c0.3-1,0.5-2,0.7-3c0.1-0.5,0.2-1,0.4-1.5c0.1-0.4,0.2-0.8,0.3-1.1c0.1-0.4,0.2-0.8,0.3-1.3c0.1-0.4,0.2-0.7,0.3-1.1
	c0.1-0.3,0.2-0.5,0.2-0.8c0.1-0.3,0.2-0.7,0.3-1C164.8,87.3,164.9,87,164.6,86.8z"/>
<path class="st2" d="M196.9,67.5c0-0.1,0.1-0.2,0.1-0.3c0-0.1,0-0.2,0.1-0.3c0-0.1,0-0.2,0.1-0.3c0-0.1,0-0.2,0-0.3
	c0-0.1,0-0.2,0-0.3c0-0.1,0-0.2,0-0.3c0-0.1,0-0.2,0-0.3c0-0.1,0-0.2,0-0.3c0-0.1,0-0.2,0-0.3c0-0.1,0-0.2,0-0.3c0-0.1,0-0.2,0-0.3
	c0-0.2-0.1-0.5-0.1-0.7c0-0.3-0.3-0.6-0.6-0.7c-0.5-0.1-0.7,0.2-0.8,0.6c-0.2,0.5-0.2,1.2-0.6,1.4c-1,0.6-0.9,1.4-0.9,2.3
	c0,1.3-0.4,1.8-1.7,2.1c-0.3,0.1-0.6,0.1-0.9,0.1c-0.4,0.1-0.9,0.3-0.7,0.9c0,0.1,0.1,0.2,0.2,0.3c0,0,0,0,0.1,0.1
	c0.1,0.1,0.1,0.1,0.2,0.1c0,0,0.1,0,0.1,0c0,0,0.1,0,0.1,0c0.1,0,0.2,0,0.3,0c0.7,0,1.1-0.6,1.7-0.6c0.3,0.6,0.2,1.1,0.1,1.7
	c-0.4,3.7-0.5,7.4,0.2,11c0.3,1.9,0.7,3.9,1,5.8c0.5,3.2,0.9,6.4,1.8,9.5c0.3,0.9,0.4,1.8,1.5,1.9c0.7,0,0.9-1.1,0.5-2.5
	c-0.3-1-0.5-2.1-0.7-3.2c-1.8-7.5-2.8-15-2.3-22.7c0.1-1.3,0-2.8,0.8-3.9c0.1-0.2,0.2-0.3,0.3-0.5C196.8,67.7,196.8,67.6,196.9,67.5
	z"/>
<path class="st2" d="M233.3,37.9c0.1-0.4,0.6-0.6,0.5-1.2c-0.7,0.3-1.2,0.5-1.6,1c-0.5,0.6-0.8,1.3-0.2,1.9c0.1,0.1,0.2,0.2,0.3,0.3
	c0,0.1,0.1,0.1,0.1,0.2c0,0,0,0.1,0.1,0.1l0,0c0,0.1,0,0.2,0,0.3c0,0,0,0,0,0.1c0,0.1-0.1,0.2-0.1,0.3l0,0c-0.1,0.1-0.1,0.2-0.2,0.3
	c0,0,0,0-0.1,0.1c-0.1,0.1-0.2,0.2-0.3,0.3c-1.5,1.4-3,2.8-4.3,4.3c-0.1,0.1-0.2,0.3-0.3,0.4c0,0-0.1,0.1-0.1,0.1
	c-0.1,0.1-0.2,0.2-0.2,0.3c0,0-0.1,0.1-0.1,0.1c-0.1,0.1-0.1,0.1-0.2,0.2c-0.1,0-0.1,0.1-0.2,0.1c-0.1,0.1-0.2,0.1-0.2,0.2
	c-0.1,0-0.1,0.1-0.2,0.1c-0.1,0.1-0.2,0.1-0.2,0.2c-0.1,0-0.1,0.1-0.2,0.1c-0.1,0-0.2,0.1-0.3,0.1c-0.1,0-0.1,0-0.2,0.1
	c-0.2,0.1-0.3,0.1-0.5,0.1c0,0,0,0,0,0c-0.2,0-0.4,0-0.6,0c-0.4,0-0.7,0.2-1.1,0.4c-0.7,0.3-1.3,0.7-2,1c-0.2,0.1-0.4,0.3-0.7,0.4
	c-0.4,0.2-0.8,0.5-1.2,0.7c-0.3,0.2-0.5,0.4-0.8,0.6c-0.3,0.2-0.6,0.5-0.9,0.7c-0.3,0.2-0.6,0.5-0.8,0.7c-0.3,0.2-0.5,0.4-0.8,0.7
	c-0.3,0.3-0.6,0.5-0.9,0.8c-0.2,0.2-0.5,0.4-0.7,0.7c-0.3,0.3-0.6,0.6-0.8,0.9c-0.2,0.2-0.4,0.4-0.6,0.7c-0.3,0.3-0.6,0.7-0.8,1
	c-0.2,0.2-0.4,0.4-0.6,0.7c-0.3,0.3-0.5,0.7-0.8,1.1c-0.3,0.3-0.5,0.7-0.8,1c-0.3,0.4-0.4,0.9-0.6,1.4c-0.2,0.4-0.4,0.8-0.7,1.1
	c-1.9,1.3-3.7,2.6-5.6,4c-0.5-0.3,0-0.9-0.7-1.4c-0.5,0.7-1.1,1.3-1.6,2c-0.3,0.4-0.4,0.8,0,1.2c0.3,0.3,0.7,0.5,1.2,0.3
	c0.7-0.2,1.2-0.6,1.8-1.1c1.9-1.6,3.6-3.6,6.2-4.3c0.4-0.1,0.5-0.4,0.6-0.7c0.8-2.3,2.4-4,4.1-5.7c0.3-0.3,0.7-0.7,1-1c0,0,0,0,0,0
	l0,0c0.5-0.5,1-0.9,1.5-1.4c0,0,0.1-0.1,0.1-0.1c0.5-0.5,1-0.9,1.5-1.3c0,0,0.1,0,0.1-0.1c1.1-0.9,2.2-1.7,3.4-2.4c0,0,0,0,0,0
	c0.1-0.1,0.2-0.1,0.3-0.2c1-0.6,2-1.2,3.2-0.9c0.7,0.2,1.2-0.3,1.6-0.8c1.9-2.5,4-4.8,6.3-6.9c0.1-0.1,0.2-0.2,0.3-0.2
	c0,0,0.1-0.1,0.1-0.1c0,0,0.1-0.1,0.1-0.1c0-0.1,0.1-0.1,0.1-0.2c0,0,0-0.1,0-0.1c0-0.1,0.1-0.2,0.1-0.2c0,0,0,0,0,0
	c0-0.1,0-0.2,0-0.3c0,0,0,0,0,0c0-0.1,0-0.2,0-0.2c0,0,0,0,0-0.1c0-0.1-0.1-0.2-0.1-0.2c0,0,0,0,0-0.1c0-0.1-0.1-0.2-0.2-0.2
	c0,0,0-0.1-0.1-0.1C232.9,38.7,233.2,38.4,233.3,37.9z"/>
<path class="st2" d="M145.2,98c0.1-0.2,0.3-0.4,0.4-0.5c0.2-0.3,0.4-0.6,0.6-0.9c0.1-0.2,0.2-0.3,0.3-0.5c0.3-0.4,0.5-0.9,0.7-1.4
	c0-0.1,0-0.1,0-0.2c0-0.5-0.2-0.7-0.7-0.6c-0.6,0.1-1,0.5-1.4,0.9c-1.7,1.9-3.3,3.8-5,5.8c-0.4,0.4-0.7,0.9-1.3,1c0-0.2,0-0.4,0-0.6
	c0,0,0-0.1,0-0.1c0-0.2,0.1-0.3,0.2-0.5c0,0,0-0.1,0-0.1c0.1-0.1,0.1-0.3,0.2-0.4c0.1-0.2,0.2-0.3,0.2-0.5c0,0,0-0.1,0-0.1
	c0.1-0.2,0.1-0.3,0.2-0.5c0.2-0.9,1-1.7,0.4-2.8c-1.3,0.7-1.4,2.1-2.6,2.8c-0.1-1.5,1.2-2.9-0.2-4.7c0,0.4-0.1,0.9-0.1,1.3
	c0,0.1,0,0.2,0,0.3c-0.1,0.4-0.2,0.8-0.3,1.1c0,0.1,0,0.1-0.1,0.2c-0.1,0.3-0.2,0.7-0.3,1c0,0.1-0.1,0.1-0.1,0.2
	c-0.1,0.4-0.3,0.7-0.4,1.1c0,0,0,0,0,0c-0.2,0.4-0.4,0.8-0.6,1.3c-0.2,0.5-0.3,1.1-0.4,1.7c-0.1,0.6,0.3,0.8,0.8,0.6
	c0.3-0.1,0.5-0.4,0.8-0.4c0.2,0.2,0.2,0.5,0.2,0.7c0,0.5,0,0.9,0.5,1.1c0.5,0.2,0.8-0.1,1.2-0.5c0.1-0.1,0.3-0.3,0.4-0.4
	c1.1-1.3,2.1-2.6,3.2-3.9c0.6-0.7,1.1-1.3,1.7-2c0.2-0.2,0.3-0.8,0.8-0.5c-0.1,0.2-0.2,0.4-0.2,0.6c0,0.1-0.1,0.1-0.1,0.2
	c0,0.1-0.1,0.1-0.1,0.2c-0.1,0.1-0.1,0.2-0.2,0.3c0,0,0,0,0,0c-0.1,0.2-0.2,0.4-0.3,0.6c0,0,0,0,0,0.1c-0.1,0.2-0.1,0.4-0.2,0.6
	c0,0.1,0,0.1,0,0.2c0,0.1,0,0.1,0,0.2c0,0.1,0,0.3,0,0.5c0.2-0.3,0.4-0.5,0.5-0.8c0.1-0.2,0.2-0.3,0.3-0.5
	C144.7,98.7,145,98.4,145.2,98z"/>
<path class="st2" d="M242,32.9c-0.1,0.1-0.3,0.2-0.4,0.3c-0.4,0.3-0.9,0.6-1.3,0.9c0,0,0,0,0,0c-1.1,0.8-2.2,1.6-3.3,2.4
	c-0.9,0.6-1.7,1.3-2.6,2c-0.3,0.2-0.3,0.5-0.1,0.8c0.2,0.2,0.5,0.2,0.7,0.1c0.3-0.2,0.6-0.4,0.9-0.6c0.9-0.7,1.8-1.5,2.6-2.2
	c0.3-0.3,0.6-0.7,1.2-0.4c0.8,0.4,1.2-0.1,1.6-0.6c0.7-0.8,1.5-1.6,2.3-2.3c0.3-0.2,0.6-0.7,1-0.4c1.1,0.7,1.6-0.2,2.2-0.8
	c1-1,1.8-2.1,3-2.9c0.3-0.2,0.5-0.7,1-0.3c0.7,0.5,1.2-0.1,1.7-0.4c0.8-0.6,1.6-1.3,2.3-2c0.7-0.6,1.5-1.2,1.8-2.1
	c-1.6,0.9-3.1,2-4.7,2.8c-1.5,0.7-2.9,1.6-4.1,2.8c-0.5,0.4-0.9,0.9-1.6,0.9c-0.9,0-1.6,0.5-2.3,0.9c-0.2,0.1-0.5,0.3-0.7,0.5
	C242.8,32.4,242.4,32.6,242,32.9z"/>
<path class="st2" d="M67,124.4c-0.2,0.4-0.4,0.9,0.1,1.2c0.5,0.3,0.8-0.1,1.1-0.4c0.9-1.1,1-2.5,1.1-3.9c-0.1,0-0.3-0.1-0.4-0.1
	C68.3,122.2,67.6,123.3,67,124.4z"/>
<path class="st2" d="M80.3,115.4c0.4-0.6,0.7-1.3,1.1-2.2c-1.3-0.2-1.9,0.5-2.5,1.2c-0.4,0.4-0.4,1,0.1,1.3
	C79.5,116,80,115.9,80.3,115.4z"/>
<path class="st2" d="M76.8,118.4c0.1-0.2,0.1-0.5,0.2-0.8c-1.3,0.1-1.5,1.2-2.2,1.6c-0.1,0-0.1,0.1-0.2,0.1c0,0-0.1,0.1-0.1,0.1
	c0,0-0.1,0.1-0.1,0.1c0,0,0,0.1,0,0.1c0,0.1,0,0.1,0,0.2c0,0,0,0.1,0,0.1c0,0.1,0.1,0.2,0.1,0.3c0.3,0.4,0.8,0.4,1.2,0.1
	c0.2-0.1,0.4-0.3,0.5-0.5c0,0,0,0,0,0c0.1-0.2,0.2-0.3,0.3-0.5c0,0,0-0.1,0.1-0.1c0-0.1,0.1-0.2,0.1-0.3
	C76.7,118.7,76.8,118.6,76.8,118.4z"/>
<path class="st2" d="M73.2,119.2c0.1-0.1,0.1-0.2,0.2-0.2c0-0.1,0.1-0.1,0.1-0.2c0.1-0.1,0.1-0.2,0.1-0.3c0-0.1,0.1-0.1,0.1-0.2
	c0-0.2,0.1-0.4,0.1-0.6c-0.8-0.2-1.4,0.3-1.9,0.7c-0.4,0.2-0.8,0.6-0.3,1.1c0,0,0,0,0.1,0.1c0.1,0.1,0.2,0.2,0.3,0.2c0,0,0,0,0,0
	c0.1,0.1,0.2,0.1,0.3,0.1c0,0,0,0,0,0c0.1,0,0.2,0,0.3,0c0,0,0,0,0,0c0.1,0,0.2-0.1,0.3-0.2c0.1-0.1,0.1-0.1,0.2-0.2
	C73.1,119.3,73.1,119.2,73.2,119.2z"/>
<path class="st2" d="M82.7,114.6c0.8-0.4,1.1-1.1,0.9-2.5c-0.7,0-0.8,0.7-1.3,1c-0.2,0.1-0.4,0.3-0.5,0.5c-0.2,0.3-0.2,0.6,0,0.9
	C82,114.8,82.4,114.8,82.7,114.6z"/>
<path class="st2" d="M86.5,108c0.5-0.1,1.3-0.1,1.2-0.9c-0.1-0.5-0.7-0.7-1.2-0.7c-0.5,0-1,0.2-1.1,0.8
	C85.5,107.9,85.9,108.2,86.5,108z"/>
<path class="st2" d="M65.4,118.5c0.6,0.2,1.5-0.3,1.6-0.9c0-0.2,0-0.4-0.1-0.5c-0.3-0.3-0.7-0.1-1.1,0c-0.4,0.2-0.9,0.3-0.9,0.8
	C64.9,118.3,65.1,118.4,65.4,118.5z"/>
<path class="st2" d="M70.4,119.3C70.4,119.3,70.4,119.3,70.4,119.3c0.1-0.1,0.2-0.2,0.2-0.3c0,0,0,0,0,0c0.1-0.1,0.1-0.2,0.1-0.3
	c0,0,0,0,0-0.1c0-0.1,0-0.2,0-0.3c-0.1-0.2-0.3-0.4-0.6-0.3c-0.6,0.2-1.2,0.3-1.3,1.1c0,0.1,0.1,0.2,0.1,0.3c0,0,0,0,0.1,0.1
	c0,0,0.1,0.1,0.1,0.1c0.1,0,0.1,0.1,0.2,0.1c0,0,0.1,0,0.1,0c0.1,0,0.2,0,0.3,0c0.1,0,0.2-0.1,0.3-0.1c0,0,0,0,0,0
	C70.2,119.5,70.3,119.4,70.4,119.3z"/>
<path class="st2" d="M294.6,8.3c-0.2,0-0.3,0-0.5,0.1c-0.1,0-0.2,0.1-0.4,0.1c-0.6,0.3-0.9,1.1-0.6,1.6c0,0.1,0,0.1,0,0.2
	c0,0,0,0.1,0,0.1c0,0.1,0,0.2,0,0.3c0,0.6,0.3,1.1,0.8,1.3c0.6,0.2,1.4-0.1,1.6-0.8c0.2-0.6,0.2-1.2,0.1-1.9
	C295.7,8.7,295.1,8.3,294.6,8.3z"/>
</svg>
