<?xml version="1.0" encoding="utf-8"?>
<!-- Generator: Adobe Illustrator 23.0.1, SVG Export Plug-In . SVG Version: 6.00 Build 0)  -->
<svg version="1.1" id="Layer_1" xmlns="http://www.w3.org/2000/svg" xmlns:xlink="http://www.w3.org/1999/xlink" x="0px" y="0px"
	 viewBox="0 0 176 44" style="enable-background:new 0 0 176 44;" xml:space="preserve">
<style type="text/css">
	.st0{fill:#FFFFFF;}
	.st1{fill:#474C64;}
	.st2{fill:#D16E60;}
</style>
<g>
	<polygon class="st0" points="125.4,36.4 176,22 125.4,7.6 73,0 29.6,4.6 3.1,11 0,22 3.1,33 29.6,39.4 73,44 	"/>
	<polygon class="st1" points="124.8,28.7 126.3,22 124.8,15.3 74.8,5.6 42.8,8.3 42.8,22 42.8,22 42.8,35.7 74.8,38.4 	"/>
	<polygon class="st0" points="123.3,26.1 123.9,22.1 123.9,22.1 123.9,22 123.9,21.9 123.9,21.9 123.3,17.9 75.2,10.8 42.8,12.7 
		42.8,20.7 42.8,23.3 42.8,31.3 75.3,33.1 	"/>
	<g>
		<polygon class="st2" points="42.8,8.3 21.6,12.7 19.2,22 42.8,22 		"/>
		<polygon class="st2" points="42.8,22 19.2,22 21.6,31.3 42.8,35.7 		"/>
	</g>
	
		<rect x="31.4" y="21.7" transform="matrix(-1.836970e-16 1 -1 -1.836970e-16 65.6303 -21.0876)" class="st1" width="24" height="1.1"/>
	
		<rect x="57.2" y="18.9" transform="matrix(-1.836970e-16 1 -1 -1.836970e-16 80.8697 -36.9642)" class="st1" width="3.4" height="6.2"/>
	
		<rect x="105.6" y="19.3" transform="matrix(-1.836970e-16 1 -1 -1.836970e-16 129.4039 -85.4984)" class="st1" width="3.8" height="5.3"/>
	
		<rect x="90.4" y="19.4" transform="matrix(-1.836970e-16 1 -1 -1.836970e-16 114.0496 -70.1441)" class="st1" width="3.4" height="5"/>
</g>
</svg>
