<?xml version="1.0" encoding="utf-8"?>
<!-- Generator: Adobe Illustrator 23.0.1, SVG Export Plug-In . SVG Version: 6.00 Build 0)  -->
<svg version="1.1" id="Layer_1" xmlns="http://www.w3.org/2000/svg" xmlns:xlink="http://www.w3.org/1999/xlink" x="0px" y="0px"
	 viewBox="0 0 44 176" style="enable-background:new 0 0 44 176;" xml:space="preserve">
<style type="text/css">
	.st0{fill:#FFFFFF;}
	.st1{fill:#474C64;}
	.st2{fill:#D16E60;}
</style>
<g>
	<polygon class="st0" points="36.4,50.6 22,0 7.6,50.6 0,103 4.6,146.4 11,172.9 22,176 33,172.9 39.4,146.4 44,103 	"/>
	<polygon class="st1" points="28.7,51.2 22,49.7 15.3,51.2 5.6,101.2 8.3,133.2 22,133.2 22,133.2 35.7,133.2 38.4,101.2 	"/>
	<polygon class="st0" points="26.1,52.7 22.1,52.1 22.1,52.1 22,52.1 21.9,52.1 21.9,52.1 17.9,52.7 10.8,100.8 12.7,133.2 
		20.7,133.2 23.3,133.2 31.3,133.2 33.1,100.7 	"/>
	<g>
		<polygon class="st2" points="8.3,133.2 12.7,154.4 22,156.8 22,133.2 		"/>
		<polygon class="st2" points="22,133.2 22,156.8 31.3,154.4 35.7,133.2 		"/>
	</g>
	<rect x="10.3" y="132.1" class="st1" width="24" height="1.1"/>
	<rect x="20.3" y="114" class="st1" width="3.4" height="6.2"/>
	<rect x="20.1" y="65.9" class="st1" width="3.8" height="5.3"/>
	<rect x="20.3" y="81.4" class="st1" width="3.4" height="5"/>
</g>
</svg>
