<?xml version="1.0" encoding="utf-8"?>
<!-- Generator: Adobe Illustrator 23.0.1, SVG Export Plug-In . SVG Version: 6.00 Build 0)  -->
<svg version="1.1"
	 id="Layer_1" xmlns:cc="http://creativecommons.org/ns#" xmlns:dc="http://purl.org/dc/elements/1.1/" xmlns:inkscape="http://www.inkscape.org/namespaces/inkscape" xmlns:rdf="http://www.w3.org/1999/02/22-rdf-syntax-ns#" xmlns:sodipodi="http://sodipodi.sourceforge.net/DTD/sodipodi-0.dtd" xmlns:svg="http://www.w3.org/2000/svg"
	 xmlns="http://www.w3.org/2000/svg" xmlns:xlink="http://www.w3.org/1999/xlink" x="0px" y="0px" viewBox="678 356 80 80"
	 enable-background="new 678 356 80 80" xml:space="preserve">
<sodipodi:namedview  bordercolor="#666666" borderopacity="1" gridtolerance="10" guidetolerance="10" id="namedview7" inkscape:current-layer="Layer_1" inkscape:cx="512" inkscape:cy="512" inkscape:pageopacity="0" inkscape:pageshadow="2" inkscape:window-height="480" inkscape:window-maximized="0" inkscape:window-width="640" inkscape:window-x="0" inkscape:window-y="0" inkscape:zoom="0.23046875" objecttolerance="10" pagecolor="#ffffff" showgrid="false">
	</sodipodi:namedview>
<g id="g2982" transform="matrix(-1.8749991,0,0,-1.8749991,991.99985,991.99977)">
	<path id="rect19383" inkscape:connector-curvature="0" fill="#835E59" d="M164,320c0-1.2-0.4-2.3-1.3-3.2c-1.8-1.8-4.7-1.8-6.5,0
		l-5.4,5.4v-21.1c0-2.5-2-4.6-4.6-4.6s-4.6,2-4.6,4.6v21.1l-5.4-5.4c-1.8-1.8-4.7-1.8-6.5,0c-1.8,1.8-1.8,4.7,0,6.5
		c5.7,5.7,10.3,10.3,15.6,15.6c0.5,0.5,1.4,0.5,1.9,0l15.6-15.6C163.5,322.3,164,321.2,164,320z"/>
</g>
</svg>
